<svg width="32" height="32" viewBox="0 0 32 32" fill="none" xmlns="http://www.w3.org/2000/svg">
<g opacity="0.5">
<rect width="32" height="32" rx="16" fill="#E0F2FE"/>
<path d="M18.5 20.1667H22.6667L21.4959 18.9959C21.1784 18.6784 21 18.2477 21 17.7987V15.1667C21 12.9896 19.6087 11.1376 17.6667 10.4512V10.1667C17.6667 9.24619 16.9205 8.5 16 8.5C15.0796 8.5 14.3334 9.24619 14.3334 10.1667V10.4512C12.3914 11.1376 11 12.9896 11 15.1667V17.7987C11 18.2477 10.8217 18.6784 10.5042 18.9959L9.33337 20.1667H13.5M18.5 20.1667V21C18.5 22.3807 17.3808 23.5 16 23.5C14.6193 23.5 13.5 22.3807 13.5 21V20.1667M18.5 20.1667H13.5" stroke="#38BDF8" stroke-width="1.5" stroke-linecap="round" stroke-linejoin="round"/>
</g>
</svg>
