<svg width="56" height="56" viewBox="0 0 56 56" fill="none" xmlns="http://www.w3.org/2000/svg">
<path d="M43.6666 9.11987H30.2926C29.5658 9.11987 28.9766 9.70907 28.9766 10.4359V17.3519C28.9766 18.0787 29.5658 18.6679 30.2926 18.6679H43.6666C44.3934 18.6679 44.9826 18.0787 44.9826 17.3519V10.4359C44.9826 9.70907 44.3934 9.11987 43.6666 9.11987Z" fill="white" stroke="#000062" stroke-miterlimit="10"/>
<path d="M38.9447 18.668H35.0127V24.004H38.9447V18.668Z" fill="white" stroke="#000062" stroke-miterlimit="10"/>
<path d="M15.9177 31.7881V27.5881H11.8457V46.7181C11.8454 46.8337 11.8679 46.9482 11.9119 47.055C11.9559 47.1619 12.0205 47.2591 12.102 47.341C12.1836 47.4229 12.2804 47.4879 12.3871 47.5324C12.4938 47.5768 12.6081 47.5999 12.7237 47.6001H15.0397C15.2726 47.6001 15.4959 47.5076 15.6605 47.343C15.8252 47.1783 15.9177 46.955 15.9177 46.7221V35.9901" fill="white"/>
<path d="M15.9177 31.7881V27.5881H11.8457V46.7181C11.8454 46.8337 11.8679 46.9482 11.9119 47.055C11.9559 47.1619 12.0205 47.2591 12.102 47.341C12.1836 47.4229 12.2804 47.4879 12.3871 47.5324C12.4938 47.5768 12.6081 47.5999 12.7237 47.6001H15.0397C15.2726 47.6001 15.4959 47.5076 15.6605 47.343C15.8252 47.1783 15.9177 46.955 15.9177 46.7221V35.9901" stroke="#000062" stroke-miterlimit="10"/>
<path d="M31.3628 27.584H45.9628V47C45.9628 47.1591 45.8996 47.3117 45.7871 47.4242C45.6745 47.5368 45.5219 47.6 45.3628 47.6H31.9628C31.8037 47.6 31.6511 47.5368 31.5385 47.4242C31.426 47.3117 31.3628 47.1591 31.3628 47V27.584Z" fill="white" stroke="#000062" stroke-miterlimit="10"/>
<path d="M31.3628 37.5881H45.9648" stroke="#000062" stroke-miterlimit="10"/>
<path d="M28.9766 15.6838H44.9826" stroke="#000062" stroke-miterlimit="10"/>
<path d="M22.3933 21.3359H14.4613C14.141 21.3359 13.8813 21.5956 13.8813 21.9159V23.4239C13.8813 23.7443 14.141 24.0039 14.4613 24.0039H22.3933C22.7137 24.0039 22.9733 23.7443 22.9733 23.4239V21.9159C22.9733 21.5956 22.7137 21.3359 22.3933 21.3359Z" fill="white" stroke="#000062" stroke-miterlimit="10"/>
<path d="M20.2889 18.668H12.3569C12.0365 18.668 11.7769 18.9276 11.7769 19.248V20.756C11.7769 21.0763 12.0365 21.336 12.3569 21.336H20.2889C20.6092 21.336 20.8689 21.0763 20.8689 20.756V19.248C20.8689 18.9276 20.6092 18.668 20.2889 18.668Z" fill="white" stroke="#000062" stroke-miterlimit="10"/>
<path d="M38.6618 33.9721C39.4372 33.9721 40.0658 33.3435 40.0658 32.5681C40.0658 31.7927 39.4372 31.1641 38.6618 31.1641C37.8864 31.1641 37.2578 31.7927 37.2578 32.5681C37.2578 33.3435 37.8864 33.9721 38.6618 33.9721Z" fill="white" stroke="#000062" stroke-miterlimit="10"/>
<path d="M38.6618 43.9401C39.4372 43.9401 40.0658 43.3115 40.0658 42.5361C40.0658 41.7607 39.4372 41.1321 38.6618 41.1321C37.8864 41.1321 37.2578 41.7607 37.2578 42.5361C37.2578 43.3115 37.8864 43.9401 38.6618 43.9401Z" fill="white" stroke="#000062" stroke-miterlimit="10"/>
<path d="M46.7624 24.002H11.1884C10.7764 24.002 10.4424 24.3359 10.4424 24.748V26.836C10.4424 27.248 10.7764 27.582 11.1884 27.582H46.7624C47.1744 27.582 47.5084 27.248 47.5084 26.836V24.748C47.5084 24.3359 47.1744 24.002 46.7624 24.002Z" fill="white" stroke="#000062" stroke-miterlimit="10"/>
<path d="M34.5767 27.584V32.568" stroke="#000062" stroke-miterlimit="10"/>
<path d="M34.5767 33.6038V35.3038" stroke="#000062" stroke-miterlimit="10"/>
<path d="M32.4766 9.11987V12.5539" stroke="#000062" stroke-miterlimit="10"/>
<path d="M32.4766 13.2539V13.8939" stroke="#000062" stroke-miterlimit="10"/>
<path d="M15.9188 34.5721C16.2502 34.5721 16.5188 34.3034 16.5188 33.9721C16.5188 33.6407 16.2502 33.3721 15.9188 33.3721C15.5875 33.3721 15.3188 33.6407 15.3188 33.9721C15.3188 34.3034 15.5875 34.5721 15.9188 34.5721Z" fill="#000062"/>
</svg>
