<svg width="56" height="56" viewBox="0 0 56 56" fill="none" xmlns="http://www.w3.org/2000/svg">
<path d="M26.6247 40.3141C23.1039 41.0392 19.4435 40.6179 16.1795 39.112C12.9154 37.6061 10.2193 35.0948 8.48592 31.9456C6.75254 28.7965 6.07297 25.1752 6.54674 21.6119C7.02051 18.0486 8.62272 14.7306 11.1187 12.1438C13.6148 9.557 16.8734 7.83735 20.4175 7.23666C23.9616 6.63598 27.605 7.18582 30.814 8.80567C34.023 10.4255 36.629 13.0303 38.2505 16.2384C39.8719 19.4466 40.4236 23.0897 39.8247 26.6341" fill="white"/>
<path d="M26.6247 40.3141C23.1039 41.0392 19.4435 40.6179 16.1795 39.112C12.9154 37.6061 10.2193 35.0948 8.48592 31.9456C6.75254 28.7965 6.07297 25.1752 6.54674 21.6119C7.02051 18.0486 8.62272 14.7306 11.1187 12.1438C13.6148 9.557 16.8734 7.83735 20.4175 7.23666C23.9616 6.63598 27.605 7.18582 30.814 8.80567C34.023 10.4255 36.629 13.0303 38.2505 16.2384C39.8719 19.4466 40.4236 23.0897 39.8247 26.6341" stroke="#000062" stroke-miterlimit="10"/>
<path d="M26.4025 36.6261C23.6218 37.3183 20.6914 37.0867 18.0539 35.9665C15.4164 34.8463 13.2151 32.8982 11.7824 30.4166C10.3497 27.9349 9.76352 25.0544 10.1123 22.2101C10.4612 19.3659 11.7261 16.7124 13.716 14.6505C15.7059 12.5886 18.3127 11.2302 21.1428 10.7805C23.9728 10.3308 26.8723 10.8143 29.4033 12.1579C31.9344 13.5015 33.9594 15.6322 35.1727 18.2282C36.3859 20.8242 36.7214 23.7446 36.1285 26.5481" fill="white"/>
<path d="M26.4025 36.6261C23.6218 37.3183 20.6914 37.0867 18.0539 35.9665C15.4164 34.8463 13.2151 32.8982 11.7824 30.4166C10.3497 27.9349 9.76352 25.0544 10.1123 22.2101C10.4612 19.3659 11.7261 16.7124 13.716 14.6505C15.7059 12.5886 18.3127 11.2302 21.1428 10.7805C23.9728 10.3308 26.8723 10.8143 29.4033 12.1579C31.9344 13.5015 33.9594 15.6322 35.1727 18.2282C36.3859 20.8242 36.7214 23.7446 36.1285 26.5481" stroke="#000062" stroke-miterlimit="10"/>
<path d="M48.9963 36.402C48.6547 33.6505 47.319 31.1188 45.2407 29.2837C43.1624 27.4485 40.4849 26.4364 37.7123 26.438C37.1823 26.4378 36.653 26.4752 36.1283 26.55C33.615 26.9036 31.2922 28.0878 29.5297 29.914C27.7672 31.7403 26.6663 34.1037 26.4023 36.628C26.362 37.0207 26.342 37.4152 26.3423 37.81C26.3455 40.6944 27.4447 43.4698 29.4173 45.5743C31.3899 47.6787 34.0884 48.955 36.9666 49.1446C39.8448 49.3343 42.6875 48.4231 44.9191 46.5957C47.1508 44.7682 48.6046 42.161 48.9863 39.302" fill="white"/>
<path d="M48.9963 36.402C48.6547 33.6505 47.319 31.1188 45.2407 29.2837C43.1624 27.4485 40.4849 26.4364 37.7123 26.438C37.1823 26.4378 36.653 26.4752 36.1283 26.55C33.615 26.9036 31.2922 28.0878 29.5297 29.914C27.7672 31.7403 26.6663 34.1037 26.4023 36.628C26.362 37.0207 26.342 37.4152 26.3423 37.81C26.3455 40.6944 27.4447 43.4698 29.4173 45.5743C31.3899 47.6787 34.0884 48.955 36.9666 49.1446C39.8448 49.3343 42.6875 48.4231 44.9191 46.5957C47.1508 44.7682 48.6046 42.161 48.9863 39.302" stroke="#000062" stroke-miterlimit="10"/>
<path d="M23.2139 10.6182V13.1222" stroke="#000062" stroke-miterlimit="10"/>
<path d="M23.2139 34.6479V37.1499" stroke="#000062" stroke-miterlimit="10"/>
<path d="M36.1285 23.5342H33.6265" stroke="#000062" stroke-miterlimit="10"/>
<path d="M12.8038 23.5342H10.2998" stroke="#000062" stroke-miterlimit="10"/>
<path d="M15.8525 16.1721L14.0825 14.4021" stroke="#000062" stroke-miterlimit="10"/>
<path d="M14.0825 32.664L15.8525 30.894" stroke="#000062" stroke-miterlimit="10"/>
<path d="M30.5767 16.1721L32.3467 14.4021" stroke="#000062" stroke-miterlimit="10"/>
<path d="M22.7139 17.2181V23.3641C22.7139 24.0741 23.0019 24.3281 23.4739 24.8601L25.5919 27.2421C26.0199 27.7241 26.7259 27.0141 26.2999 26.5341L24.3559 24.3481C24.2939 24.2781 23.6519 23.4481 23.5759 23.4721C23.8039 23.4001 23.5879 24.0261 23.7139 23.6321C23.735 23.4654 23.735 23.2968 23.7139 23.1301V17.2181C23.7139 16.5741 22.7139 16.5741 22.7139 17.2181Z" fill="#000062"/>
<path d="M42.7826 39.1152H32.1085C31.1012 39.1152 31.1012 37.551 32.1085 37.551H42.7826C43.7899 37.551 43.7899 39.1152 42.7826 39.1152Z" fill="#000062"/>
<path d="M39.0388 41.5988L43.2246 37.779V38.8865L39.0388 35.0636C38.2943 34.3847 39.4017 33.2804 40.1463 33.9561L44.329 37.779C44.4745 37.9265 44.5562 38.1255 44.5562 38.3327C44.5562 38.54 44.4745 38.7389 44.329 38.8865L40.1432 42.7062C39.4017 43.3851 38.2912 42.2808 39.0357 41.5988H39.0388Z" fill="#000062"/>
<path d="M49.0816 38.3321C49.3467 38.3321 49.5616 38.1172 49.5616 37.8521C49.5616 37.587 49.3467 37.3721 49.0816 37.3721C48.8165 37.3721 48.6016 37.587 48.6016 37.8521C48.6016 38.1172 48.8165 38.3321 49.0816 38.3321Z" fill="#000062"/>
</svg>
