<svg width="56" height="56" viewBox="0 0 56 56" fill="none" xmlns="http://www.w3.org/2000/svg">
<path d="M26.6247 40.3141C23.1039 41.0392 19.4435 40.6179 16.1795 39.112C12.9154 37.6061 10.2193 35.0948 8.48592 31.9456C6.75254 28.7965 6.07297 25.1752 6.54674 21.6119C7.02051 18.0486 8.62272 14.7306 11.1187 12.1438C13.6148 9.557 16.8734 7.83735 20.4175 7.23666C23.9616 6.63598 27.605 7.18582 30.814 8.80567C34.023 10.4255 36.629 13.0303 38.2505 16.2384C39.8719 19.4466 40.4236 23.0897 39.8247 26.6341" fill="white"/>
<path d="M26.6247 40.3141C23.1039 41.0392 19.4435 40.6179 16.1795 39.112C12.9154 37.6061 10.2193 35.0948 8.48592 31.9456C6.75254 28.7965 6.07297 25.1752 6.54674 21.6119C7.02051 18.0486 8.62272 14.7306 11.1187 12.1438C13.6148 9.557 16.8734 7.83735 20.4175 7.23666C23.9616 6.63598 27.605 7.18582 30.814 8.80567C34.023 10.4255 36.629 13.0303 38.2505 16.2384C39.8719 19.4466 40.4236 23.0897 39.8247 26.6341" stroke="#000062" stroke-miterlimit="10"/>
<path d="M26.4025 36.6261C23.6218 37.3183 20.6914 37.0867 18.0539 35.9665C15.4164 34.8463 13.2151 32.8982 11.7824 30.4166C10.3497 27.9349 9.76352 25.0544 10.1123 22.2101C10.4612 19.3659 11.7261 16.7124 13.716 14.6505C15.7059 12.5886 18.3127 11.2302 21.1428 10.7805C23.9728 10.3308 26.8723 10.8143 29.4033 12.1579C31.9344 13.5015 33.9594 15.6322 35.1727 18.2282C36.3859 20.8242 36.7214 23.7446 36.1285 26.5481" fill="white"/>
<path d="M26.4025 36.6261C23.6218 37.3183 20.6914 37.0867 18.0539 35.9665C15.4164 34.8463 13.2151 32.8982 11.7824 30.4166C10.3497 27.9349 9.76352 25.0544 10.1123 22.2101C10.4612 19.3659 11.7261 16.7124 13.716 14.6505C15.7059 12.5886 18.3127 11.2302 21.1428 10.7805C23.9728 10.3308 26.8723 10.8143 29.4033 12.1579C31.9344 13.5015 33.9594 15.6322 35.1727 18.2282C36.3859 20.8242 36.7214 23.7446 36.1285 26.5481" stroke="#000062" stroke-miterlimit="10"/>
<path d="M48.9992 36.4025C48.6576 33.651 47.322 31.1193 45.2436 29.2841C43.1653 27.449 40.4878 26.4369 37.7152 26.4385C37.1852 26.4382 36.6559 26.4757 36.1312 26.5505C33.6179 26.9041 31.2951 28.0883 29.5327 29.9145C27.7702 31.7408 26.6693 34.1042 26.4052 36.6285C26.365 37.0212 26.345 37.4157 26.3452 37.8105C26.3484 40.6949 27.4476 43.4703 29.4202 45.5748C31.3928 47.6792 34.0914 48.9555 36.9695 49.1451C39.8477 49.3348 42.6904 48.4236 44.9221 46.5962C47.1537 44.7687 48.6076 42.1615 48.9892 39.3025" fill="white"/>
<path d="M48.9992 36.4025C48.6576 33.651 47.322 31.1193 45.2436 29.2841C43.1653 27.449 40.4878 26.4369 37.7152 26.4385C37.1852 26.4382 36.6559 26.4757 36.1312 26.5505C33.6179 26.9041 31.2951 28.0883 29.5327 29.9145C27.7702 31.7408 26.6693 34.1042 26.4052 36.6285C26.365 37.0212 26.345 37.4157 26.3452 37.8105C26.3484 40.6949 27.4476 43.4703 29.4202 45.5748C31.3928 47.6792 34.0914 48.9555 36.9695 49.1451C39.8477 49.3348 42.6904 48.4236 44.9221 46.5962C47.1537 44.7687 48.6076 42.1615 48.9892 39.3025" stroke="#000062" stroke-miterlimit="10"/>
<path d="M23.2124 10.6182V13.1222" stroke="#000062" stroke-miterlimit="10"/>
<path d="M23.2124 34.6484V37.1504" stroke="#000062" stroke-miterlimit="10"/>
<path d="M36.1285 23.5342H33.6265" stroke="#000062" stroke-miterlimit="10"/>
<path d="M12.8023 23.5342H10.2983" stroke="#000062" stroke-miterlimit="10"/>
<path d="M15.8496 16.1723L14.0796 14.4023" stroke="#000062" stroke-miterlimit="10"/>
<path d="M14.0796 32.6645L15.8496 30.8945" stroke="#000062" stroke-miterlimit="10"/>
<path d="M30.5796 16.1723L32.3496 14.4023" stroke="#000062" stroke-miterlimit="10"/>
<path d="M22.7124 17.2184V23.3644C22.7124 24.0744 23.0004 24.3284 23.4724 24.8604L25.5904 27.2424C26.0184 27.7244 26.7244 27.0144 26.2984 26.5344L24.3544 24.3484C24.2924 24.2784 23.6504 23.4484 23.5744 23.4724C23.8024 23.4004 23.5864 24.0264 23.7124 23.6324C23.7335 23.4657 23.7335 23.297 23.7124 23.1304V17.2184C23.7124 16.5744 22.7124 16.5744 22.7124 17.2184Z" fill="#000062"/>
<path d="M41.6187 41.6182L40.2533 40.2528L35.3472 35.3468L33.9819 33.9814" fill="white"/>
<path d="M41.6187 41.6182L40.2533 40.2528L35.3472 35.3468L33.9819 33.9814" stroke="#000062" stroke-miterlimit="10" stroke-linecap="round"/>
<path d="M33.978 41.6182L35.3434 40.2528L40.2494 35.3468L41.6148 33.9814" fill="white"/>
<path d="M33.978 41.6182L35.3434 40.2528L40.2494 35.3468L41.6148 33.9814" stroke="#000062" stroke-miterlimit="10" stroke-linecap="round"/>
<path d="M49.0816 38.3321C49.3467 38.3321 49.5616 38.1172 49.5616 37.8521C49.5616 37.587 49.3467 37.3721 49.0816 37.3721C48.8165 37.3721 48.6016 37.587 48.6016 37.8521C48.6016 38.1172 48.8165 38.3321 49.0816 38.3321Z" fill="#000062"/>
</svg>
