<svg width="56" height="56" viewBox="0 0 56 56" fill="none" xmlns="http://www.w3.org/2000/svg">
<path d="M39.0018 6.80005H16.7998V49.3H39.0018V6.80005Z" fill="white" stroke="#000062" stroke-miterlimit="10"/>
<path d="M27.9018 27.0681H16.7998V38.1701H27.9018V27.0681Z" fill="white" stroke="#000062" stroke-miterlimit="10"/>
<path d="M39.0019 27.0681H27.8999V38.1701H39.0019V27.0681Z" fill="white" stroke="#000062" stroke-miterlimit="10"/>
<path d="M35.8538 30.2161L31.0498 35.0201" stroke="#000062" stroke-miterlimit="10"/>
<path d="M27.9018 38.168H16.7998V49.27H27.9018V38.168Z" fill="white" stroke="#000062" stroke-miterlimit="10"/>
<path d="M39.0019 38.168H27.8999V49.27H39.0019V38.168Z" fill="white" stroke="#000062" stroke-miterlimit="10"/>
<path d="M22.3496 29.22V36.014" stroke="#000062" stroke-miterlimit="10"/>
<path d="M19.0732 32.6179H25.6252" stroke="#000062" stroke-miterlimit="10"/>
<path d="M31.1343 30.302L35.7683 34.934" stroke="#000062" stroke-miterlimit="10"/>
<path d="M33.4517 41.9001C33.8792 41.9001 34.2257 41.5535 34.2257 41.1261C34.2257 40.6986 33.8792 40.3521 33.4517 40.3521C33.0243 40.3521 32.6777 40.6986 32.6777 41.1261C32.6777 41.5535 33.0243 41.9001 33.4517 41.9001Z" fill="#000062"/>
<path d="M33.4517 47.0861C33.8792 47.0861 34.2257 46.7396 34.2257 46.3121C34.2257 45.8846 33.8792 45.5381 33.4517 45.5381C33.0243 45.5381 32.6777 45.8846 32.6777 46.3121C32.6777 46.7396 33.0243 47.0861 33.4517 47.0861Z" fill="#000062"/>
<path d="M19.0732 43.718H25.6252" stroke="#000062" stroke-miterlimit="10"/>
<path d="M26.4518 11.7H20.3038H16.7998V27.068H27.9018H39.0018V11.7H29.3518" fill="white"/>
<path d="M26.4518 11.7H20.3038H16.7998V27.068H27.9018H39.0018V11.7H29.3518" stroke="#000062" stroke-miterlimit="10"/>
<path d="M19.1351 9.54617C19.3627 9.54617 19.5471 9.36171 19.5471 9.13417C19.5471 8.90663 19.3627 8.72217 19.1351 8.72217C18.9076 8.72217 18.7231 8.90663 18.7231 9.13417C18.7231 9.36171 18.9076 9.54617 19.1351 9.54617Z" fill="#000062"/>
<path d="M21.9696 9.54617C22.1972 9.54617 22.3816 9.36171 22.3816 9.13417C22.3816 8.90663 22.1972 8.72217 21.9696 8.72217C21.7421 8.72217 21.5576 8.90663 21.5576 9.13417C21.5576 9.36171 21.7421 9.54617 21.9696 9.54617Z" fill="#000062"/>
<path d="M27.4298 21.6261C27.9498 21.6261 28.5238 21.6921 29.0298 21.5521C29.4472 21.4372 29.8164 21.1905 30.0824 20.8489C30.3483 20.5072 30.4969 20.0888 30.5059 19.6559C30.5149 19.2231 30.3838 18.7988 30.1323 18.4464C29.8807 18.094 29.5221 17.8323 29.1098 17.7001C28.5838 17.5341 27.9758 17.6061 27.4318 17.6061C26.7878 17.6061 26.7878 18.6061 27.4318 18.6061C28.2158 18.6061 29.5178 18.4541 29.5098 19.6181C29.5018 20.7821 28.2298 20.6261 27.4298 20.6261C26.7858 20.6261 26.7858 21.6261 27.4298 21.6261Z" fill="#000062"/>
<path d="M27.4303 24.6501C27.9503 24.6501 28.5243 24.7161 29.0303 24.5761C29.4484 24.4613 29.8181 24.2144 30.0844 23.8722C30.3506 23.53 30.4991 23.1109 30.5077 22.6775C30.5162 22.244 30.3844 21.8194 30.1318 21.467C29.8793 21.1146 29.5195 20.8533 29.1063 20.7221C28.5803 20.5561 27.9723 20.6281 27.4283 20.6281C26.7843 20.6281 26.7843 21.6281 27.4283 21.6281C28.2123 21.6281 29.5143 21.4761 29.5063 22.6401C29.4983 23.8041 28.2303 23.6501 27.4303 23.6501C26.7863 23.6501 26.7863 24.6501 27.4303 24.6501Z" fill="#000062"/>
<path d="M35.7809 21.1261C35.7529 21.9801 35.4249 23.6501 34.2769 23.6501C33.1289 23.6501 32.7729 21.9821 32.7729 21.1261C32.7729 20.2701 33.1049 18.7821 34.1429 18.6241C35.3729 18.4381 35.7549 20.2601 35.7829 21.1261C35.8049 21.7681 36.8049 21.7701 36.7829 21.1261C36.7349 19.6881 36.0449 17.6021 34.2789 17.6021C32.5429 17.6021 31.7769 19.6861 31.7749 21.1261C31.7729 22.5661 32.5469 24.6501 34.2789 24.6501C36.0469 24.6501 36.7349 22.5641 36.7829 21.1261C36.8029 20.4821 35.8029 20.4841 35.7809 21.1261Z" fill="#000062"/>
<path d="M22.9028 24.1501H25.6248" stroke="#000062" stroke-miterlimit="10"/>
<path d="M20.3027 11.7V16" stroke="#000062" stroke-miterlimit="10"/>
<path d="M20.3027 17.4001V19.3841" stroke="#000062" stroke-miterlimit="10"/>
<path d="M27.8999 12.18C28.165 12.18 28.3799 11.9651 28.3799 11.7C28.3799 11.4349 28.165 11.22 27.8999 11.22C27.6348 11.22 27.4199 11.4349 27.4199 11.7C27.4199 11.9651 27.6348 12.18 27.8999 12.18Z" fill="#000062"/>
</svg>
