<svg width="56" height="56" viewBox="0 0 56 56" fill="none" xmlns="http://www.w3.org/2000/svg">
<path d="M37.5202 14.198H13.2642C12.5738 14.198 12.0142 14.7576 12.0142 15.448V46.006C12.0142 46.6964 12.5738 47.256 13.2642 47.256H37.5202C38.2105 47.256 38.7702 46.6964 38.7702 46.006V15.448C38.7702 14.7576 38.2105 14.198 37.5202 14.198Z" stroke="#212683" stroke-miterlimit="10"/>
<path d="M42.974 35.8159V40.9999C42.974 41.164 42.9416 41.3264 42.8788 41.478C42.8159 41.6295 42.7238 41.7672 42.6077 41.8831C42.4916 41.999 42.3538 42.0909 42.2022 42.1535C42.0505 42.2161 41.888 42.2482 41.724 42.2479H38.772" stroke="#212683" stroke-miterlimit="10"/>
<path d="M42.9743 29.416V10.44C42.9722 10.11 42.8395 9.79432 42.6053 9.56195C42.371 9.32957 42.0543 9.19942 41.7243 9.19995H17.4663C17.3023 9.19969 17.1398 9.23178 16.9881 9.29438C16.8365 9.35698 16.6986 9.44886 16.5825 9.56478C16.4664 9.68069 16.3743 9.81836 16.3115 9.9699C16.2487 10.1214 16.2163 10.2839 16.2163 10.448V14.2" stroke="#212683" stroke-miterlimit="10"/>
<path d="M18.4963 23.3479H19.8483C20.2981 23.3479 20.7295 23.5266 21.0475 23.8446C21.3656 24.1627 21.5443 24.5941 21.5443 25.0439V28.0939H16.8003V25.0439C16.8003 24.5941 16.979 24.1627 17.297 23.8446C17.6151 23.5266 18.0465 23.3479 18.4963 23.3479Z" stroke="#212683" stroke-miterlimit="10"/>
<path d="M19.1724 23.3479C21.0369 23.3479 22.5484 21.8365 22.5484 19.9719C22.5484 18.1074 21.0369 16.5959 19.1724 16.5959C17.3079 16.5959 15.7964 18.1074 15.7964 19.9719C15.7964 21.8365 17.3079 23.3479 19.1724 23.3479Z" stroke="#212683" stroke-miterlimit="10"/>
<path d="M24.1123 26.5979H32.2363" stroke="#212683" stroke-miterlimit="10"/>
<path d="M24.1123 23.2358H30.4863" stroke="#212683" stroke-miterlimit="10"/>
<path d="M31.1401 23.2358H35.3201" stroke="#212683" stroke-miterlimit="10"/>
<path d="M32.9482 26.5979H35.3202" stroke="#212683" stroke-miterlimit="10"/>
<path d="M24.2563 32.762H34.9343" stroke="#212683" stroke-miterlimit="10"/>
<path d="M15.8521 36.124H34.9341" stroke="#212683" stroke-miterlimit="10"/>
<path d="M15.8521 39.4858H34.9341" stroke="#212683" stroke-miterlimit="10"/>
<path d="M15.8521 42.8479H34.9341" stroke="#212683" stroke-miterlimit="10"/>
<path d="M15.9761 32.762H22.6681" stroke="#212683" stroke-miterlimit="10"/>
<path d="M16.2163 11.594H28.1743" stroke="#212683" stroke-miterlimit="10"/>
<path d="M29.062 11.594H30.868" stroke="#212683" stroke-miterlimit="10"/>
<path d="M19.1721 18.5359C18.7934 18.5359 18.4302 18.6863 18.1624 18.9541C17.8946 19.2219 17.7441 19.5852 17.7441 19.9639V20.1639" stroke="#212683" stroke-miterlimit="10"/>
<path d="M42.9741 33.3839C43.3176 33.3839 43.5961 33.1054 43.5961 32.7619C43.5961 32.4184 43.3176 32.1399 42.9741 32.1399C42.6305 32.1399 42.3521 32.4184 42.3521 32.7619C42.3521 33.1054 42.6305 33.3839 42.9741 33.3839Z" fill="#212683"/>
</svg>
