<svg width="56" height="56" viewBox="0 0 56 56" fill="none" xmlns="http://www.w3.org/2000/svg">
<path d="M36.6021 25.5461H8.1481C7.29316 25.5461 6.6001 26.2392 6.6001 27.0941V42.2841C6.6001 43.1391 7.29316 43.8321 8.1481 43.8321H36.6021C37.457 43.8321 38.1501 43.1391 38.1501 42.2841V27.0941C38.1501 26.2392 37.457 25.5461 36.6021 25.5461Z" fill="white"/>
<path d="M29.862 41.2621C31.1665 41.2621 32.224 40.2046 32.224 38.9001C32.224 37.5956 31.1665 36.5381 29.862 36.5381C28.5575 36.5381 27.5 37.5956 27.5 38.9001C27.5 40.2046 28.5575 41.2621 29.862 41.2621Z" fill="white"/>
<path d="M32.2248 41.2621C33.5293 41.2621 34.5868 40.2046 34.5868 38.9001C34.5868 37.5956 33.5293 36.5381 32.2248 36.5381C30.9203 36.5381 29.8628 37.5956 29.8628 38.9001C29.8628 40.2046 30.9203 41.2621 32.2248 41.2621Z" fill="white"/>
<path d="M17.9121 25.5461H8.1821C7.76253 25.5461 7.36014 25.7128 7.06345 26.0095C6.76677 26.3062 6.6001 26.7086 6.6001 27.1281V42.2521C6.6001 42.4598 6.64103 42.6654 6.72056 42.8572C6.80009 43.0491 6.91665 43.2233 7.06358 43.3701C7.2105 43.5168 7.38492 43.6332 7.57684 43.7124C7.76877 43.7917 7.97444 43.8324 8.1821 43.8321H11.0941" stroke="#000062" stroke-miterlimit="10"/>
<path d="M13.9937 43.8382H36.5677C36.7753 43.8385 36.981 43.7978 37.1729 43.7185C37.3648 43.6392 37.5392 43.5229 37.6862 43.3762C37.8331 43.2294 37.9497 43.0552 38.0292 42.8633C38.1087 42.6715 38.1497 42.4659 38.1497 42.2582V29.8862" stroke="#000062" stroke-miterlimit="10"/>
<path d="M38.1501 29.8861V31.8481H6.6001V28.1421H17.9121" stroke="#000062" stroke-miterlimit="10"/>
<path d="M29.8322 41.2621C31.1367 41.2621 32.1942 40.2046 32.1942 38.9001C32.1942 37.5956 31.1367 36.5381 29.8322 36.5381C28.5277 36.5381 27.4702 37.5956 27.4702 38.9001C27.4702 40.2046 28.5277 41.2621 29.8322 41.2621Z" stroke="#000062" stroke-miterlimit="10"/>
<path d="M32.195 41.2621C33.4995 41.2621 34.557 40.2046 34.557 38.9001C34.557 37.5956 33.4995 36.5381 32.195 36.5381C30.8905 36.5381 29.833 37.5956 29.833 38.9001C29.833 40.2046 30.8905 41.2621 32.195 41.2621Z" stroke="#000062" stroke-miterlimit="10"/>
<path d="M8.37207 36.5381H14.6261" stroke="#000062" stroke-miterlimit="10"/>
<path d="M8.37207 39.6982H18.2541" stroke="#000062" stroke-miterlimit="10"/>
<path d="M47.9146 11.6001H19.4606C18.6057 11.6001 17.9126 12.2932 17.9126 13.1481V28.3381C17.9126 29.193 18.6057 29.8861 19.4606 29.8861H47.9146C48.7695 29.8861 49.4626 29.193 49.4626 28.3381V13.1481C49.4626 12.2932 48.7695 11.6001 47.9146 11.6001Z" fill="white" stroke="#000062" stroke-miterlimit="10"/>
<path d="M20.561 24.02H26.815" stroke="#000062" stroke-miterlimit="10"/>
<path d="M20.561 27.1802H30.443" stroke="#000062" stroke-miterlimit="10"/>
<path d="M20.561 20.7441H25.271" stroke="#000062" stroke-miterlimit="10"/>
<path d="M27.7407 20.7441H32.4507" stroke="#000062" stroke-miterlimit="10"/>
<path d="M34.9204 20.7441H39.6324" stroke="#000062" stroke-miterlimit="10"/>
<path d="M42.1016 20.7441H46.8116" stroke="#000062" stroke-miterlimit="10"/>
<path d="M26.1273 13.6721H21.5573C21.1055 13.6721 20.7393 14.0384 20.7393 14.4901V17.3841C20.7393 17.8359 21.1055 18.2021 21.5573 18.2021H26.1273C26.579 18.2021 26.9453 17.8359 26.9453 17.3841V14.4901C26.9453 14.0384 26.579 13.6721 26.1273 13.6721Z" fill="white" stroke="#000062" stroke-miterlimit="10"/>
<path d="M23.8423 13.6721V18.2021" stroke="#000062" stroke-miterlimit="10"/>
<path d="M26.9453 15.938H20.7393" stroke="#000062" stroke-miterlimit="10"/>
<path d="M43.0828 17.8821C44.9882 17.8821 46.5328 17.0118 46.5328 15.9381C46.5328 14.8645 44.9882 13.9941 43.0828 13.9941C41.1774 13.9941 39.6328 14.8645 39.6328 15.9381C39.6328 17.0118 41.1774 17.8821 43.0828 17.8821Z" fill="white" stroke="#000062" stroke-miterlimit="10"/>
<path d="M12.5772 44.312C12.8423 44.312 13.0572 44.0971 13.0572 43.832C13.0572 43.567 12.8423 43.3521 12.5772 43.3521C12.3121 43.3521 12.0972 43.567 12.0972 43.832C12.0972 44.0971 12.3121 44.312 12.5772 44.312Z" fill="#000062"/>
<path d="M42.6611 25.8982V29.8882" stroke="#000062" stroke-miterlimit="10"/>
<path d="M42.6611 23.48V24.98" stroke="#000062" stroke-miterlimit="10"/>
</svg>
