<svg width="56" height="56" viewBox="0 0 56 56" fill="none" xmlns="http://www.w3.org/2000/svg">
<path d="M39.721 29.6287L35.475 26.6527L31.443 24.1247L28.391 16.7887C28.347 16.7207 28.301 16.6541 28.253 16.5887C27.129 15.0327 25.011 14.5747 23.285 15.4147C21.085 16.4847 16.917 18.4667 16.167 18.4667H13.147V31.9387L14.231 31.9667C15.4416 31.9983 16.6277 32.3149 17.693 32.8907L18.505 33.3307L18.647 33.4067L29.267 38.5067L30.467 39.3307C30.789 39.5496 31.1773 39.6494 31.565 39.6129C31.9526 39.5764 32.3155 39.4059 32.591 39.1307C32.6462 39.0749 32.6977 39.0154 32.745 38.9527C32.9367 38.6993 33.052 38.3963 33.0771 38.0795C33.1023 37.7627 33.0363 37.4453 32.887 37.1647L33.071 37.0647L33.567 37.4027C33.9094 37.6247 34.3243 37.7059 34.7252 37.6295C35.1261 37.553 35.482 37.3248 35.7187 36.9924C35.9554 36.66 36.0548 36.249 35.9959 35.8452C35.9371 35.4414 35.7247 35.0758 35.403 34.8247L35.283 34.8587L35.331 34.7747L35.403 34.8247L36.891 35.8827C37.0759 36.013 37.2846 36.1056 37.5053 36.1552C37.726 36.2048 37.9543 36.2104 38.1771 36.1718C38.4 36.1332 38.6131 36.051 38.8042 35.9301C38.9953 35.8091 39.1607 35.6516 39.291 35.4667C39.4212 35.2818 39.5138 35.0731 39.5634 34.8524C39.613 34.6317 39.6187 34.4035 39.58 34.1806C39.5414 33.9577 39.4592 33.7447 39.3383 33.5535C39.2173 33.3624 39.0599 33.197 38.875 33.0667L35.973 31.0487V31.0387L37.835 32.3287C38.1641 32.5575 38.5655 32.6582 38.9636 32.6118C39.3618 32.5654 39.7293 32.3751 39.997 32.0767C40.0339 32.036 40.0687 31.9933 40.101 31.9487C40.2305 31.7722 40.3235 31.5717 40.3745 31.3588C40.4256 31.1459 40.4336 30.925 40.3983 30.7089C40.3629 30.4929 40.2847 30.2861 40.1684 30.1006C40.0522 29.9151 39.9 29.7547 39.721 29.6287Z" fill="white"/>
<path d="M43.48 18.4389V32.2209C42.3209 32.2234 41.1778 31.9492 40.146 31.4209C40.2147 31.105 40.1885 30.7758 40.0708 30.4748C39.953 30.1738 39.7489 29.9142 39.484 29.7289L36.386 27.5549L35.862 26.8389L38.166 26.8169H35.236C34.1644 26.8159 33.1281 26.433 32.3133 25.737C31.4985 25.0409 30.9584 24.0772 30.79 23.0189L30.734 22.6729L30.582 21.7269C30.5583 21.5751 30.4812 21.4368 30.3646 21.3367C30.2481 21.2366 30.0997 21.1814 29.946 21.1809C29.8452 21.1809 29.7458 21.2049 29.656 21.2509L23.856 24.1449L23.302 24.4209C23.0759 24.5349 22.8173 24.5672 22.5701 24.5121C22.3229 24.4571 22.1024 24.3181 21.946 24.1189L21.922 24.0889C21.7212 23.8333 21.5739 23.5399 21.4889 23.2261C21.404 22.9124 21.3831 22.5848 21.4275 22.2628C21.4719 21.9408 21.5808 21.6311 21.7475 21.352C21.9143 21.073 22.1355 20.8305 22.398 20.6389C22.4391 20.6066 22.4818 20.5766 22.526 20.5489L28.154 16.9489L29.422 16.1349C30.4578 15.4718 31.6622 15.1198 32.892 15.1209C34.1475 15.1219 35.3843 15.4247 36.4981 16.0039C37.612 16.5831 38.5702 17.4217 39.292 18.4489L43.48 18.4389Z" fill="white"/>
<path d="M28.1471 16.8869C28.1031 16.8189 28.0571 16.7522 28.0091 16.6869C26.8851 15.1309 24.7671 14.6729 23.0411 15.5129C20.8411 16.5829 16.6731 18.5649 15.9231 18.5649H12.9111" stroke="#000062" stroke-miterlimit="10"/>
<path d="M12.9111 32.0388L13.9951 32.0668C15.2057 32.0984 16.3918 32.4149 17.4571 32.9908L18.2691 33.4308L18.4111 33.5068" stroke="#000062" stroke-miterlimit="10"/>
<path d="M25.1846 33.6768H25.1866" stroke="#000062" stroke-miterlimit="10"/>
<path d="M35.1751 34.9248C35.4853 35.179 35.6875 35.5413 35.741 35.9388C35.7945 36.3362 35.6953 36.7392 35.4633 37.0663C35.2314 37.3934 34.884 37.6204 34.4912 37.7014C34.0984 37.7824 33.6896 37.7115 33.3471 37.5028L31.2051 36.0388" stroke="#000062" stroke-miterlimit="10"/>
<path d="M35.2367 26.7487L35.3187 26.8067L36.3867 27.5547L39.4847 29.7247C39.6627 29.8506 39.8141 30.0107 39.9299 30.1955C40.0457 30.3804 40.1237 30.5863 40.1595 30.8015C40.1952 31.0167 40.1879 31.2369 40.1379 31.4492C40.088 31.6616 39.9965 31.8619 39.8687 32.0387C39.8362 32.0831 39.8015 32.1258 39.7647 32.1667C39.6096 32.338 39.4204 32.4751 39.2093 32.5691C38.9982 32.6631 38.7698 32.712 38.5387 32.7127C38.2039 32.7128 37.8772 32.6102 37.6027 32.4187L29.2447 26.6187L38.6447 33.1567C38.8296 33.2869 38.987 33.4523 39.108 33.6435C39.2289 33.8346 39.3111 34.0476 39.3497 34.2705C39.3883 34.4934 39.3827 34.7216 39.3331 34.9423C39.2835 35.163 39.1909 35.3718 39.0607 35.5567C38.9304 35.7416 38.765 35.899 38.5739 36.02C38.3827 36.1409 38.1697 36.2231 37.9468 36.2617C37.724 36.3003 37.4957 36.2947 37.275 36.2451C37.0543 36.1955 36.8456 36.1029 36.6607 35.9727L35.1727 34.9147L34.3627 34.3387L27.3267 29.3247" stroke="#000062" stroke-miterlimit="10"/>
<path d="M27.9526 39.9208L30.776 36.4786C31.2762 35.8688 31.1873 34.969 30.5775 34.4689L30.4399 34.356C29.8301 33.8558 28.9304 33.9447 28.4302 34.5545L25.6068 37.9967C25.1066 38.6064 25.1955 39.5062 25.8053 40.0064L25.9429 40.1193C26.5527 40.6194 27.4524 40.5306 27.9526 39.9208Z" fill="white" stroke="#000062" stroke-miterlimit="10"/>
<path d="M25.322 38.2942L28.5729 34.3309C29.0731 33.7211 28.9842 32.8213 28.3744 32.3212L28.2368 32.2083C27.627 31.7081 26.7272 31.797 26.2271 32.4068L22.9762 36.3701C22.476 36.9798 22.5649 37.8796 23.1747 38.3798L23.3123 38.4927C23.9221 38.9928 24.8219 38.904 25.322 38.2942Z" fill="white" stroke="#000062" stroke-miterlimit="10"/>
<path d="M23.3821 35.8722L25.5485 33.231C26.1131 32.5426 26.0128 31.5269 25.3244 30.9623L25.1683 30.8342C24.4799 30.2696 23.4642 30.3699 22.8996 31.0582L20.7332 33.6994C20.1686 34.3878 20.2689 35.4035 20.9572 35.9681L21.1134 36.0962C21.8018 36.6608 22.8175 36.5605 23.3821 35.8722Z" fill="white" stroke="#000062" stroke-miterlimit="10"/>
<path d="M20.6982 33.6977L22.7023 31.2545C23.2024 30.6447 23.1136 29.7449 22.5038 29.2448L22.3662 29.1319C21.7564 28.6317 20.8566 28.7206 20.3565 29.3304L18.3524 31.7736C17.8523 32.3834 17.9411 33.2831 18.5509 33.7833L18.6885 33.8962C19.2983 34.3964 20.1981 34.3075 20.6982 33.6977Z" fill="white" stroke="#000062" stroke-miterlimit="10"/>
<path d="M39.7656 32.1688H43.4816V18.3868H39.2996C38.5779 17.3595 37.6196 16.5209 36.5058 15.9417C35.3919 15.3625 34.155 15.0597 32.8996 15.0588C31.6696 15.059 30.4654 15.4116 29.4296 16.0748L28.1476 16.8868L22.5196 20.4868C22.2344 20.669 21.9905 20.9089 21.8036 21.191C21.6167 21.4731 21.491 21.7912 21.4344 22.1248C21.3779 22.4585 21.3919 22.8003 21.4754 23.1282C21.559 23.4561 21.7103 23.7629 21.9196 24.0288L21.9436 24.0588C22.1 24.2573 22.3202 24.3957 22.5668 24.4508C22.8135 24.5058 23.0716 24.474 23.2976 24.3608L29.6456 21.1888C29.7364 21.1432 29.8367 21.1197 29.9383 21.1201C30.0399 21.1205 30.14 21.1449 30.2304 21.1913C30.3208 21.2377 30.399 21.3047 30.4586 21.387C30.5183 21.4693 30.5576 21.5645 30.5736 21.6648L30.7256 22.6108L30.7816 22.9568C30.9517 24.0135 31.4926 24.9751 32.3073 25.6692C33.122 26.3634 34.1573 26.7447 35.2276 26.7448H38.1576" stroke="#000062" stroke-miterlimit="10"/>
<path d="M31.0241 35.9248L31.2021 36.0428L31.2961 36.1068L32.1101 36.6548C32.1566 36.6856 32.2014 36.719 32.2441 36.7548C32.5759 37.0284 32.7892 37.4195 32.8395 37.8466C32.8898 38.2736 32.7732 38.7036 32.5141 39.0468C32.4668 39.1095 32.4154 39.169 32.3601 39.2248C32.0846 39.5 31.7218 39.6705 31.3341 39.707C30.9464 39.7435 30.5582 39.6437 30.2361 39.4248L29.0361 38.6008" stroke="#000062" stroke-miterlimit="10"/>
<path d="M12.9103 33.6389V16.8749C12.9103 16.6138 12.8505 16.3562 12.7356 16.1218C12.6207 15.8873 12.4538 15.6822 12.2474 15.5222C12.0411 15.3622 11.8009 15.2515 11.5452 15.1986C11.2896 15.1457 11.0252 15.152 10.7723 15.2169L7.47829 16.0609C7.28446 16.111 7.11272 16.224 6.99001 16.3821C6.86731 16.5403 6.80058 16.7347 6.80029 16.9349V33.5769C6.80058 33.7771 6.86731 33.9716 6.99001 34.1297C7.11272 34.2879 7.28446 34.4009 7.47829 34.4509L10.7723 35.2949C11.025 35.3599 11.2892 35.3662 11.5448 35.3134C11.8003 35.2606 12.0404 35.15 12.2466 34.9903C12.4529 34.8305 12.62 34.6257 12.735 34.3915C12.85 34.1573 12.91 33.8999 12.9103 33.6389Z" fill="white" stroke="#000062" stroke-miterlimit="10"/>
<path d="M43.4785 16.8749V33.6389C43.4785 33.9 43.5383 34.1577 43.6532 34.3921C43.7681 34.6266 43.9351 34.8316 44.1414 34.9917C44.3477 35.1517 44.5879 35.2623 44.8436 35.3153C45.0992 35.3682 45.3636 35.3619 45.6165 35.2969L48.9105 34.4529C49.1044 34.4029 49.2761 34.2899 49.3988 34.1317C49.5215 33.9736 49.5882 33.7791 49.5885 33.5789V16.9349C49.5882 16.7347 49.5215 16.5403 49.3988 16.3821C49.2761 16.224 49.1044 16.111 48.9105 16.0609L45.6165 15.2169C45.3636 15.152 45.0992 15.1457 44.8436 15.1986C44.5879 15.2515 44.3477 15.3622 44.1414 15.5222C43.9351 15.6822 43.7681 15.8873 43.6532 16.1218C43.5383 16.3562 43.4785 16.6138 43.4785 16.8749Z" fill="white" stroke="#000062" stroke-miterlimit="10"/>
<path d="M9.85645 34.9248V26.7988" stroke="#000062" stroke-miterlimit="10"/>
<path d="M9.85645 23.7147V15.4507" stroke="#000062" stroke-miterlimit="10"/>
<path d="M46.5347 15.4507V34.9247" stroke="#000062" stroke-miterlimit="10"/>
<path d="M9.85736 25.8168C10.1666 25.8168 10.4174 25.5661 10.4174 25.2568C10.4174 24.9475 10.1666 24.6968 9.85736 24.6968C9.54808 24.6968 9.29736 24.9475 9.29736 25.2568C9.29736 25.5661 9.54808 25.8168 9.85736 25.8168Z" fill="#000062"/>
<path d="M40.6567 18.387V21.873" stroke="#000062" stroke-miterlimit="10"/>
<path d="M40.6567 23.2048V24.9388" stroke="#000062" stroke-miterlimit="10"/>
</svg>
