<svg width="56" height="56" viewBox="0 0 56 56" fill="none" xmlns="http://www.w3.org/2000/svg">
<path d="M13.6124 7.85896C13.6124 7.71044 13.6714 7.568 13.7764 7.46298C13.8814 7.35796 14.0238 7.29896 14.1724 7.29896H14.6284V6.84296C14.6284 6.69444 14.6874 6.552 14.7924 6.44698C14.8974 6.34196 15.0398 6.28296 15.1884 6.28296C15.3369 6.28296 15.4793 6.34196 15.5843 6.44698C15.6894 6.552 15.7484 6.69444 15.7484 6.84296V7.29896H16.2044C16.3529 7.29896 16.4953 7.35796 16.6003 7.46298C16.7054 7.568 16.7644 7.71044 16.7644 7.85896C16.7644 8.00748 16.7054 8.14992 16.6003 8.25494C16.4953 8.35996 16.3529 8.41896 16.2044 8.41896H15.7464V8.87496C15.7464 9.02348 15.6874 9.16592 15.5823 9.27094C15.4773 9.37596 15.3349 9.43496 15.1864 9.43496C15.0378 9.43496 14.8954 9.37596 14.7904 9.27094C14.6854 9.16592 14.6264 9.02348 14.6264 8.87496V8.42696H14.1724C14.0981 8.42697 14.0247 8.41222 13.9562 8.38358C13.8877 8.35494 13.8256 8.31297 13.7735 8.26012C13.7214 8.20727 13.6803 8.14459 13.6527 8.07572C13.625 8.00685 13.6113 7.93317 13.6124 7.85896Z" fill="white"/>
<path d="M46.2801 6.28296V9.42696C46.1315 9.42696 45.9891 9.36796 45.8841 9.26294C45.7791 9.15792 45.7201 9.01548 45.7201 8.86696V8.42696H45.2661C45.1175 8.42696 44.9751 8.36796 44.8701 8.26294C44.7651 8.15792 44.7061 8.01548 44.7061 7.86696C44.7061 7.71844 44.7651 7.576 44.8701 7.47098C44.9751 7.36596 45.1175 7.30696 45.2661 7.30696H45.7201V6.84296C45.7206 6.6946 45.7797 6.55247 45.8847 6.44756C45.9896 6.34265 46.1317 6.28349 46.2801 6.28296Z" fill="white"/>
<path d="M28.2447 5.375L44.7047 23.047V42.395H13.2827V21.437L28.2447 5.375Z" fill="white"/>
<path d="M48.966 25.793H44.832L33.282 13.827L28.994 9.383L22.28 16.339L13.282 25.663L13.156 25.793H9.02002L13.282 21.437L28.994 5.375L46.28 23.047L48.966 25.793Z" fill="white" stroke="#000062" stroke-miterlimit="10"/>
<path d="M33.0199 29.1011H39.2479C39.6558 29.1011 40.047 29.2631 40.3354 29.5515C40.6238 29.84 40.7859 30.2312 40.7859 30.6391V42.3971H31.4839V30.6391C31.4839 30.2315 31.6457 29.8406 31.9336 29.5523C32.2216 29.2639 32.6123 29.1016 33.0199 29.1011Z" fill="white" stroke="#000062" stroke-miterlimit="10"/>
<path d="M33.8337 36.4572C34.1374 36.4572 34.3837 36.2109 34.3837 35.9072C34.3837 35.6034 34.1374 35.3572 33.8337 35.3572C33.5299 35.3572 33.2837 35.6034 33.2837 35.9072C33.2837 36.2109 33.5299 36.4572 33.8337 36.4572Z" fill="#000062"/>
<path d="M44.7067 25.795V42.395H13.2827V25.137" stroke="#000062" stroke-miterlimit="10"/>
<path d="M20.4933 45.797H47.9573V45.161C47.9573 44.4278 47.6662 43.7245 47.1479 43.2059C46.6296 42.6872 45.9265 42.3955 45.1933 42.395H12.7933C12.0601 42.3955 11.357 42.6872 10.8387 43.2059C10.3204 43.7245 10.0293 44.4278 10.0293 45.161V45.797H16.7653" fill="white"/>
<path d="M20.4933 45.797H47.9573V45.161C47.9573 44.4278 47.6662 43.7245 47.1479 43.2059C46.6296 42.6872 45.9265 42.3955 45.1933 42.395H12.7933C12.0601 42.3955 11.357 42.6872 10.8387 43.2059C10.3204 43.7245 10.0293 44.4278 10.0293 45.161V45.797H16.7653" stroke="#000062" stroke-miterlimit="10"/>
<path d="M24.3858 30.5129L27.406 30.5129C27.4683 30.5129 27.528 30.5375 27.5722 30.5814C27.6164 30.6252 27.6415 30.6847 27.642 30.7469V37.1669C27.642 37.2295 27.6172 37.2896 27.5729 37.3338C27.5286 37.3781 27.4686 37.4029 27.406 37.4029H17.006C16.9434 37.4029 16.8834 37.3781 16.8391 37.3338C16.7949 37.2896 16.77 37.2295 16.77 37.1669V30.7469C16.7705 30.6847 16.7956 30.6252 16.8398 30.5814C16.884 30.5375 16.9438 30.5129 17.006 30.5129H19.386" fill="white"/>
<path d="M24.3858 30.5129L27.406 30.5129C27.4683 30.5129 27.528 30.5375 27.5722 30.5814C27.6164 30.6252 27.6415 30.6847 27.642 30.7469V37.1669C27.642 37.2295 27.6172 37.2896 27.5729 37.3338C27.5286 37.3781 27.4686 37.4029 27.406 37.4029H17.006C16.9434 37.4029 16.8834 37.3781 16.8391 37.3338C16.7949 37.2896 16.77 37.2295 16.77 37.1669V30.7469C16.7705 30.6847 16.7956 30.6252 16.8398 30.5814C16.884 30.5375 16.9438 30.5129 17.006 30.5129H19.386" stroke="#000062" stroke-miterlimit="10"/>
<path d="M22.2793 23.6169V16.3389" stroke="#000062" stroke-miterlimit="10"/>
<path d="M18.7675 46.3571C19.0768 46.3571 19.3275 46.1063 19.3275 45.7971C19.3275 45.4878 19.0768 45.2371 18.7675 45.2371C18.4582 45.2371 18.2075 45.4878 18.2075 45.7971C18.2075 46.1063 18.4582 46.3571 18.7675 46.3571Z" fill="#000062"/>
<path d="M33.2842 13.8269V22.0409" stroke="#000062" stroke-miterlimit="10"/>
<path d="M33.2842 23.6189V25.1349" stroke="#000062" stroke-miterlimit="10"/>
<path d="M18.5488 50.0176C21.0565 49.6445 23.3302 48.3367 24.9138 46.3568C26.4973 44.3769 27.2734 41.8713 27.0864 39.343C26.8993 36.8146 25.7629 34.4505 23.9052 32.7252C22.0476 30.9999 19.6061 30.041 17.0708 30.041C14.5355 30.041 12.094 30.9999 10.2364 32.7252C8.37869 34.4505 7.24229 36.8146 7.05522 39.343C6.86816 41.8713 7.64428 44.3769 9.22782 46.3568C10.8114 48.3367 13.0851 49.6445 15.5928 50.0176" fill="white"/>
<path d="M18.5488 50.0176C21.0565 49.6445 23.3302 48.3367 24.9138 46.3568C26.4973 44.3769 27.2734 41.8713 27.0864 39.343C26.8993 36.8146 25.7629 34.4505 23.9052 32.7252C22.0476 30.9999 19.6061 30.041 17.0708 30.041C14.5355 30.041 12.094 30.9999 10.2364 32.7252C8.37869 34.4505 7.24229 36.8146 7.05522 39.343C6.86816 41.8713 7.64428 44.3769 9.22782 46.3568C10.8114 48.3367 13.0851 49.6445 15.5928 50.0176" stroke="#000062" stroke-miterlimit="10"/>
<path d="M17.3508 50.344C17.5065 50.1883 17.5065 49.9358 17.3508 49.78C17.1951 49.6243 16.9426 49.6243 16.7868 49.78C16.6311 49.9358 16.6311 50.1883 16.7868 50.344C16.9426 50.4997 17.1951 50.4997 17.3508 50.344Z" fill="#000062"/>
<path d="M17.073 48.0687C21.4826 48.0687 25.0572 44.4941 25.0572 40.0845C25.0572 35.675 21.4826 32.1003 17.073 32.1003C12.6635 32.1003 9.08887 35.675 9.08887 40.0845C9.08887 44.4941 12.6635 48.0687 17.073 48.0687Z" stroke="#000062" stroke-miterlimit="10"/>
<rect x="11.8403" y="38.835" width="10.467" height="2.5" rx="1" stroke="#000062" stroke-miterlimit="10"/>
</svg>
