<svg width="56" height="56" viewBox="0 0 56 56" fill="none" xmlns="http://www.w3.org/2000/svg">
<path d="M12.6207 9.99299C12.6207 9.84447 12.6797 9.70203 12.7847 9.59701C12.8897 9.49199 13.0321 9.43299 13.1807 9.43299H13.6367V8.97699C13.6367 8.82847 13.6957 8.68603 13.8007 8.58101C13.9057 8.47599 14.0481 8.41699 14.1967 8.41699C14.3452 8.41699 14.4876 8.47599 14.5926 8.58101C14.6977 8.68603 14.7567 8.82847 14.7567 8.97699V9.43299H15.2127C15.3612 9.43299 15.5036 9.49199 15.6086 9.59701C15.7137 9.70203 15.7727 9.84447 15.7727 9.99299C15.7727 10.1415 15.7137 10.284 15.6086 10.389C15.5036 10.494 15.3612 10.553 15.2127 10.553H14.7547V11.009C14.7547 11.1575 14.6957 11.3 14.5906 11.405C14.4856 11.51 14.3432 11.569 14.1947 11.569C14.0461 11.569 13.9037 11.51 13.7987 11.405C13.6937 11.3 13.6347 11.1575 13.6347 11.009V10.561H13.1807C13.1064 10.561 13.033 10.5463 12.9645 10.5176C12.896 10.489 12.8339 10.447 12.7818 10.3942C12.7297 10.3413 12.6886 10.2786 12.661 10.2098C12.6333 10.1409 12.6196 10.0672 12.6207 9.99299Z" fill="white"/>
<path d="M45.2884 8.41699V11.561C45.1398 11.561 44.9974 11.502 44.8924 11.397C44.7874 11.292 44.7284 11.1495 44.7284 11.001V10.561H44.2744C44.1258 10.561 43.9834 10.502 43.8784 10.397C43.7734 10.292 43.7144 10.1495 43.7144 10.001C43.7144 9.85247 43.7734 9.71003 43.8784 9.60501C43.9834 9.49999 44.1258 9.44099 44.2744 9.44099H44.7284V8.97699C44.7289 8.82863 44.7881 8.6865 44.893 8.58159C44.9979 8.47669 45.14 8.41752 45.2884 8.41699Z" fill="white"/>
<path d="M27.253 7.50903L43.713 25.181V44.529H12.291V23.571L27.253 7.50903Z" fill="white"/>
<path d="M47.9748 27.927H43.8408L32.2908 15.961L28.0028 11.517L21.2888 18.473L12.2908 27.797L12.1648 27.927H8.02881L12.2908 23.571L28.0028 7.50903L45.2888 25.181L47.9748 27.927Z" fill="white" stroke="#000062" stroke-miterlimit="10"/>
<path d="M32.0287 31.2351H38.2567C38.6646 31.2351 39.0558 31.3971 39.3442 31.6856C39.6326 31.974 39.7947 32.3652 39.7947 32.7731V44.5311H30.4927V32.7731C30.4927 32.3656 30.6544 31.9747 30.9424 31.6863C31.2304 31.3979 31.6211 31.2356 32.0287 31.2351Z" fill="white" stroke="#000062" stroke-miterlimit="10"/>
<path d="M32.8425 38.5912C33.1462 38.5912 33.3925 38.345 33.3925 38.0412C33.3925 37.7375 33.1462 37.4912 32.8425 37.4912C32.5387 37.4912 32.2925 37.7375 32.2925 38.0412C32.2925 38.345 32.5387 38.5912 32.8425 38.5912Z" fill="#000062"/>
<path d="M43.715 27.929V44.529H12.291V27.271" stroke="#000062" stroke-miterlimit="10"/>
<path d="M19.5021 47.9311H46.9661V47.2951C46.9661 46.5618 46.6749 45.8586 46.1567 45.3399C45.6384 44.8212 44.9353 44.5296 44.2021 44.5291H11.8021C11.0688 44.5296 10.3658 44.8212 9.84752 45.3399C9.32923 45.8586 9.03809 46.5618 9.03809 47.2951V47.9311H15.7741" fill="white"/>
<path d="M19.5021 47.9311H46.9661V47.2951C46.9661 46.5618 46.6749 45.8586 46.1567 45.3399C45.6384 44.8212 44.9353 44.5296 44.2021 44.5291H11.8021C11.0688 44.5296 10.3658 44.8212 9.84752 45.3399C9.32923 45.8586 9.03809 46.5618 9.03809 47.2951V47.9311H15.7741" stroke="#000062" stroke-miterlimit="10"/>
<path d="M21.2881 25.7509V18.4729" stroke="#000062" stroke-miterlimit="10"/>
<path d="M17.7763 48.4911C18.0856 48.4911 18.3363 48.2404 18.3363 47.9311C18.3363 47.6218 18.0856 47.3711 17.7763 47.3711C17.467 47.3711 17.2163 47.6218 17.2163 47.9311C17.2163 48.2404 17.467 48.4911 17.7763 48.4911Z" fill="#000062"/>
<path d="M32.293 15.9609V24.1749" stroke="#000062" stroke-miterlimit="10"/>
<path d="M32.293 25.7529V27.2689" stroke="#000062" stroke-miterlimit="10"/>
<path fill-rule="evenodd" clip-rule="evenodd" d="M6.37435 37.3465C6.14725 36.9491 6.02783 36.4993 6.02783 36.0416C6.02783 35.5839 6.14728 35.1342 6.37435 34.7368C6.6014 34.3395 6.92823 34.0082 7.3226 33.7758L7.33207 33.7702L15.2448 29.2007C15.6378 28.9716 16.0838 28.8482 16.5394 28.8429C17.0067 28.8375 17.4671 28.9567 17.8732 29.1882C18.2792 29.4196 18.6163 29.755 18.8499 30.1599C19.0094 30.4366 19.1166 30.7388 19.1676 31.0516L28.8318 31.0516V41.0316L19.1676 41.0316C19.1166 41.3445 19.0094 41.6467 18.8499 41.9233C18.6163 42.3283 18.2792 42.6637 17.8732 42.8951C17.4671 43.1266 17.0067 43.2457 16.5394 43.2403C16.084 43.2351 15.6379 43.1117 15.2447 42.8826L7.33207 38.3131L7.3226 38.3075C6.92823 38.0751 6.6014 37.7438 6.37435 37.3465Z" fill="white"/>
<path d="M26.4007 38.5309L16.9887 38.5309C16.9599 38.5309 16.9314 38.5366 16.9048 38.5477C16.8782 38.5587 16.8541 38.575 16.8338 38.5954C16.8135 38.6159 16.7975 38.6402 16.7867 38.6668C16.7759 38.6935 16.7704 38.7221 16.7707 38.7509L16.7707 40.6069C16.7708 40.6303 16.7647 40.6534 16.753 40.6737C16.7413 40.694 16.7244 40.7108 16.704 40.7224C16.6837 40.734 16.6606 40.74 16.6372 40.7397C16.6137 40.7395 16.5908 40.733 16.5707 40.7209L8.66068 36.1529C8.64119 36.1414 8.62503 36.125 8.61381 36.1054C8.60258 36.0857 8.59668 36.0635 8.59668 36.0409C8.59668 36.0183 8.60258 35.996 8.61381 35.9764C8.62503 35.9567 8.64119 35.9404 8.66068 35.9289L16.5707 31.3609C16.5908 31.3488 16.6137 31.3423 16.6372 31.342C16.6606 31.3418 16.6837 31.3477 16.704 31.3593C16.7244 31.3709 16.7413 31.3878 16.753 31.4081C16.7647 31.4284 16.7708 31.4514 16.7707 31.4749L16.7707 33.3309C16.7704 33.3597 16.7759 33.3882 16.7867 33.4149C16.7975 33.4416 16.8135 33.4659 16.8338 33.4863C16.8541 33.5068 16.8782 33.523 16.9048 33.5341C16.9314 33.5452 16.9599 33.5509 16.9887 33.5509L26.4007 33.5509" fill="white" stroke="#000062" stroke-miterlimit="10"/>
</svg>
