<svg width="56" height="56" viewBox="0 0 56 56" fill="none" xmlns="http://www.w3.org/2000/svg">
<path d="M12.6163 9.99348C12.6163 9.84496 12.6753 9.70252 12.7803 9.5975C12.8853 9.49248 13.0277 9.43348 13.1763 9.43348H13.6323V8.97748C13.6323 8.82896 13.6913 8.68652 13.7963 8.5815C13.9013 8.47648 14.0437 8.41748 14.1923 8.41748C14.3408 8.41748 14.4832 8.47648 14.5882 8.5815C14.6933 8.68652 14.7523 8.82896 14.7523 8.97748V9.43348H15.2083C15.3568 9.43348 15.4992 9.49248 15.6042 9.5975C15.7093 9.70252 15.7683 9.84496 15.7683 9.99348C15.7683 10.142 15.7093 10.2844 15.6042 10.3895C15.4992 10.4945 15.3568 10.5535 15.2083 10.5535H14.7503V11.0095C14.7503 11.158 14.6913 11.3004 14.5862 11.4055C14.4812 11.5105 14.3388 11.5695 14.1903 11.5695C14.0417 11.5695 13.8993 11.5105 13.7943 11.4055C13.6893 11.3004 13.6303 11.158 13.6303 11.0095V10.5615H13.1763C13.102 10.5615 13.0286 10.5467 12.9601 10.5181C12.8916 10.4895 12.8295 10.4475 12.7774 10.3946C12.7253 10.3418 12.6842 10.2791 12.6566 10.2102C12.6289 10.1414 12.6152 10.0677 12.6163 9.99348Z" fill="white"/>
<path d="M45.284 8.41748V11.5615C45.1354 11.5615 44.993 11.5025 44.888 11.3975C44.783 11.2924 44.724 11.15 44.724 11.0015V10.5615H44.27C44.1214 10.5615 43.979 10.5025 43.874 10.3975C43.769 10.2924 43.71 10.15 43.71 10.0015C43.71 9.85296 43.769 9.71052 43.874 9.6055C43.979 9.50048 44.1214 9.44148 44.27 9.44148H44.724V8.97748C44.7245 8.82912 44.7837 8.68699 44.8886 8.58208C44.9935 8.47718 45.1356 8.41801 45.284 8.41748Z" fill="white"/>
<path d="M27.2486 7.50952L43.7086 25.1815V44.5295H12.2866V23.5715L27.2486 7.50952Z" fill="white"/>
<path d="M47.9699 27.9275H43.8359L32.2859 15.9615L27.9979 11.5175L21.2839 18.4735L12.2859 27.7975L12.1599 27.9275H8.02393L12.2859 23.5715L27.9979 7.50952L45.2839 25.1815L47.9699 27.9275Z" fill="white" stroke="#000062" stroke-miterlimit="10"/>
<path d="M32.0238 31.2356H38.2518C38.6597 31.2356 39.0509 31.3976 39.3393 31.6861C39.6278 31.9745 39.7898 32.3657 39.7898 32.7736V44.5316H30.4878V32.7736C30.4878 32.366 30.6496 31.9751 30.9376 31.6868C31.2256 31.3984 31.6162 31.2361 32.0238 31.2356Z" fill="white" stroke="#000062" stroke-miterlimit="10"/>
<path d="M32.8376 38.5917C33.1414 38.5917 33.3876 38.3455 33.3876 38.0417C33.3876 37.7379 33.1414 37.4917 32.8376 37.4917C32.5338 37.4917 32.2876 37.7379 32.2876 38.0417C32.2876 38.3455 32.5338 38.5917 32.8376 38.5917Z" fill="#000062"/>
<path d="M43.7106 27.9295V44.5295H12.2866V27.2715" stroke="#000062" stroke-miterlimit="10"/>
<path d="M19.4972 47.9315H46.9612V47.2955C46.9612 46.5623 46.6701 45.8591 46.1518 45.3404C45.6335 44.8217 44.9304 44.5301 44.1972 44.5295H11.7972C11.064 44.5301 10.3609 44.8217 9.84264 45.3404C9.32435 45.8591 9.0332 46.5623 9.0332 47.2955V47.9315H15.7692" fill="white"/>
<path d="M19.4972 47.9315H46.9612V47.2955C46.9612 46.5623 46.6701 45.8591 46.1518 45.3404C45.6335 44.8217 44.9304 44.5301 44.1972 44.5295H11.7972C11.064 44.5301 10.3609 44.8217 9.84264 45.3404C9.32435 45.8591 9.0332 46.5623 9.0332 47.2955V47.9315H15.7692" stroke="#000062" stroke-miterlimit="10"/>
<path d="M24.1799 32.6475H26.4099C26.4722 32.6475 26.5319 32.672 26.5761 32.7159C26.6203 32.7597 26.6454 32.8192 26.6459 32.8815V39.3015C26.6459 39.3641 26.6211 39.4241 26.5768 39.4683C26.5325 39.5126 26.4725 39.5375 26.4099 39.5375H16.0099C15.9473 39.5375 15.8873 39.5126 15.843 39.4683C15.7988 39.4241 15.7739 39.3641 15.7739 39.3015V32.8815C15.7745 32.8192 15.7996 32.7597 15.8438 32.7159C15.888 32.672 15.9477 32.6475 16.0099 32.6475H18.3899" fill="white"/>
<path d="M24.1799 32.6475H26.4099C26.4722 32.6475 26.5319 32.672 26.5761 32.7159C26.6203 32.7597 26.6454 32.8192 26.6459 32.8815V39.3015C26.6459 39.3641 26.6211 39.4241 26.5768 39.4683C26.5325 39.5126 26.4725 39.5375 26.4099 39.5375H16.0099C15.9473 39.5375 15.8873 39.5126 15.843 39.4683C15.7988 39.4241 15.7739 39.3641 15.7739 39.3015V32.8815C15.7745 32.8192 15.7996 32.7597 15.8438 32.7159C15.888 32.672 15.9477 32.6475 16.0099 32.6475H18.3899" stroke="#000062" stroke-miterlimit="10"/>
<path d="M20.4826 26.0856L18.7246 27.8436C18.5126 28.0559 18.3933 28.3435 18.3926 28.6436V34.7616C18.3926 34.9108 18.422 35.0585 18.4791 35.1963C18.5361 35.3341 18.6198 35.4594 18.7253 35.5649C18.8308 35.6703 18.956 35.754 19.0938 35.8111C19.2317 35.8682 19.3794 35.8976 19.5286 35.8976H23.0446C23.3455 35.8971 23.634 35.7771 23.8466 35.5642C24.0592 35.3512 24.1786 35.0625 24.1786 34.7616V28.6476C24.1779 28.3475 24.0586 28.0599 23.8466 27.8476L22.0886 26.0896C21.8761 25.8762 21.5876 25.7559 21.2864 25.7551C20.9853 25.7544 20.6961 25.8732 20.4826 26.0856Z" fill="white" stroke="#000062" stroke-miterlimit="10"/>
<path d="M21.2832 28.8115V34.0215" stroke="#000062" stroke-miterlimit="10"/>
<path d="M21.2832 25.7514V18.4734" stroke="#000062" stroke-miterlimit="10"/>
<path d="M17.7714 48.4916C18.0807 48.4916 18.3314 48.2409 18.3314 47.9316C18.3314 47.6223 18.0807 47.3716 17.7714 47.3716C17.4621 47.3716 17.2114 47.6223 17.2114 47.9316C17.2114 48.2409 17.4621 48.4916 17.7714 48.4916Z" fill="#000062"/>
<path d="M32.2881 15.9614V24.1754" stroke="#000062" stroke-miterlimit="10"/>
<path d="M32.2881 25.7534V27.2694" stroke="#000062" stroke-miterlimit="10"/>
</svg>
