<svg width="56" height="56" viewBox="0 0 56 56" fill="none" xmlns="http://www.w3.org/2000/svg">
<path d="M44.3244 21.9375H8.71244C8.40095 21.9375 8.14844 22.19 8.14844 22.5015V40.1435C8.14844 40.455 8.40095 40.7075 8.71244 40.7075H44.3244C44.6359 40.7075 44.8884 40.455 44.8884 40.1435V22.5015C44.8884 22.19 44.6359 21.9375 44.3244 21.9375Z" fill="white"/>
<path d="M40.2837 26.9436H40.0257C39.9697 26.9436 39.9157 26.9436 39.8597 26.9436H39.7937L39.6617 26.9256H39.6477H39.6277H39.6157C39.5483 26.9132 39.4815 26.8972 39.4157 26.8776H39.4037C39.3517 26.8616 39.2997 26.8416 39.2517 26.8216L39.2117 26.8036C39.1717 26.7856 39.1337 26.7656 39.0957 26.7456L39.0637 26.7276C39.025 26.7044 38.9876 26.679 38.9517 26.6516L38.9337 26.6396L38.8997 26.6096L38.8537 26.5656L38.8217 26.5336C38.8017 26.5114 38.783 26.488 38.7657 26.4636L38.7457 26.4316C38.7325 26.411 38.7205 26.3896 38.7097 26.3676L38.6997 26.3476C38.688 26.3191 38.6786 26.2897 38.6717 26.2596V26.2356C38.6654 26.204 38.662 26.1718 38.6617 26.1396C38.6635 26.1109 38.6635 26.0822 38.6617 26.0536C38.6533 26.0087 38.6391 25.965 38.6197 25.9236V25.9096C38.6197 25.8936 38.6017 25.8756 38.5917 25.8596L38.5777 25.8376L38.5477 25.7956L38.5257 25.7676L38.4937 25.7316L38.4577 25.6956L38.4297 25.6696L38.3677 25.6196C38.3397 25.5996 38.3117 25.5796 38.2817 25.5616C38.2177 25.5239 38.1508 25.4911 38.0817 25.4636H38.0677L37.9757 25.4296H37.9497L37.8477 25.3636H37.8157L37.7277 25.3436H37.6937L37.6037 25.3296H37.5657H37.4777C37.4177 25.3296 37.3577 25.3296 37.2977 25.3296H15.7477C15.6237 25.3299 15.5 25.3406 15.3777 25.3616C15.3062 25.3737 15.2355 25.3897 15.1657 25.4096C14.9495 25.4665 14.7508 25.5765 14.5877 25.7296L14.5397 25.7856C14.5257 25.8036 14.5117 25.8236 14.4997 25.8416C14.4873 25.861 14.476 25.881 14.4657 25.9016C14.4442 25.946 14.4287 25.9931 14.4197 26.0416C14.4181 26.0696 14.4181 26.0976 14.4197 26.1256C14.4195 26.1578 14.4161 26.19 14.4097 26.2216V26.2436C14.4024 26.2744 14.3923 26.3045 14.3797 26.3336V26.3456C14.3675 26.3719 14.3535 26.3972 14.3377 26.4216L14.3237 26.4436C14.3048 26.4709 14.2841 26.497 14.2617 26.5216L14.2457 26.5396C14.2236 26.5628 14.2002 26.5848 14.1757 26.6056L14.1617 26.6176L14.1197 26.6476L14.0357 26.7056L13.9757 26.7396L13.8477 26.7636L13.7657 26.7996L13.6997 26.8236L13.6057 26.8556H13.5937L13.5077 26.8776C13.4757 26.8776 13.4437 26.8956 13.4077 26.8996H13.3737L13.2417 26.9176H13.1757C13.1217 26.9176 13.0657 26.9176 13.0097 26.9176H12.7557C12.5583 26.917 12.3617 26.9439 12.1717 26.9976C11.7077 27.1296 11.3857 27.4136 11.3857 27.7456V34.8516C11.3857 35.3076 11.9997 35.6796 12.7557 35.6796H13.0137C13.0697 35.6796 13.1237 35.6796 13.1797 35.6796H13.2457L13.3777 35.6976H13.3957H13.4157H13.4277C13.4952 35.71 13.562 35.726 13.6277 35.7456H13.6397C13.6917 35.7616 13.7437 35.7816 13.7917 35.8016L13.8317 35.8196C13.8717 35.8376 13.9097 35.8576 13.9477 35.8776L13.9797 35.8956C14.0184 35.9188 14.0558 35.9442 14.0917 35.9716L14.1097 35.9836L14.1437 36.0136L14.1897 36.0576L14.2217 36.0896C14.2418 36.1118 14.2605 36.1352 14.2777 36.1596L14.2977 36.1916C14.311 36.2122 14.323 36.2336 14.3337 36.2556L14.3437 36.2756C14.3555 36.3041 14.3649 36.3335 14.3717 36.3636V36.3876C14.3781 36.4192 14.3815 36.4513 14.3817 36.4836C14.38 36.5122 14.38 36.5409 14.3817 36.5696C14.3902 36.6145 14.4043 36.6582 14.4237 36.6996V36.7136C14.4237 36.7296 14.4417 36.7476 14.4517 36.7636L14.4657 36.7856L14.4957 36.8276L14.5177 36.8556L14.5497 36.8916L14.5857 36.9276L14.6137 36.9536L14.6757 37.0036C14.7037 37.0236 14.7317 37.0436 14.7617 37.0616C14.8258 37.0993 14.8927 37.132 14.9617 37.1596H14.9757L15.0677 37.1936H15.0917L15.1797 37.2196H15.2117L15.2997 37.2396H15.3337L15.4237 37.2536H15.4617H15.5497C15.6077 37.2536 15.6677 37.2536 15.7297 37.2536H37.2897C37.4138 37.2533 37.5375 37.2426 37.6597 37.2216C37.7312 37.2095 37.802 37.1935 37.8717 37.1736C38.088 37.1167 38.2867 37.0067 38.4497 36.8536L38.4977 36.7976C38.5117 36.7796 38.5257 36.7596 38.5377 36.7416C38.5502 36.7222 38.5615 36.7022 38.5717 36.6816C38.5933 36.6372 38.6088 36.5901 38.6177 36.5416C38.6194 36.5136 38.6194 36.4856 38.6177 36.4576C38.618 36.4253 38.6213 36.3932 38.6277 36.3616V36.3396C38.6351 36.3088 38.6451 36.2787 38.6577 36.2496V36.2376C38.67 36.2113 38.684 36.1859 38.6997 36.1616L38.7137 36.1396C38.7327 36.1123 38.7534 36.0862 38.7757 36.0616L38.7917 36.0436C38.8139 36.0204 38.8373 35.9984 38.8617 35.9776L38.8757 35.9656L38.9177 35.9356L39.0037 35.8776L39.0637 35.8436L39.1397 35.8056L39.2217 35.7696L39.2857 35.7456L39.3797 35.7136H39.3917L39.4757 35.6916C39.5077 35.6916 39.5417 35.6736 39.5757 35.6696H39.6097L39.7417 35.6516H39.8077C39.8617 35.6516 39.9177 35.6516 39.9737 35.6516H40.2317C40.4292 35.6522 40.6257 35.6253 40.8157 35.5716C41.2797 35.4396 41.6017 35.1536 41.6017 34.8236V27.7636C41.6477 27.3136 41.0477 26.9436 40.2837 26.9436Z" fill="white"/>
<path d="M14.3084 21.9976H8.64844C8.58316 21.9966 8.51832 22.0085 8.4577 22.0328C8.39708 22.057 8.34189 22.0931 8.29536 22.1389C8.24882 22.1847 8.21186 22.2393 8.18664 22.2995C8.16141 22.3597 8.14843 22.4243 8.14844 22.4896V40.2736C8.14869 40.3387 8.16187 40.4032 8.18722 40.4632C8.21256 40.5231 8.24956 40.5775 8.29607 40.6231C8.34258 40.6687 8.39768 40.7046 8.45816 40.7287C8.51865 40.7528 8.58333 40.7647 8.64844 40.7636H14.4484" stroke="#000062" stroke-miterlimit="10"/>
<path d="M44.8886 29.3635V40.2675C44.8886 40.398 44.8368 40.5232 44.7445 40.6154C44.6523 40.7077 44.5271 40.7595 44.3966 40.7595H17.3486" stroke="#000062" stroke-miterlimit="10"/>
<path d="M41.6483 29.3636V34.9276C41.6483 35.2576 41.3263 35.5436 40.8623 35.6756C40.6723 35.7292 40.4757 35.7561 40.2783 35.7556H40.0203C39.9643 35.7556 39.9103 35.7556 39.8543 35.7556H39.7903L39.6583 35.7736H39.6243L39.5243 35.7956L39.4403 35.8156H39.4283L39.3363 35.8476L39.2723 35.8716C39.2442 35.8818 39.2168 35.8939 39.1903 35.9076L39.1143 35.9456L39.0543 35.9796L38.9683 36.0376L38.9263 36.0696L38.9143 36.0796C38.8891 36.1003 38.865 36.1223 38.8423 36.1456L38.8263 36.1636C38.8038 36.1881 38.783 36.2142 38.7643 36.2416L38.7503 36.2616C38.7346 36.286 38.7206 36.3114 38.7083 36.3376V36.3496C38.6951 36.3785 38.685 36.4086 38.6783 36.4396V36.4616C38.6723 36.4933 38.6689 36.5254 38.6683 36.5576C38.67 36.5856 38.67 36.6136 38.6683 36.6416C38.6599 36.6909 38.6444 36.7388 38.6223 36.7836C38.6123 36.805 38.601 36.8257 38.5883 36.8456C38.5759 36.865 38.5626 36.8837 38.5483 36.9016C38.5323 36.9216 38.5163 36.9396 38.5003 36.9576C38.3373 37.1108 38.1386 37.2209 37.9223 37.2776C37.8526 37.2977 37.7818 37.3137 37.7103 37.3256C37.588 37.3464 37.4643 37.3571 37.3403 37.3576H15.7483C15.6863 37.3576 15.6283 37.3576 15.5683 37.3576H15.4783H15.4423C15.412 37.3546 15.382 37.3499 15.3523 37.3436H15.3183L15.2283 37.3236H15.1963L15.1083 37.2976H15.0843L14.9923 37.2636H14.9763C14.9074 37.235 14.8405 37.2016 14.7763 37.1636C14.7463 37.1463 14.7175 37.127 14.6903 37.1056H14.6803L14.6183 37.0556L14.5903 37.0316L14.5563 36.9956L14.5243 36.9616L14.5023 36.9336L14.4723 36.8916L14.4583 36.8696C14.4583 36.8536 14.4383 36.8356 14.4323 36.8216V36.8076C14.4132 36.7654 14.3991 36.7211 14.3903 36.6756C14.3885 36.6476 14.3885 36.6196 14.3903 36.5916C14.3905 36.5593 14.3871 36.5271 14.3803 36.4956V36.4716C14.3734 36.4416 14.364 36.4121 14.3523 36.3836L14.3423 36.3636C14.3323 36.3416 14.3203 36.3196 14.3083 36.2996L14.2883 36.2676C14.2717 36.2427 14.2529 36.2193 14.2323 36.1976L14.2023 36.1656L14.1543 36.1216L14.1203 36.0916L14.1023 36.0796C14.0666 36.0519 14.0292 36.0265 13.9903 36.0036L13.9563 35.9836L13.8403 35.9256L13.8003 35.9076C13.7523 35.8876 13.7023 35.8696 13.6483 35.8516H13.6383C13.5763 35.8336 13.5123 35.8176 13.4383 35.8036H13.4283H13.4083H13.3883C13.3463 35.8036 13.3023 35.7896 13.2563 35.7856H13.1903C13.1363 35.7856 13.0823 35.7856 13.0263 35.7856H12.7543C12.0003 35.7856 11.3843 35.4156 11.3843 34.9576V27.8276C11.3843 27.4976 11.7063 27.2136 12.1703 27.0796C12.3603 27.0259 12.5568 26.999 12.7543 26.9996H13.0123C13.0683 26.9996 13.1223 26.9996 13.1763 26.9996H13.2403C13.2863 26.9996 13.3303 26.9896 13.3723 26.9796H13.4063C13.44 26.9741 13.4734 26.9668 13.5063 26.9576L13.5923 26.9376H13.6023C13.6363 26.9376 13.6643 26.9176 13.6963 26.9056L13.7603 26.8816L13.8403 26.8476L13.9163 26.8096L13.9763 26.7756C14.006 26.7579 14.0347 26.7386 14.0623 26.7176L14.1043 26.6876L14.1163 26.6756C14.1415 26.655 14.1655 26.6329 14.1883 26.6096L14.2063 26.5916C14.2289 26.568 14.2496 26.5425 14.2683 26.5156L14.2823 26.4936C14.2906 26.4809 14.298 26.4675 14.3043 26.4536" stroke="#000062" stroke-miterlimit="10"/>
<path d="M26.5171 37.4176V35.2576V31.3436V29.3696" stroke="#000062" stroke-miterlimit="10"/>
<path d="M18.0029 37.4176V29.3696" stroke="#000062" stroke-miterlimit="10"/>
<path d="M35.0342 37.4176V29.3696" stroke="#000062" stroke-miterlimit="10"/>
<path d="M50.4836 10.5996H14.8716C14.5601 10.5996 14.3076 10.8521 14.3076 11.1636V28.8056C14.3076 29.1171 14.5601 29.3696 14.8716 29.3696H50.4836C50.7951 29.3696 51.0476 29.1171 51.0476 28.8056V11.1636C51.0476 10.8521 50.7951 10.5996 50.4836 10.5996Z" fill="white" stroke="#000062" stroke-miterlimit="10"/>
<path d="M46.4479 15.6035H46.1899C46.1339 15.6035 46.0799 15.6035 46.0239 15.6035H45.9579L45.8259 15.5855H45.8079H45.7879H45.7759C45.7085 15.5731 45.6417 15.5571 45.5759 15.5375H45.5639C45.5119 15.5215 45.4599 15.5015 45.4119 15.4815L45.3719 15.4635C45.3319 15.4455 45.2939 15.4255 45.2559 15.4055L45.2239 15.3875C45.1852 15.3642 45.1478 15.3389 45.1119 15.3115L45.0939 15.2995L45.0599 15.2695L45.0139 15.2255L44.9819 15.1935C44.9619 15.1713 44.9432 15.1479 44.9259 15.1235L44.9059 15.0915C44.8927 15.0708 44.8807 15.0495 44.8699 15.0275L44.8599 15.0075C44.8482 14.979 44.8388 14.9495 44.8319 14.9195V14.8955C44.8256 14.8639 44.8222 14.8317 44.8219 14.7995C44.8237 14.7708 44.8237 14.7421 44.8219 14.7135C44.8135 14.6685 44.7994 14.6249 44.7799 14.5835V14.5695C44.7799 14.5535 44.7619 14.5355 44.7519 14.5195L44.7379 14.4975L44.7079 14.4555L44.6859 14.4275L44.6479 14.3635L44.6119 14.3275L44.5839 14.3015L44.5219 14.2515C44.4939 14.2315 44.4659 14.2115 44.4359 14.1935C44.3719 14.1558 44.305 14.123 44.2359 14.0955H44.2219L44.1299 14.0615H44.1039L44.0159 14.0355H43.9839L43.8959 14.0155H43.8619L43.7719 14.0015H43.7339H43.6459C43.5859 14.0015 43.5259 14.0015 43.4659 14.0015H21.9079C21.7839 14.0018 21.6602 14.0125 21.5379 14.0335C21.4665 14.0456 21.3957 14.0616 21.3259 14.0815C21.1097 14.1384 20.911 14.2484 20.7479 14.4015L20.6999 14.4575C20.6859 14.4755 20.6719 14.4955 20.6599 14.5135C20.6475 14.5328 20.6362 14.5529 20.6259 14.5735C20.6044 14.6178 20.5889 14.6649 20.5799 14.7135C20.5783 14.7414 20.5783 14.7695 20.5799 14.7975C20.5797 14.8297 20.5763 14.8619 20.5699 14.8935V14.9155C20.5626 14.9463 20.5525 14.9764 20.5399 15.0055V15.0175C20.5277 15.0437 20.5137 15.0691 20.4979 15.0935L20.4839 15.1155C20.465 15.1428 20.4443 15.1688 20.4219 15.1935L20.4059 15.2115C20.3838 15.2347 20.3604 15.2567 20.3359 15.2775L20.3219 15.2895L20.2799 15.3195L20.1959 15.3775L20.1359 15.4115L20.0599 15.4495L19.9779 15.4855L19.9119 15.5095L19.8179 15.5415H19.8059L19.7199 15.5635C19.6879 15.5635 19.6559 15.5815 19.6199 15.5855H19.5859L19.4539 15.6035H19.3879C19.3339 15.6035 19.2779 15.6035 19.2219 15.6035H18.9139C18.7165 15.6029 18.5199 15.6298 18.3299 15.6835C17.8659 15.8155 17.5439 16.0995 17.5439 16.4315V23.5375C17.5439 23.9935 18.1579 24.3655 18.9139 24.3655H19.1719C19.2279 24.3655 19.2819 24.3655 19.3379 24.3655H19.4039L19.5359 24.3835H19.5539H19.5739H19.5859C19.6534 24.3958 19.7202 24.4119 19.7859 24.4315H19.7979C19.8499 24.4475 19.9019 24.4675 19.9499 24.4875L19.9899 24.5055C20.0299 24.5235 20.0679 24.5435 20.1059 24.5635L20.1379 24.5815C20.1766 24.6047 20.214 24.6301 20.2499 24.6575L20.2679 24.6695L20.3019 24.6995L20.3479 24.7435L20.3799 24.7755C20.4 24.7977 20.4187 24.8211 20.4359 24.8455L20.4559 24.8775C20.4692 24.8981 20.4812 24.9195 20.4919 24.9415L20.5019 24.9615C20.5137 24.99 20.5231 25.0194 20.5299 25.0495V25.0735C20.5363 25.1051 20.5397 25.1372 20.5399 25.1695C20.5382 25.1981 20.5382 25.2268 20.5399 25.2555C20.5484 25.3004 20.5625 25.3441 20.5819 25.3855V25.3995C20.5819 25.4155 20.5999 25.4335 20.6099 25.4495L20.6239 25.4715L20.6539 25.5135L20.6759 25.5415L20.7079 25.5775L20.7439 25.6135L20.7719 25.6395L20.8339 25.6895C20.8619 25.7095 20.8899 25.7295 20.9199 25.7475C20.984 25.7852 21.0509 25.8179 21.1199 25.8455H21.1339L21.2259 25.8795H21.2499L21.3379 25.9055H21.3699L21.4579 25.9255H21.4919L21.5819 25.9395H21.6199H21.7079C21.7659 25.9395 21.8259 25.9395 21.8879 25.9395H43.4479C43.572 25.9392 43.6957 25.9284 43.8179 25.9075C43.8894 25.8954 43.9602 25.8793 44.0299 25.8595C44.2462 25.8026 44.4449 25.6926 44.6079 25.5395L44.6559 25.4835C44.6699 25.4655 44.6839 25.4455 44.6959 25.4275C44.7084 25.4081 44.7197 25.3881 44.7299 25.3675C44.7515 25.3231 44.767 25.276 44.7759 25.2275C44.7776 25.1995 44.7776 25.1714 44.7759 25.1435C44.7762 25.1112 44.7796 25.0791 44.7859 25.0475V25.0255C44.7933 24.9946 44.8033 24.9645 44.8159 24.9355V24.9235C44.8282 24.8972 44.8422 24.8718 44.8579 24.8475L44.8719 24.8255C44.8909 24.7981 44.9116 24.7721 44.9339 24.7475L44.9499 24.7295C44.9721 24.7063 44.9955 24.6842 45.0199 24.6635L45.0339 24.6515L45.0759 24.6215L45.1619 24.5635L45.2219 24.5295L45.2979 24.4915L45.3799 24.4555L45.4439 24.4315L45.5379 24.3995H45.5499L45.6339 24.3775C45.6659 24.3775 45.6999 24.3595 45.7339 24.3555H45.7679L45.8999 24.3375H45.9659C46.0199 24.3375 46.0759 24.3375 46.1319 24.3375H46.4479C46.6454 24.3381 46.8419 24.3111 47.0319 24.2575C47.4959 24.1255 47.8179 23.8395 47.8179 23.5095V16.4315C47.8119 15.9735 47.1979 15.6035 46.4479 15.6035Z" fill="white" stroke="#000062" stroke-miterlimit="10"/>
<path d="M32.6782 13.9475V16.1055V23.8615V26.0195" stroke="#000062" stroke-miterlimit="10"/>
<path d="M24.1641 13.9475V26.0195" stroke="#000062" stroke-miterlimit="10"/>
<path d="M41.1924 13.9475V26.0195" stroke="#000062" stroke-miterlimit="10"/>
<path d="M15.897 41.2456C16.1621 41.2456 16.377 41.0307 16.377 40.7656C16.377 40.5005 16.1621 40.2856 15.897 40.2856C15.6319 40.2856 15.417 40.5005 15.417 40.7656C15.417 41.0307 15.6319 41.2456 15.897 41.2456Z" fill="#000062"/>
<path d="M27.1797 13.9475V17.9955" stroke="#000062" stroke-miterlimit="10"/>
<path d="M27.1797 18.8616V19.8296" stroke="#000062" stroke-miterlimit="10"/>
<path d="M21.8103 39.4168C21.4958 36.8836 20.266 34.5527 18.3526 32.8631C16.4391 31.1735 13.974 30.2417 11.4213 30.2432C10.9333 30.2429 10.446 30.2774 9.96292 30.3463C7.64898 30.6718 5.51044 31.7621 3.88774 33.4435C2.26505 35.1249 1.25147 37.3009 1.00837 39.6249C0.971321 39.9865 0.952883 40.3497 0.953127 40.7132C0.956102 43.3688 1.9681 45.9241 3.78422 47.8616C5.60034 49.7991 8.08486 50.9742 10.7347 51.1488C13.3846 51.3234 16.0018 50.4845 18.0565 48.802C20.1111 47.1195 21.4497 44.7191 21.801 42.0868" fill="white"/>
<path d="M10.9282 37.1207V40.7071C10.93 40.8286 10.979 40.9447 11.065 41.0307C11.1509 41.1167 11.267 41.1657 11.3886 41.1674H13.6433C14.2357 41.1674 14.2367 40.2468 13.6433 40.2468H11.3886L11.8489 40.7071V37.1207C11.8489 36.5283 10.9282 36.5273 10.9282 37.1207Z" fill="#000062"/>
<path d="M11.3804 32.4966V34.6962" stroke="#000062" stroke-miterlimit="10"/>
<path d="M11.3804 46.718V48.9176" stroke="#000062" stroke-miterlimit="10"/>
<path d="M19.5922 40.707H17.3926" stroke="#000062" stroke-miterlimit="10"/>
<path d="M11.3814 48.9175C15.9159 48.9175 19.5918 45.2415 19.5918 40.707C19.5918 36.1725 15.9159 32.4966 11.3814 32.4966C6.84684 32.4966 3.1709 36.1725 3.1709 40.707C3.1709 45.2415 6.84684 48.9175 11.3814 48.9175Z" stroke="#000062" stroke-miterlimit="10"/>
</svg>
