<svg width="56" height="56" viewBox="0 0 56 56" fill="none" xmlns="http://www.w3.org/2000/svg">
<path d="M42.7761 23.938H7.1641C6.85261 23.938 6.6001 24.1905 6.6001 24.502V42.144C6.6001 42.4555 6.85261 42.708 7.1641 42.708H42.7761C43.0876 42.708 43.3401 42.4555 43.3401 42.144V24.502C43.3401 24.1905 43.0876 23.938 42.7761 23.938Z" fill="white"/>
<path d="M38.7354 28.9441H38.4774C38.4214 28.9441 38.3674 28.9441 38.3114 28.9441H38.2454L38.1134 28.9261H38.0994H38.0794H38.0674C37.9999 28.9137 37.9332 28.8977 37.8674 28.8781H37.8554C37.8034 28.8621 37.7514 28.8421 37.7034 28.8221L37.6634 28.8041C37.6234 28.7861 37.5854 28.7661 37.5474 28.7461L37.5154 28.7281C37.4767 28.7048 37.4393 28.6795 37.4034 28.6521L37.3854 28.6401L37.3514 28.6101L37.3054 28.5661L37.2734 28.5341C37.2534 28.5119 37.2347 28.4885 37.2174 28.4641L37.1974 28.4321C37.1842 28.4115 37.1721 28.3901 37.1614 28.3681L37.1514 28.3481C37.1396 28.3196 37.1303 28.2901 37.1234 28.2601V28.2361C37.117 28.2045 37.1137 28.1723 37.1134 28.1401C37.1152 28.1114 37.1152 28.0827 37.1134 28.0541C37.1049 28.0092 37.0908 27.9655 37.0714 27.9241V27.9101C37.0714 27.8941 37.0534 27.8761 37.0434 27.8601L37.0294 27.8381L36.9994 27.7961L36.9774 27.7681L36.9454 27.7321L36.9094 27.6961L36.8814 27.6701L36.8194 27.6201C36.7914 27.6001 36.7634 27.5801 36.7334 27.5621C36.6693 27.5244 36.6025 27.4916 36.5334 27.4641H36.5194L36.4274 27.4301H36.4014L36.2994 27.3641H36.2674L36.1794 27.3441H36.1454L36.0554 27.3301H36.0174H35.9294C35.8694 27.3301 35.8094 27.3301 35.7494 27.3301H14.1994C14.0754 27.3304 13.9516 27.3411 13.8294 27.3621C13.7579 27.3742 13.6871 27.3902 13.6174 27.4101C13.4011 27.467 13.2024 27.577 13.0394 27.7301L12.9914 27.7861C12.9774 27.8041 12.9634 27.8241 12.9514 27.8421C12.939 27.8614 12.9276 27.8815 12.9174 27.9021C12.8958 27.9465 12.8804 27.9936 12.8714 28.0421C12.8697 28.0701 12.8697 28.0981 12.8714 28.1261C12.8711 28.1583 12.8678 28.1905 12.8614 28.2221V28.2441C12.854 28.2749 12.844 28.305 12.8314 28.3341V28.3461C12.8192 28.3723 12.8051 28.3977 12.7894 28.4221L12.7754 28.4441C12.7565 28.4714 12.7357 28.4975 12.7134 28.5221L12.6974 28.5401C12.6752 28.5633 12.6519 28.5853 12.6274 28.6061L12.6134 28.6181L12.5714 28.6481L12.4874 28.7061L12.4274 28.7401L12.2994 28.7641L12.2174 28.8001L12.1514 28.8241L12.0574 28.8561H12.0454L11.9594 28.8781C11.9274 28.8781 11.8954 28.8961 11.8594 28.9001H11.8254L11.6934 28.9181H11.6274C11.5734 28.9181 11.5174 28.9181 11.4614 28.9181H11.2074C11.01 28.9175 10.8134 28.9444 10.6234 28.9981C10.1594 29.1301 9.8374 29.4141 9.8374 29.7461V36.8521C9.8374 37.3081 10.4514 37.6801 11.2074 37.6801H11.4654C11.5214 37.6801 11.5754 37.6801 11.6314 37.6801H11.6974L11.8294 37.6981H11.8474H11.8674H11.8794C11.9469 37.7104 12.0137 37.7265 12.0794 37.7461H12.0914C12.1434 37.7621 12.1954 37.7821 12.2434 37.8021L12.2834 37.8201C12.3234 37.8381 12.3614 37.8581 12.3994 37.8781L12.4314 37.8961C12.4701 37.9193 12.5075 37.9447 12.5434 37.9721L12.5614 37.9841L12.5954 38.0141L12.6414 38.0581L12.6734 38.0901C12.6934 38.1123 12.7121 38.1357 12.7294 38.1601L12.7494 38.1921C12.7626 38.2127 12.7747 38.2341 12.7854 38.2561L12.7954 38.2761C12.8072 38.3046 12.8166 38.334 12.8234 38.3641V38.3881C12.8298 38.4197 12.8331 38.4518 12.8334 38.4841C12.8316 38.5127 12.8316 38.5414 12.8334 38.5701C12.8419 38.615 12.856 38.6587 12.8754 38.7001V38.7141C12.8754 38.7301 12.8934 38.7481 12.9034 38.7641L12.9174 38.7861L12.9474 38.8281L12.9694 38.8561L13.0014 38.8921L13.0374 38.9281L13.0654 38.9541L13.1274 39.0041C13.1554 39.0241 13.1834 39.0441 13.2134 39.0621C13.2775 39.0998 13.3443 39.1325 13.4134 39.1601H13.4274L13.5194 39.1941H13.5434L13.6314 39.2201H13.6634L13.7514 39.2401H13.7854L13.8754 39.2541H13.9134H14.0014C14.0594 39.2541 14.1194 39.2541 14.1814 39.2541H35.7414C35.8654 39.2538 35.9892 39.2431 36.1114 39.2221C36.1829 39.21 36.2537 39.194 36.3234 39.1741C36.5397 39.1172 36.7384 39.0072 36.9014 38.8541L36.9494 38.7981C36.9634 38.7801 36.9774 38.7601 36.9894 38.7421C37.0018 38.7227 37.0132 38.7027 37.0234 38.6821C37.045 38.6377 37.0605 38.5906 37.0694 38.5421C37.0711 38.5141 37.0711 38.4861 37.0694 38.4581C37.0697 38.4258 37.073 38.3937 37.0794 38.3621V38.3401C37.0868 38.3093 37.0968 38.2791 37.1094 38.2501V38.2381C37.1216 38.2118 37.1357 38.1864 37.1514 38.1621L37.1654 38.1401C37.1844 38.1128 37.2051 38.0867 37.2274 38.0621L37.2434 38.0441C37.2656 38.0209 37.2889 37.9989 37.3134 37.9781L37.3274 37.9661L37.3694 37.9361L37.4554 37.8781L37.5154 37.8441L37.5914 37.8061L37.6734 37.7701L37.7374 37.7461L37.8314 37.7141H37.8434L37.9274 37.6921C37.9594 37.6921 37.9934 37.6741 38.0274 37.6701H38.0614L38.1934 37.6521H38.2594C38.3134 37.6521 38.3694 37.6521 38.4254 37.6521H38.6834C38.8808 37.6527 39.0774 37.6258 39.2674 37.5721C39.7314 37.4401 40.0534 37.1541 40.0534 36.8241V29.7641C40.0994 29.3141 39.4994 28.9441 38.7354 28.9441Z" fill="white"/>
<path d="M12.7601 23.9981H7.1001C7.03482 23.9971 6.96998 24.009 6.90936 24.0332C6.84874 24.0575 6.79356 24.0936 6.74702 24.1394C6.70048 24.1851 6.66352 24.2397 6.6383 24.3C6.61308 24.3602 6.60009 24.4248 6.6001 24.4901V42.2741C6.60035 42.3392 6.61354 42.4037 6.63888 42.4636C6.66422 42.5236 6.70122 42.578 6.74773 42.6236C6.79424 42.6692 6.84934 42.705 6.90982 42.7292C6.97031 42.7533 7.03499 42.7652 7.1001 42.7641H12.9001" stroke="#000062" stroke-miterlimit="10"/>
<path d="M43.3403 31.364V42.268C43.3403 42.3985 43.2885 42.5236 43.1962 42.6159C43.1039 42.7082 42.9788 42.76 42.8483 42.76H15.8003" stroke="#000062" stroke-miterlimit="10"/>
<path d="M40.0999 31.3641V36.9281C40.0999 37.2581 39.7779 37.5441 39.3139 37.6761C39.1239 37.7297 38.9274 37.7566 38.7299 37.7561H38.4719C38.4159 37.7561 38.3619 37.7561 38.3059 37.7561H38.2419L38.1099 37.7741H38.0759L37.9759 37.7961L37.8919 37.8161H37.8799L37.7879 37.8481L37.7239 37.8721C37.6959 37.8823 37.6685 37.8943 37.6419 37.9081L37.5659 37.9461L37.5059 37.9801L37.4199 38.0381L37.3779 38.0701L37.3659 38.0801C37.3407 38.1007 37.3167 38.1228 37.2939 38.1461L37.2779 38.1641C37.2554 38.1886 37.2347 38.2146 37.2159 38.2421L37.2019 38.2621C37.1863 38.2865 37.1722 38.3119 37.1599 38.3381V38.3501C37.1468 38.3789 37.1367 38.4091 37.1299 38.4401V38.4621C37.1239 38.4938 37.1206 38.5259 37.1199 38.5581C37.1217 38.5861 37.1217 38.6141 37.1199 38.6421C37.1116 38.6914 37.0961 38.7392 37.0739 38.7841C37.064 38.8055 37.0526 38.8262 37.0399 38.8461C37.0276 38.8655 37.0143 38.8842 36.9999 38.9021C36.9839 38.9221 36.9679 38.9401 36.9519 38.9581C36.789 39.1113 36.5903 39.2213 36.3739 39.2781C36.3043 39.2982 36.2335 39.3142 36.1619 39.3261C36.0397 39.3469 35.9159 39.3576 35.7919 39.3581H14.1999C14.1379 39.3581 14.0799 39.3581 14.0199 39.3581H13.9299H13.8939C13.8637 39.3551 13.8337 39.3504 13.8039 39.3441H13.7699L13.6799 39.3241H13.6479L13.5599 39.2981H13.5359L13.4439 39.2641H13.4279C13.359 39.2355 13.2922 39.2021 13.2279 39.1641C13.1979 39.1468 13.1692 39.1274 13.1419 39.1061H13.1319L13.0699 39.0561L13.0419 39.0321L13.0079 38.9961L12.9759 38.9621L12.9539 38.9341L12.9239 38.8921L12.9099 38.8701C12.9099 38.8541 12.8899 38.8361 12.8839 38.8221V38.8081C12.8649 38.7659 12.8508 38.7216 12.8419 38.6761C12.8402 38.6481 12.8402 38.6201 12.8419 38.5921C12.8422 38.5598 12.8388 38.5276 12.8319 38.4961V38.4721C12.825 38.4421 12.8157 38.4126 12.8039 38.3841L12.7939 38.3641C12.7839 38.3421 12.7719 38.3201 12.7599 38.3001L12.7399 38.2681C12.7233 38.2432 12.7046 38.2198 12.6839 38.1981L12.6539 38.1661L12.6059 38.1221L12.5719 38.0921L12.5539 38.0801C12.5183 38.0524 12.4809 38.027 12.4419 38.0041L12.4079 37.9841L12.2919 37.9261L12.2519 37.9081C12.2039 37.8881 12.1539 37.8701 12.0999 37.8521H12.0899C12.0279 37.8341 11.9639 37.8181 11.8899 37.8041H11.8799H11.8599H11.8399C11.7979 37.8041 11.7539 37.7901 11.7079 37.7861H11.6419C11.5879 37.7861 11.5339 37.7861 11.4779 37.7861H11.2059C10.4519 37.7861 9.83594 37.4161 9.83594 36.9581V29.8281C9.83594 29.4981 10.1579 29.2141 10.6219 29.0801C10.8119 29.0264 11.0085 28.9995 11.2059 29.0001H11.4639C11.5199 29.0001 11.5739 29.0001 11.6279 29.0001H11.6919C11.7379 29.0001 11.7819 28.9901 11.8239 28.9801H11.8579C11.8917 28.9746 11.925 28.9673 11.9579 28.9581L12.0439 28.9381H12.0539C12.0879 28.9381 12.1159 28.9181 12.1479 28.9061L12.2119 28.8821L12.2919 28.8481L12.3679 28.8101L12.4279 28.7761C12.4577 28.7584 12.4864 28.739 12.5139 28.7181L12.5559 28.6881L12.5679 28.6761C12.5932 28.6555 12.6172 28.6334 12.6399 28.6101L12.6579 28.5921C12.6806 28.5684 12.7013 28.543 12.7199 28.5161L12.7339 28.4941C12.7423 28.4813 12.7496 28.468 12.7559 28.4541" stroke="#000062" stroke-miterlimit="10"/>
<path d="M16.4546 39.4181V31.3701" stroke="#000062" stroke-miterlimit="10"/>
<path d="M33.4858 39.4181V31.3701" stroke="#000062" stroke-miterlimit="10"/>
<path d="M48.9353 12.6001H13.3233C13.0118 12.6001 12.7593 12.8526 12.7593 13.1641V30.8061C12.7593 31.1176 13.0118 31.3701 13.3233 31.3701H48.9353C49.2468 31.3701 49.4993 31.1176 49.4993 30.8061V13.1641C49.4993 12.8526 49.2468 12.6001 48.9353 12.6001Z" fill="white" stroke="#000062" stroke-miterlimit="10"/>
<path d="M44.8996 17.604H44.6416C44.5856 17.604 44.5316 17.604 44.4756 17.604H44.4096L44.2776 17.586H44.2596H44.2396H44.2276C44.1601 17.5736 44.0934 17.5576 44.0276 17.538H44.0156C43.9636 17.522 43.9116 17.502 43.8636 17.482L43.8236 17.464C43.7836 17.446 43.7456 17.426 43.7076 17.406L43.6756 17.388C43.6369 17.3647 43.5995 17.3393 43.5636 17.312L43.5456 17.3L43.5116 17.27L43.4656 17.226L43.4336 17.194C43.4136 17.1717 43.3949 17.1484 43.3776 17.124L43.3576 17.092C43.3444 17.0713 43.3324 17.05 43.3216 17.028L43.3116 17.008C43.2998 16.9795 43.2905 16.95 43.2836 16.92V16.896C43.2772 16.8643 43.2739 16.8322 43.2736 16.8C43.2754 16.7713 43.2754 16.7426 43.2736 16.714C43.2651 16.669 43.251 16.6253 43.2316 16.584V16.57C43.2316 16.554 43.2136 16.536 43.2036 16.52L43.1896 16.498L43.1596 16.456L43.1376 16.428L43.0996 16.364L43.0636 16.328L43.0356 16.302L42.9736 16.252C42.9456 16.232 42.9176 16.212 42.8876 16.194C42.8235 16.1563 42.7567 16.1235 42.6876 16.096H42.6736L42.5816 16.062H42.5556L42.4676 16.036H42.4356L42.3476 16.016H42.3136L42.2236 16.002H42.1856H42.0976C42.0376 16.002 41.9776 16.002 41.9176 16.002H20.3596C20.2356 16.0023 20.1118 16.013 19.9896 16.034C19.9181 16.0461 19.8473 16.0621 19.7776 16.082C19.5613 16.1389 19.3626 16.2489 19.1996 16.402L19.1516 16.458C19.1376 16.476 19.1236 16.496 19.1116 16.514C19.0992 16.5333 19.0878 16.5533 19.0776 16.574C19.056 16.6183 19.0406 16.6654 19.0316 16.714C19.0299 16.7419 19.0299 16.77 19.0316 16.798C19.0314 16.8302 19.028 16.8623 19.0216 16.894V16.916C19.0142 16.9468 19.0042 16.9769 18.9916 17.006V17.018C18.9794 17.0442 18.9653 17.0696 18.9496 17.094L18.9356 17.116C18.9167 17.1433 18.8959 17.1693 18.8736 17.194L18.8576 17.212C18.8354 17.2352 18.8121 17.2572 18.7876 17.278L18.7736 17.29L18.7316 17.32L18.6476 17.378L18.5876 17.412L18.5116 17.45L18.4296 17.486L18.3636 17.51L18.2696 17.542H18.2576L18.1716 17.564C18.1396 17.564 18.1076 17.582 18.0716 17.586H18.0376L17.9056 17.604H17.8396C17.7856 17.604 17.7296 17.604 17.6736 17.604H17.3656C17.1682 17.6033 16.9716 17.6303 16.7816 17.684C16.3176 17.816 15.9956 18.1 15.9956 18.432V25.538C15.9956 25.994 16.6096 26.366 17.3656 26.366H17.6236C17.6796 26.366 17.7336 26.366 17.7896 26.366H17.8556L17.9876 26.384H18.0056H18.0256H18.0376C18.1051 26.3963 18.1719 26.4123 18.2376 26.432H18.2496C18.3016 26.448 18.3536 26.468 18.4016 26.488L18.4416 26.506C18.4816 26.524 18.5196 26.544 18.5576 26.564L18.5896 26.582C18.6283 26.6052 18.6657 26.6306 18.7016 26.658L18.7196 26.67L18.7536 26.7L18.7996 26.744L18.8316 26.776C18.8516 26.7982 18.8703 26.8215 18.8876 26.846L18.9076 26.878C18.9208 26.8986 18.9329 26.9199 18.9436 26.942L18.9536 26.962C18.9654 26.9904 18.9748 27.0199 18.9816 27.05V27.074C18.988 27.1056 18.9913 27.1377 18.9916 27.17C18.9899 27.1986 18.9899 27.2273 18.9916 27.256C19.0001 27.3009 19.0142 27.3446 19.0336 27.386V27.4C19.0336 27.416 19.0516 27.434 19.0616 27.45L19.0756 27.472L19.1056 27.514L19.1276 27.542L19.1596 27.578L19.1956 27.614L19.2236 27.64L19.2856 27.69C19.3136 27.71 19.3416 27.73 19.3716 27.748C19.4357 27.7857 19.5025 27.8184 19.5716 27.846H19.5856L19.6776 27.88H19.7016L19.7896 27.906H19.8216L19.9096 27.926H19.9436L20.0336 27.94H20.0716H20.1596C20.2176 27.94 20.2776 27.94 20.3396 27.94H41.8996C42.0236 27.9396 42.1474 27.9289 42.2696 27.908C42.3411 27.8959 42.4119 27.8798 42.4816 27.86C42.6979 27.803 42.8966 27.6931 43.0596 27.54L43.1076 27.484C43.1216 27.466 43.1356 27.446 43.1476 27.428C43.16 27.4086 43.1714 27.3886 43.1816 27.368C43.2032 27.3236 43.2187 27.2765 43.2276 27.228C43.2293 27.2 43.2293 27.1719 43.2276 27.144C43.2279 27.1117 43.2312 27.0796 43.2376 27.048V27.026C43.245 26.9951 43.255 26.965 43.2676 26.936V26.924C43.2798 26.8977 43.2939 26.8723 43.3096 26.848L43.3236 26.826C43.3426 26.7986 43.3633 26.7726 43.3856 26.748L43.4016 26.73C43.4238 26.7068 43.4471 26.6847 43.4716 26.664L43.4856 26.652L43.5276 26.622L43.6136 26.564L43.6736 26.53L43.7496 26.492L43.8316 26.456L43.8956 26.432L43.9896 26.4H44.0016L44.0856 26.378C44.1176 26.378 44.1516 26.36 44.1856 26.356H44.2196L44.3516 26.338H44.4176C44.4716 26.338 44.5276 26.338 44.5836 26.338H44.8996C45.097 26.3386 45.2936 26.3116 45.4836 26.258C45.9476 26.126 46.2696 25.84 46.2696 25.51V18.432C46.2636 17.974 45.6496 17.604 44.8996 17.604Z" fill="white" stroke="#000062" stroke-miterlimit="10"/>
<path d="M31.1299 15.948V18.106V25.862V28.02" stroke="#000062" stroke-miterlimit="10"/>
<path d="M22.6157 15.948V28.02" stroke="#000062" stroke-miterlimit="10"/>
<path d="M39.644 15.948V28.02" stroke="#000062" stroke-miterlimit="10"/>
<path d="M14.3487 43.2461C14.6137 43.2461 14.8287 43.0312 14.8287 42.7661C14.8287 42.501 14.6137 42.2861 14.3487 42.2861C14.0836 42.2861 13.8687 42.501 13.8687 42.7661C13.8687 43.0312 14.0836 43.2461 14.3487 43.2461Z" fill="#000062"/>
<path d="M25.6313 15.948V19.996" stroke="#000062" stroke-miterlimit="10"/>
<path d="M25.6313 20.8621V21.8301" stroke="#000062" stroke-miterlimit="10"/>
</svg>
