<svg width="56" height="56" viewBox="0 0 56 56" fill="none" xmlns="http://www.w3.org/2000/svg">
<path d="M13.9883 44V46.21C13.988 46.3734 14.02 46.5353 14.0824 46.6864C14.1449 46.8374 14.2365 46.9747 14.3521 47.0902C14.4676 47.2058 14.6049 47.2974 14.7559 47.3599C14.907 47.4223 15.0688 47.4543 15.2323 47.454H39.7263C40.0562 47.454 40.3726 47.3229 40.6059 47.0897C40.8392 46.8564 40.9703 46.5399 40.9703 46.21V14.504C40.9698 14.1742 40.8385 13.8581 40.6053 13.625C40.3722 13.3918 40.0561 13.2605 39.7263 13.26H15.2323C14.9024 13.26 14.5859 13.3911 14.3526 13.6244C14.1193 13.8577 13.9883 14.1741 13.9883 14.504V37.654" stroke="#1F268E" stroke-miterlimit="10"/>
<path d="M43.6282 13.26C44.3337 13.26 45.0103 13.5403 45.5091 14.0391C46.008 14.538 46.2882 15.2145 46.2882 15.92V22.982H40.9702V15.918C40.9707 15.2132 41.251 14.5375 41.7493 14.0391C42.2477 13.5407 42.9234 13.2605 43.6282 13.26Z" stroke="#1F268E" stroke-miterlimit="10"/>
<path d="M37.8203 13.26H43.6283" stroke="#1F268E" stroke-miterlimit="10"/>
<path d="M18.6123 20.448H36.3443" stroke="#1F268E" stroke-miterlimit="10"/>
<path d="M18.6123 24.5481H36.3443" stroke="#1F268E" stroke-miterlimit="10"/>
<path d="M18.6123 28.6479H36.3443" stroke="#1F268E" stroke-miterlimit="10"/>
<path d="M28.1543 42.748H36.8543" stroke="#1F268E" stroke-miterlimit="10"/>
<path d="M28.1543 39.448L30.5543 38.578C30.8903 38.4565 31.2582 38.4555 31.5949 38.5752C31.9316 38.6948 32.2163 38.9277 32.4003 39.234C32.509 39.4147 32.6537 39.5712 32.8253 39.6937C32.9969 39.8163 33.1918 39.9024 33.398 39.9466C33.6042 39.9908 33.8173 39.9923 34.0241 39.9509C34.2309 39.9095 34.427 39.8262 34.6003 39.706L36.8463 38.146" stroke="#1F268E" stroke-miterlimit="10"/>
<path d="M13.9882 41.504C14.3317 41.504 14.6102 41.2255 14.6102 40.882C14.6102 40.5385 14.3317 40.26 13.9882 40.26C13.6447 40.26 13.3662 40.5385 13.3662 40.882C13.3662 41.2255 13.6447 41.504 13.9882 41.504Z" fill="#212683"/>
<path d="M19.1302 15.2881H16.5802C16.4741 15.2881 16.3723 15.3302 16.2973 15.4052C16.2223 15.4803 16.1802 15.582 16.1802 15.6881V18.1381" stroke="#1F268E" stroke-miterlimit="10"/>
</svg>
