<svg width="56" height="56" viewBox="0 0 56 56" fill="none" xmlns="http://www.w3.org/2000/svg">
<path d="M9.05469 17.441V6.793C9.05469 6.64342 9.11411 6.49997 9.21988 6.3942C9.32565 6.28843 9.46911 6.229 9.61869 6.229H44.4187C44.5683 6.229 44.7117 6.28843 44.8175 6.3942C44.9233 6.49997 44.9827 6.64342 44.9827 6.793V17.441" fill="white"/>
<path d="M9.05469 17.441V6.793C9.05469 6.64342 9.11411 6.49997 9.21988 6.3942C9.32565 6.28843 9.46911 6.229 9.61869 6.229H44.4187C44.5683 6.229 44.7117 6.28843 44.8175 6.3942C44.9233 6.49997 44.9827 6.64342 44.9827 6.793V17.441" stroke="#000062" stroke-miterlimit="10"/>
<path d="M41.8182 17.4411V11.9331C41.8182 11.4851 41.2182 11.1331 40.4802 11.1331H40.2262C40.1722 11.1331 40.1182 11.1331 40.0662 11.1331H40.0022C39.9586 11.1293 39.9152 11.1233 39.8722 11.1151H39.8522H39.8342H39.8222C39.7587 11.1026 39.6959 11.0866 39.6342 11.0671C39.5822 11.0511 39.5322 11.0331 39.4842 11.0131L39.4462 10.9951C39.4062 10.9771 39.3682 10.9591 39.3322 10.9391L39.3002 10.9191C39.262 10.8968 39.2253 10.872 39.1902 10.8451L39.1742 10.8331L39.1402 10.8031L39.0942 10.7611L39.0642 10.7311C39.045 10.7087 39.0269 10.6854 39.0102 10.6611L38.9902 10.6311C38.9767 10.6113 38.9647 10.5906 38.9542 10.5691C38.9517 10.5614 38.9484 10.554 38.9442 10.5471C38.9328 10.5198 38.9235 10.4917 38.9162 10.4631C38.9153 10.4551 38.9153 10.4471 38.9162 10.4391C38.9132 10.4078 38.9132 10.3764 38.9162 10.3451C38.9183 10.3178 38.9183 10.2904 38.9162 10.2631C38.9077 10.2191 38.8943 10.1761 38.8762 10.1351V10.1211C38.8762 10.1051 38.8582 10.0891 38.8482 10.0731L38.8362 10.0511L38.8062 10.0091L38.7842 9.9831L38.7542 9.9471L38.7182 9.9131L38.6922 9.8891C38.6731 9.87136 38.6531 9.85467 38.6322 9.8391H38.6222C38.5954 9.81817 38.5673 9.7988 38.5382 9.7811C38.4741 9.74406 38.4072 9.71197 38.3382 9.6851H38.3242L38.2342 9.6511H38.2082L38.1222 9.6271H38.0922L38.0062 9.6071H37.9722L37.8842 9.5931H37.8462H37.7602C37.7016 9.59006 37.6428 9.59006 37.5842 9.5931H16.4862C16.3656 9.59273 16.2451 9.60276 16.1262 9.6231C16.0542 9.6371 15.9842 9.6531 15.9262 9.6711C15.7152 9.72755 15.5214 9.83543 15.3622 9.9851C15.3452 10.0022 15.3292 10.0202 15.3142 10.0391C15.2998 10.0569 15.2864 10.0756 15.2742 10.0951L15.2422 10.1531C15.2216 10.197 15.2068 10.2434 15.1982 10.2911C15.1962 10.3184 15.1962 10.3458 15.1982 10.3731C15.2013 10.4044 15.2013 10.4358 15.1982 10.4671V10.4891C15.1919 10.5193 15.1825 10.5488 15.1702 10.5771V10.5891C15.1582 10.6148 15.1441 10.6396 15.1282 10.6631L15.1162 10.6851C15.0962 10.7111 15.0762 10.7371 15.0542 10.7611L15.0382 10.7791C15.0163 10.8019 14.9929 10.8233 14.9682 10.8431L14.9562 10.8551L14.9142 10.8851L14.8322 10.9411L14.7722 10.9731L14.6982 11.0111C14.6725 11.0251 14.6458 11.0372 14.6182 11.0471L14.5542 11.0711L14.4642 11.1011H14.4522L14.3682 11.1211L14.2722 11.1431H14.2402L14.1102 11.1611H14.0462C13.9915 11.1611 13.9375 11.1611 13.8842 11.1611H13.5602C13.3667 11.1609 13.1742 11.1878 12.9882 11.2411C12.5342 11.3711 12.2202 11.6411 12.2202 11.9711V17.4411" fill="white"/>
<path d="M41.8182 17.4411V11.9331C41.8182 11.4851 41.2182 11.1331 40.4802 11.1331H40.2262C40.1722 11.1331 40.1182 11.1331 40.0662 11.1331H40.0022C39.9586 11.1293 39.9152 11.1233 39.8722 11.1151H39.8522H39.8342H39.8222C39.7587 11.1026 39.6959 11.0866 39.6342 11.0671C39.5822 11.0511 39.5322 11.0331 39.4842 11.0131L39.4462 10.9951C39.4062 10.9771 39.3682 10.9591 39.3322 10.9391L39.3002 10.9191C39.262 10.8968 39.2253 10.872 39.1902 10.8451L39.1742 10.8331L39.1402 10.8031L39.0942 10.7611L39.0642 10.7311C39.045 10.7087 39.0269 10.6854 39.0102 10.6611L38.9902 10.6311C38.9767 10.6113 38.9647 10.5906 38.9542 10.5691C38.9517 10.5614 38.9484 10.554 38.9442 10.5471C38.9328 10.5198 38.9235 10.4917 38.9162 10.4631C38.9153 10.4551 38.9153 10.4471 38.9162 10.4391C38.9132 10.4078 38.9132 10.3764 38.9162 10.3451C38.9183 10.3178 38.9183 10.2904 38.9162 10.2631C38.9077 10.2191 38.8943 10.1761 38.8762 10.1351V10.1211C38.8762 10.1051 38.8582 10.0891 38.8482 10.0731L38.8362 10.0511L38.8062 10.0091L38.7842 9.9831L38.7542 9.9471L38.7182 9.9131L38.6922 9.8891C38.6731 9.87136 38.6531 9.85467 38.6322 9.8391H38.6222C38.5954 9.81817 38.5673 9.7988 38.5382 9.7811C38.4741 9.74406 38.4072 9.71197 38.3382 9.6851H38.3242L38.2342 9.6511H38.2082L38.1222 9.6271H38.0922L38.0062 9.6071H37.9722L37.8842 9.5931H37.8462H37.7602C37.7016 9.59006 37.6428 9.59006 37.5842 9.5931H16.4862C16.3656 9.59273 16.2451 9.60276 16.1262 9.6231C16.0542 9.6371 15.9842 9.6531 15.9262 9.6711C15.7152 9.72755 15.5214 9.83543 15.3622 9.9851C15.3452 10.0022 15.3292 10.0202 15.3142 10.0391C15.2998 10.0569 15.2864 10.0756 15.2742 10.0951L15.2422 10.1531C15.2216 10.197 15.2068 10.2434 15.1982 10.2911C15.1962 10.3184 15.1962 10.3458 15.1982 10.3731C15.2013 10.4044 15.2013 10.4358 15.1982 10.4671V10.4891C15.1919 10.5193 15.1825 10.5488 15.1702 10.5771V10.5891C15.1582 10.6148 15.1441 10.6396 15.1282 10.6631L15.1162 10.6851C15.0962 10.7111 15.0762 10.7371 15.0542 10.7611L15.0382 10.7791C15.0163 10.8019 14.9929 10.8233 14.9682 10.8431L14.9562 10.8551L14.9142 10.8851L14.8322 10.9411L14.7722 10.9731L14.6982 11.0111C14.6725 11.0251 14.6458 11.0372 14.6182 11.0471L14.5542 11.0711L14.4642 11.1011H14.4522L14.3682 11.1211L14.2722 11.1431H14.2402L14.1102 11.1611H14.0462C13.9915 11.1611 13.9375 11.1611 13.8842 11.1611H13.5602C13.3667 11.1609 13.1742 11.1878 12.9882 11.2411C12.5342 11.3711 12.2202 11.6411 12.2202 11.9711V17.4411" stroke="#000062" stroke-miterlimit="10"/>
<path d="M27.0205 9.50513V11.6151V15.3711V17.4411" stroke="#000062" stroke-miterlimit="10"/>
<path d="M18.6924 17.4411V9.50513" stroke="#000062" stroke-miterlimit="10"/>
<path d="M35.3472 17.4411V9.50513" stroke="#000062" stroke-miterlimit="10"/>
<path d="M46.6206 34.5831V43.8911C46.6206 44.1563 46.5152 44.4107 46.3277 44.5982C46.1402 44.7857 45.8858 44.8911 45.6206 44.8911H8.4126C8.14738 44.8911 7.89303 44.7857 7.70549 44.5982C7.51795 44.4107 7.4126 44.1563 7.4126 43.8911V18.4331C7.4126 18.1679 7.51795 17.9135 7.70549 17.726C7.89303 17.5385 8.14738 17.4331 8.4126 17.4331H45.6266C45.8918 17.4331 46.1462 17.5385 46.3337 17.726C46.5212 17.9135 46.6266 18.1679 46.6266 18.4331V27.7411" fill="white"/>
<path d="M46.6206 34.5831V43.8911C46.6206 44.1563 46.5152 44.4107 46.3277 44.5982C46.1402 44.7857 45.8858 44.8911 45.6206 44.8911H8.4126C8.14738 44.8911 7.89303 44.7857 7.70549 44.5982C7.51795 44.4107 7.4126 44.1563 7.4126 43.8911V18.4331C7.4126 18.1679 7.51795 17.9135 7.70549 17.726C7.89303 17.5385 8.14738 17.4331 8.4126 17.4331H45.6266C45.8918 17.4331 46.1462 17.5385 46.3337 17.726C46.5212 17.9135 46.6266 18.1679 46.6266 18.4331V27.7411" stroke="#000062" stroke-miterlimit="10"/>
<path d="M48.4164 27.7432H36.5864C36.3798 27.7432 36.2124 27.9106 36.2124 28.1172V34.2112C36.2124 34.4177 36.3798 34.5852 36.5864 34.5852H48.4164C48.623 34.5852 48.7904 34.4177 48.7904 34.2112V28.1172C48.7904 27.9106 48.623 27.7432 48.4164 27.7432Z" fill="white" stroke="#000062" stroke-miterlimit="10"/>
<path d="M39.3667 31.953C39.803 31.953 40.1567 31.5994 40.1567 31.163C40.1567 30.7267 39.803 30.373 39.3667 30.373C38.9304 30.373 38.5767 30.7267 38.5767 31.163C38.5767 31.5994 38.9304 31.953 39.3667 31.953Z" fill="#000062"/>
<path d="M7.42041 21.479H46.6204" stroke="#000062" stroke-miterlimit="10"/>
<path d="M46.6186 40.8491H15.1206" stroke="#000062" stroke-miterlimit="10"/>
<path d="M12.2204 40.8491H7.42041" stroke="#000062" stroke-miterlimit="10"/>
<path d="M13.7207 41.3291C13.9858 41.3291 14.2007 41.1142 14.2007 40.8491C14.2007 40.584 13.9858 40.3691 13.7207 40.3691C13.4556 40.3691 13.2407 40.584 13.2407 40.8491C13.2407 41.1142 13.4556 41.3291 13.7207 41.3291Z" fill="#000062"/>
<path d="M24.4189 21.479V33.411" stroke="#000062" stroke-miterlimit="10"/>
<path d="M24.4189 34.585V36.611" stroke="#000062" stroke-miterlimit="10"/>
</svg>
