<svg width="56" height="56" viewBox="0 0 56 56" fill="none" xmlns="http://www.w3.org/2000/svg">
<path d="M39.2471 28.2739H44.7791C45.079 28.2739 45.3666 28.155 45.5789 27.9431C45.7911 27.7312 45.9106 27.4438 45.9111 27.1439V19.6219C45.9106 19.3221 45.7911 19.0347 45.5789 18.8228C45.3666 18.6109 45.079 18.4919 44.7791 18.4919H11.3351C11.0352 18.4919 10.7476 18.6109 10.5354 18.8228C10.3232 19.0347 10.2037 19.3221 10.2031 19.6219V27.1419C10.2031 27.4422 10.3224 27.7301 10.5347 27.9424C10.747 28.1547 11.0349 28.2739 11.3351 28.2739H16.8691" fill="white"/>
<path d="M39.2471 28.2739H44.7791C45.079 28.2739 45.3666 28.155 45.5789 27.9431C45.7911 27.7312 45.9106 27.4438 45.9111 27.1439V19.6219C45.9106 19.3221 45.7911 19.0347 45.5789 18.8228C45.3666 18.6109 45.079 18.4919 44.7791 18.4919H11.3351C11.0352 18.4919 10.7476 18.6109 10.5354 18.8228C10.3232 19.0347 10.2037 19.3221 10.2031 19.6219V27.1419C10.2031 27.4422 10.3224 27.7301 10.5347 27.9424C10.747 28.1547 11.0349 28.2739 11.3351 28.2739H16.8691" stroke="#000062" stroke-miterlimit="10"/>
<path d="M30.4591 12.6001H31.8591C32.7234 12.6022 33.5515 12.947 34.1619 13.5589C34.7723 14.1708 35.1151 14.9998 35.1151 15.8641V18.4941H20.9971V15.8641C20.9971 14.9984 21.341 14.1682 21.9531 13.5561C22.5652 12.944 23.3954 12.6001 24.2611 12.6001H25.6611" fill="white"/>
<path d="M30.4591 12.6001H31.8591C32.7234 12.6022 33.5515 12.947 34.1619 13.5589C34.7723 14.1708 35.1151 14.9998 35.1151 15.8641V18.4941H20.9971V15.8641C20.9971 14.9984 21.341 14.1682 21.9531 13.5561C22.5652 12.944 23.3954 12.6001 24.2611 12.6001H25.6611" stroke="#000062" stroke-miterlimit="10"/>
<path d="M39.2468 28.2739H42.3908C42.691 28.2739 42.979 28.3932 43.1913 28.6055C43.4036 28.8178 43.5228 29.1057 43.5228 29.4059V42.8439C43.5223 43.1438 43.4028 43.4312 43.1906 43.6431C42.9783 43.8549 42.6907 43.9739 42.3908 43.9739H13.7228C13.4229 43.9739 13.1353 43.8549 12.9231 43.6431C12.7108 43.4312 12.5914 43.1438 12.5908 42.8439V29.4059C12.5913 29.1059 12.7108 28.8182 12.923 28.6061C13.1351 28.3939 13.4228 28.2745 13.7228 28.2739H16.8688" fill="white"/>
<path d="M39.2468 28.2739H42.3908C42.691 28.2739 42.979 28.3932 43.1913 28.6055C43.4036 28.8178 43.5228 29.1057 43.5228 29.4059V42.8439C43.5223 43.1438 43.4028 43.4312 43.1906 43.6431C42.9783 43.8549 42.6907 43.9739 42.3908 43.9739H13.7228C13.4229 43.9739 13.1353 43.8549 12.9231 43.6431C12.7108 43.4312 12.5914 43.1438 12.5908 42.8439V29.4059C12.5913 29.1059 12.7108 28.8182 12.923 28.6061C13.1351 28.3939 13.4228 28.2745 13.7228 28.2739H16.8688" stroke="#000062" stroke-miterlimit="10"/>
<path d="M36.3784 28.2739H19.7344" stroke="#000062" stroke-miterlimit="10"/>
<path d="M36.3784 28.2739H19.7344" stroke="#000062" stroke-miterlimit="10"/>
<path d="M18.7871 24.9561H17.8171C17.2936 24.9561 16.8691 25.3805 16.8691 25.9041V30.6421C16.8691 31.1656 17.2936 31.5901 17.8171 31.5901H18.7871C19.3107 31.5901 19.7351 31.1656 19.7351 30.6421V25.9041C19.7351 25.3805 19.3107 24.9561 18.7871 24.9561Z" fill="white" stroke="#000062" stroke-miterlimit="10"/>
<path d="M38.2964 24.9561H37.3264C36.8029 24.9561 36.3784 25.3805 36.3784 25.9041V30.6421C36.3784 31.1656 36.8029 31.5901 37.3264 31.5901H38.2964C38.82 31.5901 39.2444 31.1656 39.2444 30.6421V25.9041C39.2444 25.3805 38.82 24.9561 38.2964 24.9561Z" fill="white" stroke="#000062" stroke-miterlimit="10"/>
<path d="M10.2002 21.7581H45.9102" stroke="#000062" stroke-miterlimit="10"/>
<path d="M28.0551 13.2C28.3864 13.2 28.6551 12.9314 28.6551 12.6C28.6551 12.2686 28.3864 12 28.0551 12C27.7237 12 27.4551 12.2686 27.4551 12.6C27.4551 12.9314 27.7237 13.2 28.0551 13.2Z" fill="#000062"/>
<path d="M15.0425 38.354V41.154C15.0425 41.2866 15.0952 41.4138 15.1889 41.5076C15.2827 41.6013 15.4099 41.654 15.5425 41.654H18.1345" stroke="#000062" stroke-miterlimit="10"/>
</svg>
