<svg width="56" height="56" viewBox="0 0 56 56" fill="none" xmlns="http://www.w3.org/2000/svg">
<path d="M37.0539 23.2761L36.0539 24.2761C35.7055 24.6248 35.4543 25.0585 35.3252 25.5342C35.1961 26.0099 35.1936 26.5111 35.3179 26.9881L38.7999 40.2821C38.9787 40.9669 38.9754 41.6865 38.7901 42.3696C38.6049 43.0527 38.2442 43.6755 37.7439 44.1761L36.5099 45.4001L30.3399 32.7781C30.2415 32.5808 30.098 32.4095 29.9209 32.2782C29.7438 32.1469 29.5383 32.0593 29.3209 32.0224C29.1036 31.9856 28.8806 32.0006 28.6702 32.0662C28.4597 32.1318 28.2677 32.2462 28.1099 32.4001L22.7099 37.8001C22.4598 38.05 22.2734 38.3562 22.1662 38.6931C22.059 39.03 22.0342 39.3876 22.0939 39.7361L22.6559 43.0401L20.6559 45.0401L17.3459 38.8821L11.1739 35.5801L13.1739 33.5801L16.4779 34.1421C16.826 34.2011 17.1832 34.1759 17.5196 34.0688C17.8561 33.9616 18.162 33.7755 18.4119 33.5261L23.8119 28.1261C23.9685 27.9698 24.0854 27.7784 24.153 27.5678C24.2206 27.3571 24.2369 27.1334 24.2005 26.9152C24.1641 26.697 24.0761 26.4907 23.9438 26.3134C23.8115 26.1361 23.6387 25.993 23.4399 25.8961L10.8179 19.7161L12.0499 18.4841C12.5504 17.9836 13.1731 17.6228 13.8563 17.4375C14.5394 17.2523 15.2591 17.249 15.9439 17.4281L29.2399 20.9101C29.7169 21.0344 30.218 21.0319 30.6938 20.9028C31.1695 20.7737 31.6032 20.5225 31.9519 20.1741L38.7259 13.4001C39.201 12.9254 39.8452 12.6587 40.5169 12.6587C41.1885 12.6587 41.8327 12.9254 42.3079 13.4001L42.8279 13.9201C43.0632 14.1554 43.2499 14.4348 43.3773 14.7422C43.5047 15.0497 43.5703 15.3793 43.5703 15.7121C43.5703 16.0449 43.5047 16.3744 43.3773 16.6819C43.2499 16.9894 43.0632 17.2688 42.8279 17.5041L41.4279 18.9041" stroke="#212683" stroke-miterlimit="10"/>
<path d="M39.597 21.8284C39.8867 21.5386 39.8867 21.0688 39.597 20.779C39.3072 20.4893 38.8374 20.4893 38.5476 20.779C38.2579 21.0688 38.2579 21.5386 38.5476 21.8284C38.8374 22.1182 39.3072 22.1182 39.597 21.8284Z" fill="#212683"/>
<path d="M31.9519 20.1741L27.1899 24.9381" stroke="#212683" stroke-miterlimit="10"/>
<path d="M26.6601 25.468L25.9761 26.152" stroke="#212683" stroke-miterlimit="10"/>
</svg>
