<svg width="56" height="56" viewBox="0 0 56 56" fill="none" xmlns="http://www.w3.org/2000/svg">
<path d="M32.4058 13.5901H14.9258" stroke="#212683" stroke-miterlimit="10"/>
<path d="M32.452 37.8359H16.46" stroke="#212683" stroke-miterlimit="10"/>
<path d="M10.2599 37.8361H8.72391C8.22902 37.8361 7.75439 37.6395 7.40445 37.2895C7.05451 36.9396 6.85791 36.465 6.85791 35.9701V15.4561C6.85791 14.9612 7.05451 14.4866 7.40445 14.1366C7.75439 13.7867 8.22902 13.5901 8.72391 13.5901H11.1999" stroke="#212683" stroke-miterlimit="10"/>
<path d="M36.1401 13.5901H38.6001C39.095 13.5901 39.5697 13.7867 39.9196 14.1366C40.2695 14.4866 40.4661 14.9612 40.4661 15.4561V26.0001" stroke="#212683" stroke-miterlimit="10"/>
<path d="M13.0618 9.72998H13.0598C12.0293 9.72998 11.1938 10.5654 11.1938 11.596V15.582C11.1938 16.6125 12.0293 17.448 13.0598 17.448H13.0618C14.0924 17.448 14.9278 16.6125 14.9278 15.582V11.596C14.9278 10.5654 14.0924 9.72998 13.0618 9.72998Z" stroke="#212683" stroke-miterlimit="10"/>
<path d="M34.2738 9.72998H34.2718C33.2412 9.72998 32.4058 10.5654 32.4058 11.596V15.582C32.4058 16.6125 33.2412 17.448 34.2718 17.448H34.2738C35.3043 17.448 36.1398 16.6125 36.1398 15.582V11.596C36.1398 10.5654 35.3043 9.72998 34.2738 9.72998Z" stroke="#212683" stroke-miterlimit="10"/>
<path d="M14.6381 20.8479H11.2961C11.1878 20.8479 11.1001 20.9357 11.1001 21.0439V24.0519C11.1001 24.1601 11.1878 24.2479 11.2961 24.2479H14.6381C14.7463 24.2479 14.8341 24.1601 14.8341 24.0519V21.0439C14.8341 20.9357 14.7463 20.8479 14.6381 20.8479Z" stroke="#212683" stroke-miterlimit="10"/>
<path d="M21.7719 20.8479H18.4299C18.3216 20.8479 18.2339 20.9357 18.2339 21.0439V24.0519C18.2339 24.1601 18.3216 24.2479 18.4299 24.2479H21.7719C21.8801 24.2479 21.9679 24.1601 21.9679 24.0519V21.0439C21.9679 20.9357 21.8801 20.8479 21.7719 20.8479Z" stroke="#212683" stroke-miterlimit="10"/>
<path d="M28.9037 20.8479H25.5617C25.4535 20.8479 25.3657 20.9357 25.3657 21.0439V24.0519C25.3657 24.1601 25.4535 24.2479 25.5617 24.2479H28.9037C29.012 24.2479 29.0997 24.1601 29.0997 24.0519V21.0439C29.0997 20.9357 29.012 20.8479 28.9037 20.8479Z" stroke="#212683" stroke-miterlimit="10"/>
<path d="M36.038 20.8479H32.696C32.5878 20.8479 32.5 20.9357 32.5 21.0439V24.0519C32.5 24.1601 32.5878 24.2479 32.696 24.2479H36.038C36.1462 24.2479 36.234 24.1601 36.234 24.0519V21.0439C36.234 20.9357 36.1462 20.8479 36.038 20.8479Z" stroke="#212683" stroke-miterlimit="10"/>
<path d="M14.6381 29.6479H11.2961C11.1878 29.6479 11.1001 29.7357 11.1001 29.8439V32.852C11.1001 32.9602 11.1878 33.0479 11.2961 33.0479H14.6381C14.7463 33.0479 14.8341 32.9602 14.8341 32.852V29.8439C14.8341 29.7357 14.7463 29.6479 14.6381 29.6479Z" stroke="#212683" stroke-miterlimit="10"/>
<path d="M21.7719 29.6479H18.4299C18.3216 29.6479 18.2339 29.7357 18.2339 29.8439V32.852C18.2339 32.9602 18.3216 33.0479 18.4299 33.0479H21.7719C21.8801 33.0479 21.9679 32.9602 21.9679 32.852V29.8439C21.9679 29.7357 21.8801 29.6479 21.7719 29.6479Z" stroke="#212683" stroke-miterlimit="10"/>
<path d="M28.9037 29.6479H25.5617C25.4535 29.6479 25.3657 29.7357 25.3657 29.8439V32.852C25.3657 32.9602 25.4535 33.0479 25.5617 33.0479H28.9037C29.012 33.0479 29.0997 32.9602 29.0997 32.852V29.8439C29.0997 29.7357 29.012 29.6479 28.9037 29.6479Z" stroke="#212683" stroke-miterlimit="10"/>
<path d="M36.038 29.6479H32.696C32.5878 29.6479 32.5 29.7357 32.5 29.8439V32.852C32.5 32.9602 32.5878 33.0479 32.696 33.0479H36.038C36.1462 33.0479 36.234 32.9602 36.234 32.852V29.8439C36.234 29.7357 36.1462 29.6479 36.038 29.6479Z" stroke="#212683" stroke-miterlimit="10"/>
<path d="M51.8101 40.8259V39.8399C51.8101 39.4399 51.7055 39.0469 51.5065 38.6999C51.3076 38.3529 51.0213 38.064 50.6761 37.8619L43.9701 33.9379C43.728 33.7981 43.5267 33.5974 43.3864 33.3556C43.246 33.1138 43.1715 32.8395 43.1701 32.5599V27.1439C43.1701 26.7641 43.0192 26.3999 42.7507 26.1313C42.4821 25.8628 42.1179 25.7119 41.7381 25.7119H41.3241C40.9443 25.7119 40.5801 25.8628 40.3115 26.1313C40.043 26.3999 39.8921 26.7641 39.8921 27.1439V32.5599C39.8908 32.8395 39.8162 33.1138 39.6758 33.3556C39.5355 33.5974 39.3342 33.7981 39.0921 33.9379L32.4001 37.8619C32.0549 38.064 31.7687 38.3529 31.5697 38.6999C31.3708 39.0469 31.2661 39.4399 31.2661 39.8399V40.8239L38.7801 38.2419C38.8983 38.2016 39.0244 38.1899 39.1479 38.208C39.2715 38.2261 39.389 38.2734 39.4906 38.3459C39.5923 38.4184 39.6752 38.5141 39.7325 38.6251C39.7898 38.736 39.8198 38.859 39.8201 38.9839V43.3059C39.8201 43.5058 39.7721 43.7027 39.6802 43.8801C39.5883 44.0576 39.4553 44.2105 39.2921 44.3259L37.7461 45.4219V47.0219L41.5341 45.8759L45.3221 47.0219V45.4219L43.7761 44.3259C43.613 44.2105 43.4799 44.0576 43.388 43.8801C43.2962 43.7027 43.2482 43.5058 43.2481 43.3059V38.9859C43.2484 38.861 43.2784 38.738 43.3357 38.6271C43.393 38.5161 43.476 38.4204 43.5776 38.3479C43.6793 38.2754 43.7967 38.2281 43.9203 38.21C44.0438 38.1919 44.1699 38.2036 44.2881 38.2439L51.8101 40.8259Z" stroke="#212683" stroke-miterlimit="10"/>
<path d="M13.24 38.4139C13.6498 38.4139 13.982 38.0817 13.982 37.6719C13.982 37.2621 13.6498 36.9299 13.24 36.9299C12.8303 36.9299 12.498 37.2621 12.498 37.6719C12.498 38.0817 12.8303 38.4139 13.24 38.4139Z" fill="#212683"/>
</svg>
