<svg width="56" height="56" viewBox="0 0 56 56" fill="none" xmlns="http://www.w3.org/2000/svg">
<path d="M18.3078 46.4861C15.0628 45.9345 12.0222 44.5316 9.4966 42.4207C6.97098 40.3098 5.05076 37.5665 3.93201 34.4709C2.81325 31.3752 2.53603 28.0382 3.12864 24.8004C3.72126 21.5625 5.16249 18.54 7.30517 16.0413C9.44786 13.5426 12.2153 11.6572 15.3248 10.5778C18.4344 9.49827 21.7747 9.26331 25.0047 9.89686C28.2348 10.5304 31.2389 12.0098 33.7102 14.1839C36.1816 16.3581 38.0318 19.1491 39.0718 22.2721" stroke="#212683" stroke-miterlimit="10"/>
<path d="M24.5078 46.486C27.3322 46.0091 30.0084 44.8871 32.3284 43.2071C34.6484 41.5271 36.5495 39.3346 37.8838 36.8" stroke="#212683" stroke-miterlimit="10"/>
<path d="M35.5198 32.8821C36.6867 29.4186 36.5394 25.6469 35.1061 22.2848C33.6728 18.9227 31.0535 16.2049 27.7466 14.6486C24.4397 13.0922 20.676 12.8059 17.1717 13.8442C13.6674 14.8825 10.6672 17.1728 8.74184 20.2794C6.8165 23.386 6.10047 27.092 6.73 30.6923C7.35953 34.2925 9.29068 37.5356 12.156 39.8045C15.0213 42.0734 18.6207 43.2098 22.2694 42.9973C25.9181 42.7848 29.3613 41.2383 31.9438 38.6521" stroke="#212683" stroke-miterlimit="10"/>
<path d="M53.064 39.928V38.728C53.0656 38.2429 52.9396 37.7658 52.6988 37.3446C52.4581 36.9234 52.1109 36.5729 51.692 36.328L43.584 31.6C43.2931 31.4299 43.0518 31.1867 42.8841 30.8944C42.7163 30.6021 42.6281 30.271 42.628 29.934V23.388C42.628 22.9287 42.4456 22.4881 42.1208 22.1633C41.7959 21.8385 41.3554 21.656 40.896 21.656H40.4C39.9407 21.656 39.5001 21.8385 39.1753 22.1633C38.8505 22.4881 38.668 22.9287 38.668 23.388V29.936C38.668 30.273 38.5797 30.6041 38.412 30.8964C38.2443 31.1887 38.003 31.4319 37.712 31.602L29.6 36.346C29.1812 36.5909 28.834 36.9414 28.5932 37.3626C28.3525 37.7838 28.2265 38.2609 28.228 38.746V39.946L37.316 36.8C37.459 36.751 37.6116 36.7368 37.7612 36.7586C37.9108 36.7805 38.053 36.8377 38.176 36.9255C38.299 37.0133 38.3993 37.1292 38.4685 37.2636C38.5378 37.3979 38.5739 37.5469 38.574 37.698V42.922C38.5741 43.1637 38.5162 43.4019 38.4051 43.6166C38.2941 43.8313 38.1333 44.0163 37.936 44.156L36.068 45.482V47.418L40.648 46.032L45.228 47.418V45.482L43.36 44.156C43.1628 44.0163 43.0019 43.8313 42.8909 43.6166C42.7799 43.4019 42.722 43.1637 42.722 42.922V37.704C42.7222 37.5529 42.7583 37.4039 42.8276 37.2696C42.8968 37.1352 42.9971 37.0193 43.1201 36.9315C43.2431 36.8437 43.3853 36.7865 43.5349 36.7646C43.6844 36.7428 43.8371 36.757 43.98 36.806L53.064 39.928Z" stroke="#212683" stroke-miterlimit="10"/>
<path d="M21.5496 47.222C21.9594 47.222 22.2916 46.8898 22.2916 46.48C22.2916 46.0702 21.9594 45.738 21.5496 45.738C21.1398 45.738 20.8076 46.0702 20.8076 46.48C20.8076 46.8898 21.1398 47.222 21.5496 47.222Z" fill="#212683"/>
<rect x="14.4038" y="26.1265" width="14" height="4" rx="2" stroke="#212683" stroke-miterlimit="10"/>
</svg>
