<svg width="21" height="20" viewBox="0 0 21 20" fill="none" xmlns="http://www.w3.org/2000/svg">
<g id="Outlined/arrow-ios-down">
<path id="&#240;&#159;&#142;&#168; Icon &#208;&#161;olor" fill-rule="evenodd" clip-rule="evenodd" d="M10.6665 13.3334C10.4765 13.3334 10.2873 13.2692 10.1332 13.1401L5.13318 8.9734C4.77984 8.67923 4.73151 8.1534 5.02651 7.80007C5.32068 7.44673 5.84568 7.39923 6.19984 7.6934L10.6757 11.4234L15.144 7.82757C15.5023 7.53923 16.0273 7.5959 16.3157 7.95423C16.604 8.31257 16.5473 8.83673 16.189 9.1259L11.189 13.1492C11.0365 13.2717 10.8515 13.3334 10.6665 13.3334Z" fill="#64748B"/>
<mask id="mask0_7440_6414" style="mask-type:luminance" maskUnits="userSpaceOnUse" x="4" y="7" width="13" height="7">
<path id="&#240;&#159;&#142;&#168; Icon &#208;&#161;olor_2" fill-rule="evenodd" clip-rule="evenodd" d="M10.6665 13.3334C10.4765 13.3334 10.2873 13.2692 10.1332 13.1401L5.13318 8.9734C4.77984 8.67923 4.73151 8.1534 5.02651 7.80007C5.32068 7.44673 5.84568 7.39923 6.19984 7.6934L10.6757 11.4234L15.144 7.82757C15.5023 7.53923 16.0273 7.5959 16.3157 7.95423C16.604 8.31257 16.5473 8.83673 16.189 9.1259L11.189 13.1492C11.0365 13.2717 10.8515 13.3334 10.6665 13.3334Z" fill="white"/>
</mask>
<g mask="url(#mask0_7440_6414)">
</g>
</g>
</svg>
