<svg width="17" height="16" viewBox="0 0 17 16" fill="none" xmlns="http://www.w3.org/2000/svg">
<g id="Icon Start">
<path id="Icon" d="M2.86898 7.35181H4.12967C4.8456 7.35181 5.42597 7.93218 5.42597 8.64811V9.29626C5.42597 10.0122 6.00634 10.5926 6.72226 10.5926C7.43819 10.5926 8.01856 11.1729 8.01856 11.8888V13.7977M6.07411 2.77298V3.787C6.07411 4.6819 6.79958 5.40737 7.69449 5.40737H8.01856C8.73448 5.40737 9.31486 5.98774 9.31486 6.70366C9.31486 7.41959 9.89523 7.99996 10.6112 7.99996C11.3271 7.99996 11.9074 7.41959 11.9074 6.70366C11.9074 5.98774 12.4878 5.40737 13.2037 5.40737L13.8937 5.40737M10.6112 13.5014V11.8888C10.6112 11.1729 11.1915 10.5926 11.9074 10.5926H13.8937M14.5 7.99996C14.5 11.2216 11.8884 13.8333 8.66671 13.8333C5.44505 13.8333 2.83337 11.2216 2.83337 7.99996C2.83337 4.7783 5.44505 2.16663 8.66671 2.16663C11.8884 2.16663 14.5 4.7783 14.5 7.99996Z" stroke="#E11D48" stroke-width="1.16667" stroke-linecap="round" stroke-linejoin="round"/>
</g>
</svg>
