<svg width="51" height="51" viewBox="0 0 51 51" fill="none" xmlns="http://www.w3.org/2000/svg">
<g id="Group">
<path id="BG" d="M35.9725 13.3404C33.6841 12.815 31.2923 12.9658 29.0881 13.7745C29.0051 12.7178 28.7129 11.6881 28.2285 10.7453C27.7442 9.80247 27.0773 8.96528 26.2667 8.28236C25.4561 7.59944 24.5178 7.0844 23.5065 6.76716C22.4951 6.44991 21.4308 6.33679 20.3753 6.43436C19.3199 6.53193 18.2943 6.83825 17.3583 7.33552C16.4222 7.83278 15.5943 8.51109 14.9226 9.33104C14.2509 10.151 13.7488 11.0962 13.4455 12.1119C13.1422 13.1275 13.0437 14.1933 13.1558 15.2473C10.9985 15.251 8.88095 15.8278 7.01979 16.9187C5.15862 18.0096 3.6207 19.5754 2.56339 21.4558C1.50609 23.3362 0.967356 25.4638 1.00233 27.6208C1.03731 29.7778 1.64474 31.8868 2.76246 33.732C3.88018 35.5772 5.46807 37.0922 7.36362 38.1222C9.25917 39.1522 11.3943 39.66 13.5506 39.5938C15.7069 39.5276 17.8069 38.8897 19.6357 37.7453C21.4644 36.601 22.9564 34.9913 23.9587 33.0811C25.2056 34.5533 26.7844 35.7082 28.565 36.4507C30.3457 37.1932 32.2773 37.502 34.2007 37.3517C36.1241 37.2013 37.9843 36.5962 39.628 35.5861C41.2717 34.5759 42.6518 33.1897 43.6548 31.5417C44.6578 29.8936 45.2549 28.0308 45.3968 26.1068C45.5388 24.1828 45.2216 22.2525 44.4714 20.4751C43.7212 18.6977 42.5594 17.1239 41.0818 15.8835C39.6042 14.643 37.853 13.7714 35.9725 13.3404Z" fill="#DFE4FF"/>
<g id="shape-colored">
<g id="shape">
<path id="Vector" d="M10.238 25.7864C8.46342 24.0118 5.58664 24.0115 3.81248 25.7857C2.03833 27.5598 2.03865 30.4366 3.81319 32.2111L13.8357 42.2337C15.6103 44.0082 18.487 44.0085 20.2612 42.2344C22.0354 40.4602 22.035 37.5834 20.2605 35.8089L10.238 25.7864Z" fill="white" stroke="#000062" stroke-miterlimit="10"/>
<path id="Vector_2" d="M32.4084 3.61254C30.6338 1.838 27.757 1.83768 25.9829 3.61183C24.2087 5.38598 24.2091 8.26277 25.9836 10.0373L36.0061 20.0598C37.7807 21.8344 40.6575 21.8347 42.4316 20.0606C44.2058 18.2864 44.2054 15.4096 42.4309 13.6351L32.4084 3.61254Z" fill="white" stroke="#000062" stroke-miterlimit="10"/>
<path id="Vector_3" d="M10.238 25.7864C8.46342 24.0118 5.58664 24.0115 3.81248 25.7857C2.03833 27.5598 2.03865 30.4366 3.81319 32.2111L13.8357 42.2337C15.6103 44.0082 18.487 44.0085 20.2612 42.2344C22.0354 40.4602 22.035 37.5834 20.2605 35.8089L10.238 25.7864Z" fill="white" stroke="#000062" stroke-miterlimit="10"/>
<path id="Vector_4" d="M32.4084 3.61254C30.6338 1.838 27.757 1.83768 25.9829 3.61183C24.2087 5.38598 24.2091 8.26277 25.9836 10.0373L36.0061 20.0598C37.7807 21.8344 40.6575 21.8347 42.4316 20.0606C44.2058 18.2864 44.2054 15.4096 42.4309 13.6351L32.4084 3.61254Z" fill="white" stroke="#000062" stroke-miterlimit="10"/>
<g id="Vector_5">
<path d="M26.8031 23.1399L32.9451 16.9979L28.9531 13.0059L13.2031 28.7539L17.1971 32.7459L23.3391 26.6039" fill="white"/>
<path d="M26.8031 23.1399L32.9451 16.9979L28.9531 13.0059L13.2031 28.7539L17.1971 32.7459L23.3391 26.6039" stroke="#000062" stroke-miterlimit="10"/>
</g>
<path id="Vector_6" d="M3.35079 35.6582L4.8046 34.2044C4.937 34.072 5.11658 33.9976 5.30382 33.9976C5.49106 33.9976 5.67064 34.072 5.80304 34.2044L11.4161 39.8174C11.5485 39.9498 11.6228 40.1294 11.6228 40.3166C11.6228 40.5038 11.5485 40.6834 11.4161 40.8158L9.96224 42.2696C9.77152 42.4603 9.54504 42.6116 9.29579 42.7146C9.04653 42.8176 8.77938 42.8705 8.50967 42.8701C8.23995 42.8697 7.97297 42.8161 7.72401 42.7123C7.47505 42.6085 7.24902 42.4567 7.05886 42.2654L3.34655 38.5531C2.9621 38.1686 2.74612 37.6472 2.74612 37.1035C2.74612 36.5598 2.9621 36.0384 3.34655 35.6539L3.35079 35.6582Z" fill="white" stroke="#000062" stroke-miterlimit="10"/>
<path id="Vector_7" d="M42.4645 9.76207L41.0107 11.2159C40.8783 11.3483 40.6987 11.4227 40.5115 11.4227C40.3242 11.4227 40.1446 11.3483 40.0122 11.2159L34.3978 5.60145C34.2654 5.46905 34.191 5.28948 34.191 5.10223C34.191 4.91499 34.2654 4.73542 34.3978 4.60302L35.8516 3.14921C36.2361 2.76476 36.7575 2.54878 37.3012 2.54877C37.8449 2.54877 38.3663 2.76476 38.7508 3.14921L42.4673 6.86576C42.8505 7.25047 43.0655 7.7715 43.0649 8.3145C43.0644 8.8575 42.8485 9.37811 42.4645 9.76207Z" fill="white" stroke="#000062" stroke-miterlimit="10"/>
<path id="Vector_8" d="M3.81104 25.7871L20.259 42.2351" stroke="#000062" stroke-miterlimit="10"/>
<path id="Vector_9" d="M25.9844 3.61133L42.4324 20.0613" stroke="#000062" stroke-miterlimit="10"/>
<path id="Vector_10" d="M25.523 25.327C25.7737 25.0763 25.7737 24.6698 25.523 24.4191C25.2723 24.1684 24.8658 24.1684 24.6151 24.4191C24.3644 24.6698 24.3644 25.0763 24.6151 25.327C24.8658 25.5777 25.2723 25.5777 25.523 25.327Z" fill="#000062"/>
<path id="Vector_11" d="M15.2485 30.7978L26.1205 19.9238" stroke="#000062" stroke-miterlimit="10"/>
<path id="Vector_12" d="M27.1829 18.8633L28.3489 17.6953" stroke="#000062" stroke-miterlimit="10"/>
</g>
<g id="color-outline">
<path id="Vector_13" d="M10.238 25.7864C8.46342 24.0118 5.58664 24.0115 3.81248 25.7857C2.03833 27.5598 2.03865 30.4366 3.81319 32.2111L13.8357 42.2337C15.6103 44.0082 18.4871 44.0085 20.2612 42.2344C22.0354 40.4602 22.035 37.5834 20.2605 35.8089L10.238 25.7864Z" fill="white" stroke="#7F92FF" stroke-miterlimit="10"/>
<path id="Vector_14" d="M32.4084 3.61254C30.6338 1.838 27.757 1.83768 25.9829 3.61183C24.2087 5.38598 24.2091 8.26277 25.9836 10.0373L36.0061 20.0598C37.7807 21.8344 40.6575 21.8347 42.4316 20.0606C44.2058 18.2864 44.2054 15.4096 42.4309 13.6351L32.4084 3.61254Z" fill="white" stroke="#7F92FF" stroke-miterlimit="10"/>
<path id="Vector_15" d="M3.81104 25.7871L20.259 42.2351" stroke="#7F92FF" stroke-miterlimit="10"/>
<path id="Vector_16" d="M25.9844 3.61328L42.4324 20.0633" stroke="#7F92FF" stroke-miterlimit="10"/>
</g>
</g>
</g>
</svg>
