<svg width="21" height="20" viewBox="0 0 21 20" fill="none" xmlns="http://www.w3.org/2000/svg">
<g id="Icon Start" clip-path="url(#clip0_7305_16584)">
<path id="Icon" d="M9.29896 2.92664C9.59833 2.00537 10.9017 2.00538 11.201 2.92664L12.2708 6.21864C12.4047 6.63063 12.7886 6.90957 13.2218 6.90958L16.6833 6.90971C17.652 6.90975 18.0547 8.1493 17.2711 8.71871L14.4708 10.7534C14.1203 11.008 13.9737 11.4594 14.1075 11.8714L15.177 15.1635C15.4763 16.0847 14.4219 16.8508 13.6382 16.2815L10.8378 14.247C10.4873 13.9924 10.0127 13.9924 9.66225 14.247L6.86179 16.2815C6.07809 16.8508 5.02367 16.0847 5.32297 15.1635L6.39249 11.8714C6.52634 11.4594 6.3797 11.008 6.02924 10.7534L3.22894 8.71871C2.44528 8.1493 2.84804 6.90975 3.81672 6.90971L7.27818 6.90958C7.71137 6.90957 8.0953 6.63063 8.22918 6.21864L9.29896 2.92664Z" stroke="#8653E0" stroke-width="1.5"/>
</g>
<defs>
<clipPath id="clip0_7305_16584">
<rect width="20" height="20" fill="white" transform="translate(0.25)"/>
</clipPath>
</defs>
</svg>
