<svg width="25" height="24" viewBox="0 0 25 24" fill="none" xmlns="http://www.w3.org/2000/svg">
<g id="Icon/Outline/presentation-chart-line">
<path id="Icon" d="M4.5 4V3H3.5V4H4.5ZM20.5 4H21.5V3H20.5V4ZM6.79289 11.2929C6.40237 11.6834 6.40237 12.3166 6.79289 12.7071C7.18342 13.0976 7.81658 13.0976 8.20711 12.7071L6.79289 11.2929ZM10.5 9L11.2071 8.29289C10.8166 7.90237 10.1834 7.90237 9.79289 8.29289L10.5 9ZM13.5 12L12.7929 12.7071C13.1834 13.0976 13.8166 13.0976 14.2071 12.7071L13.5 12ZM18.2071 8.70711C18.5976 8.31658 18.5976 7.68342 18.2071 7.29289C17.8166 6.90237 17.1834 6.90237 16.7929 7.29289L18.2071 8.70711ZM7.79289 20.2929C7.40237 20.6834 7.40237 21.3166 7.79289 21.7071C8.18342 22.0976 8.81658 22.0976 9.20711 21.7071L7.79289 20.2929ZM12.5 17L13.2071 16.2929C12.8166 15.9024 12.1834 15.9024 11.7929 16.2929L12.5 17ZM15.7929 21.7071C16.1834 22.0976 16.8166 22.0976 17.2071 21.7071C17.5976 21.3166 17.5976 20.6834 17.2071 20.2929L15.7929 21.7071ZM3.5 3C2.94772 3 2.5 3.44772 2.5 4C2.5 4.55228 2.94772 5 3.5 5V3ZM21.5 5C22.0523 5 22.5 4.55228 22.5 4C22.5 3.44772 22.0523 3 21.5 3V5ZM4.5 5H20.5V3H4.5V5ZM19.5 4V16H21.5V4H19.5ZM19.5 16H5.5V18H19.5V16ZM5.5 16V4H3.5V16H5.5ZM5.5 16H3.5C3.5 17.1046 4.39543 18 5.5 18V16ZM19.5 16V18C20.6046 18 21.5 17.1046 21.5 16H19.5ZM8.20711 12.7071L11.2071 9.70711L9.79289 8.29289L6.79289 11.2929L8.20711 12.7071ZM9.79289 9.70711L12.7929 12.7071L14.2071 11.2929L11.2071 8.29289L9.79289 9.70711ZM14.2071 12.7071L18.2071 8.70711L16.7929 7.29289L12.7929 11.2929L14.2071 12.7071ZM9.20711 21.7071L13.2071 17.7071L11.7929 16.2929L7.79289 20.2929L9.20711 21.7071ZM11.7929 17.7071L15.7929 21.7071L17.2071 20.2929L13.2071 16.2929L11.7929 17.7071ZM3.5 5H21.5V3H3.5V5Z" fill="#1E293B"/>
</g>
</svg>
