<svg width="37" height="43" viewBox="0 0 37 43" fill="none" xmlns="http://www.w3.org/2000/svg">
<g id="shape-colored">
<g id="shape">
<path id="Vector" d="M33.3742 41.944H6.17416C5.62198 41.944 5.09242 41.7247 4.70197 41.3342C4.31151 40.9438 4.09216 40.4142 4.09216 39.862V11.062L11.3282 3.75604H33.6022C34.096 3.75604 34.5696 3.95222 34.9188 4.30141C35.268 4.6506 35.4642 5.12421 35.4642 5.61804V39.864C35.4639 40.138 35.4096 40.4091 35.3043 40.662C35.1991 40.9149 35.045 41.1446 34.8508 41.3378C34.6567 41.531 34.4263 41.684 34.1729 41.7881C33.9195 41.8921 33.6481 41.9451 33.3742 41.944Z" fill="white"/>
<path id="Vector_2" d="M30.4939 39.588H3.28195C2.72976 39.588 2.2002 39.3687 1.80975 38.9782C1.4193 38.5878 1.19995 38.0582 1.19995 37.506V8.70602L8.43595 1.40002H30.714C31.2078 1.40002 31.6814 1.5962 32.0306 1.94539C32.3798 2.29458 32.576 2.76819 32.576 3.26202V37.506C32.576 38.0582 32.3566 38.5878 31.9661 38.9782C31.5757 39.3687 31.0461 39.588 30.4939 39.588Z" fill="white" stroke="#000062" stroke-miterlimit="10"/>
<path id="Vector_3" d="M35.4642 17.4901V39.8421C35.4639 40.116 35.4096 40.3871 35.3043 40.64C35.1991 40.8929 35.045 41.1226 34.8508 41.3158C34.6567 41.509 34.4263 41.662 34.1729 41.7661C33.9195 41.8701 33.6481 41.9231 33.3742 41.922H6.17416C5.62232 41.922 5.09307 41.703 4.70267 41.313C4.31228 40.9229 4.09269 40.3939 4.09216 39.8421V39.588" stroke="#000062" stroke-miterlimit="10"/>
<path id="Vector_4" d="M32.5734 3.74201H33.6014C33.8458 3.74174 34.0879 3.78966 34.3138 3.88301C34.5397 3.97637 34.7449 4.11334 34.9179 4.28608C35.0908 4.45882 35.228 4.66395 35.3216 4.88975C35.4152 5.11554 35.4634 5.35758 35.4634 5.602V11.54" stroke="#000062" stroke-miterlimit="10"/>
<path id="Vector_5" d="M1.19995 8.71201H8.43595V1.40601" stroke="#000062" stroke-miterlimit="10"/>
<path id="Vector_6" d="M9.46696 12.506H6.60496C6.23713 12.506 5.93896 12.8042 5.93896 13.172V16.034C5.93896 16.4019 6.23713 16.7 6.60496 16.7H9.46696C9.83478 16.7 10.133 16.4019 10.133 16.034V13.172C10.133 12.8042 9.83478 12.506 9.46696 12.506Z" fill="white" stroke="#000062" stroke-miterlimit="10"/>
<path id="Vector_7" d="M9.46696 22.01H6.60496C6.23713 22.01 5.93896 22.3082 5.93896 22.676V25.538C5.93896 25.9058 6.23713 26.204 6.60496 26.204H9.46696C9.83478 26.204 10.133 25.9058 10.133 25.538V22.676C10.133 22.3082 9.83478 22.01 9.46696 22.01Z" fill="white" stroke="#000062" stroke-miterlimit="10"/>
<path id="Vector_8" d="M9.46696 31.512H6.60496C6.23713 31.512 5.93896 31.8102 5.93896 32.178V35.04C5.93896 35.4078 6.23713 35.706 6.60496 35.706H9.46696C9.83478 35.706 10.133 35.4078 10.133 35.04V32.178C10.133 31.8102 9.83478 31.512 9.46696 31.512Z" fill="white" stroke="#000062" stroke-miterlimit="10"/>
<path id="Vector_9" d="M13.6296 13.4041H29.3296" stroke="#000062" stroke-miterlimit="10"/>
<path id="Vector_10" d="M13.6296 15.954H21.4796" stroke="#000062" stroke-miterlimit="10"/>
<path id="Vector_11" d="M13.6296 22.832H29.3296" stroke="#000062" stroke-miterlimit="10"/>
<path id="Vector_12" d="M13.6296 25.382H21.4796" stroke="#000062" stroke-miterlimit="10"/>
<path id="Vector_13" d="M13.6296 32.26H29.3296" stroke="#000062" stroke-miterlimit="10"/>
<path id="Vector_14" d="M13.6296 34.81H21.4796" stroke="#000062" stroke-miterlimit="10"/>
<path id="Vector_15" d="M22.8296 15.954H25.5296" stroke="#000062" stroke-miterlimit="10"/>
<path id="Vector_16" d="M22.8296 25.382H25.5296" stroke="#000062" stroke-miterlimit="10"/>
<path id="Vector_17" d="M22.8296 34.81H25.5296" stroke="#000062" stroke-miterlimit="10"/>
<path id="Vector_18" d="M35.4639 15.192C35.8383 15.192 36.1419 14.8885 36.1419 14.514C36.1419 14.1396 35.8383 13.836 35.4639 13.836C35.0894 13.836 34.7859 14.1396 34.7859 14.514C34.7859 14.8885 35.0894 15.192 35.4639 15.192Z" fill="#000062"/>
<path id="Vector_19" d="M32.5736 5.80402H19.1296" stroke="#000062" stroke-miterlimit="10"/>
<path id="Vector_20" d="M14.9968 5.80402H17.5548" stroke="#000062" stroke-miterlimit="10"/>
</g>
<g id="color-outline">
<path id="Vector_21" d="M9.46696 12.506H6.60496C6.23713 12.506 5.93896 12.8042 5.93896 13.172V16.034C5.93896 16.4019 6.23713 16.7 6.60496 16.7H9.46696C9.83478 16.7 10.133 16.4019 10.133 16.034V13.172C10.133 12.8042 9.83478 12.506 9.46696 12.506Z" fill="white" stroke="#7F92FF" stroke-miterlimit="10"/>
<path id="Vector_22" d="M9.46696 22.01H6.60496C6.23713 22.01 5.93896 22.3082 5.93896 22.676V25.538C5.93896 25.9058 6.23713 26.204 6.60496 26.204H9.46696C9.83478 26.204 10.133 25.9058 10.133 25.538V22.676C10.133 22.3082 9.83478 22.01 9.46696 22.01Z" fill="white" stroke="#7F92FF" stroke-miterlimit="10"/>
<path id="Vector_23" d="M9.46696 31.512H6.60496C6.23713 31.512 5.93896 31.8102 5.93896 32.178V35.04C5.93896 35.4079 6.23713 35.706 6.60496 35.706H9.46696C9.83478 35.706 10.133 35.4079 10.133 35.04V32.178C10.133 31.8102 9.83478 31.512 9.46696 31.512Z" fill="white" stroke="#7F92FF" stroke-miterlimit="10"/>
<path id="Vector_24" d="M13.6296 13.4041H29.3296" stroke="#7F92FF" stroke-miterlimit="10"/>
<path id="Vector_25" d="M13.6296 15.954H21.4796" stroke="#7F92FF" stroke-miterlimit="10"/>
<path id="Vector_26" d="M13.6296 22.832H29.3296" stroke="#7F92FF" stroke-miterlimit="10"/>
<path id="Vector_27" d="M13.6296 25.3821H21.4796" stroke="#7F92FF" stroke-miterlimit="10"/>
<path id="Vector_28" d="M13.6296 32.26H29.3296" stroke="#7F92FF" stroke-miterlimit="10"/>
<path id="Vector_29" d="M13.6296 34.8101H21.4796" stroke="#7F92FF" stroke-miterlimit="10"/>
<path id="Vector_30" d="M22.8296 15.954H25.5296" stroke="#7F92FF" stroke-miterlimit="10"/>
<path id="Vector_31" d="M22.8296 25.3821H25.5296" stroke="#7F92FF" stroke-miterlimit="10"/>
<path id="Vector_32" d="M22.8296 34.8101H25.5296" stroke="#7F92FF" stroke-miterlimit="10"/>
</g>
</g>
</svg>
