<svg width="36" height="36" viewBox="0 0 36 36" fill="none" xmlns="http://www.w3.org/2000/svg">
<g id="Icon/Solid/star">
<path id="Icon" d="M17.0015 7.30048C17.3158 6.33311 18.6844 6.33311 18.9987 7.30048L20.9239 13.2257C21.2653 14.2764 22.2444 14.9877 23.3491 14.9877H29.5793C30.5964 14.9877 31.0193 16.2893 30.1964 16.8872L25.1561 20.5492C24.2624 21.1985 23.8884 22.3495 24.2298 23.4002L26.155 29.3254C26.4693 30.2928 25.3621 31.0972 24.5392 30.4993L19.4989 26.8373C18.6052 26.188 17.395 26.188 16.5012 26.8373L11.4609 30.4993C10.638 31.0972 9.53081 30.2928 9.84513 29.3254L11.7704 23.4002C12.1117 22.3495 11.7378 21.1985 10.844 20.5492L5.80371 16.8872C4.98081 16.2893 5.40372 14.9877 6.42088 14.9877H12.651C13.7558 14.9877 14.7349 14.2764 15.0762 13.2257L17.0015 7.30048Z" stroke="#94A3B8" stroke-width="1.5"/>
</g>
</svg>
