<svg width="166" height="136" viewBox="0 0 166 136" fill="none" xmlns="http://www.w3.org/2000/svg">
<path d="M1.70082 2.71094C0.988923 2.71094 0.455078 2.17558 0.455078 1.46045C0.455078 0.746304 0.988923 0.210938 1.70082 0.210938C2.41271 0.210938 2.94656 0.746304 2.94656 1.46045C3.03563 2.08619 2.41271 2.71094 1.70082 2.71094Z" fill="#404089"/>
<path d="M14.2009 2.71094C13.489 2.71094 12.9551 2.17558 12.9551 1.46045C12.9551 0.746304 13.489 0.210938 14.2009 0.210938C14.9127 0.210938 15.4466 0.746304 15.4466 1.46045C15.5356 2.08619 14.9127 2.71094 14.2009 2.71094Z" fill="#404089"/>
<path d="M26.705 2.71094C25.9908 2.71094 25.4551 2.17558 25.4551 1.46045C25.4551 0.746304 25.9908 0.210938 26.705 0.210938C27.4193 0.210938 27.9551 0.746304 27.9551 1.46045C27.9551 2.08619 27.4193 2.71094 26.705 2.71094Z" fill="#404089"/>
<path d="M39.2051 2.71094C38.4908 2.71094 37.9551 2.17558 37.9551 1.46045C37.9551 0.746304 38.4908 0.210938 39.2051 0.210938C39.9194 0.210938 40.4551 0.746304 40.4551 1.46045C40.4551 2.08619 39.9194 2.71094 39.2051 2.71094Z" fill="#404089"/>
<path d="M51.705 2.71094C50.9908 2.71094 50.4551 2.17558 50.4551 1.46045C50.4551 0.746304 50.9908 0.210938 51.705 0.210938C52.4193 0.210938 52.9551 0.746304 52.9551 1.46045C52.9551 2.08619 52.4193 2.71094 51.705 2.71094Z" fill="#404089"/>
<path d="M64.2051 2.71094C63.4912 2.71094 62.9551 2.17558 62.9551 1.46045C62.9551 0.746304 63.4912 0.210938 64.2051 0.210938C64.9189 0.210938 65.4551 0.746304 65.4551 1.46045C65.4551 2.08619 64.9189 2.71094 64.2051 2.71094Z" fill="#404089"/>
<path d="M76.7003 2.71094C75.9886 2.71094 75.4551 2.17558 75.4551 1.46045C75.4551 0.746304 75.9886 0.210938 76.7003 0.210938C77.413 0.210938 77.9466 0.746304 77.9466 1.46045C78.0356 2.08619 77.413 2.71094 76.7003 2.71094Z" fill="#404089"/>
<path d="M89.2009 2.71094C88.4894 2.71094 87.9551 2.17558 87.9551 1.46045C87.9551 0.746304 88.4894 0.210938 89.2009 0.210938C89.9124 0.210938 90.4467 0.746304 90.4467 1.46045C90.5348 2.08619 89.9124 2.71094 89.2009 2.71094Z" fill="#404089"/>
<path d="M101.705 2.71094C100.99 2.71094 100.455 2.17558 100.455 1.46045C100.455 0.746304 100.99 0.210938 101.705 0.210938C102.42 0.210938 102.955 0.746304 102.955 1.46045C102.955 2.08619 102.42 2.71094 101.705 2.71094Z" fill="#404089"/>
<path d="M1.70082 15.2109C0.988923 15.2109 0.455078 14.6756 0.455078 13.9605C0.455078 13.2463 0.988923 12.7109 1.70082 12.7109C2.41271 12.7109 2.94656 13.2463 2.94656 13.9605C3.03563 14.5862 2.41271 15.2109 1.70082 15.2109Z" fill="#404089"/>
<path d="M14.2009 15.2109C13.489 15.2109 12.9551 14.6756 12.9551 13.9605C12.9551 13.2463 13.489 12.7109 14.2009 12.7109C14.9127 12.7109 15.4466 13.2463 15.4466 13.9605C15.5356 14.5862 14.9127 15.2109 14.2009 15.2109Z" fill="#404089"/>
<path d="M26.705 15.2109C25.9908 15.2109 25.4551 14.6756 25.4551 13.9605C25.4551 13.2463 25.9908 12.7109 26.705 12.7109C27.4193 12.7109 27.9551 13.2463 27.9551 13.9605C27.9551 14.5862 27.4193 15.2109 26.705 15.2109Z" fill="#404089"/>
<path d="M39.2051 15.2109C38.4908 15.2109 37.9551 14.6756 37.9551 13.9605C37.9551 13.2463 38.4908 12.7109 39.2051 12.7109C39.9194 12.7109 40.4551 13.2463 40.4551 13.9605C40.4551 14.5862 39.9194 15.2109 39.2051 15.2109Z" fill="#404089"/>
<path d="M51.705 15.2109C50.9908 15.2109 50.4551 14.6756 50.4551 13.9605C50.4551 13.2463 50.9908 12.7109 51.705 12.7109C52.4193 12.7109 52.9551 13.2463 52.9551 13.9605C52.9551 14.5862 52.4193 15.2109 51.705 15.2109Z" fill="#404089"/>
<path d="M64.2051 15.2109C63.4912 15.2109 62.9551 14.6756 62.9551 13.9605C62.9551 13.2463 63.4912 12.7109 64.2051 12.7109C64.9189 12.7109 65.4551 13.2463 65.4551 13.9605C65.4551 14.5862 64.9189 15.2109 64.2051 15.2109Z" fill="#404089"/>
<path d="M76.7003 15.2109C75.9886 15.2109 75.4551 14.6756 75.4551 13.9605C75.4551 13.2463 75.9886 12.7109 76.7003 12.7109C77.413 12.7109 77.9466 13.2463 77.9466 13.9605C78.0356 14.5862 77.413 15.2109 76.7003 15.2109Z" fill="#404089"/>
<path d="M89.2009 15.2109C88.4894 15.2109 87.9551 14.6756 87.9551 13.9605C87.9551 13.2463 88.4894 12.7109 89.2009 12.7109C89.9124 12.7109 90.4467 13.2463 90.4467 13.9605C90.5348 14.5862 89.9124 15.2109 89.2009 15.2109Z" fill="#404089"/>
<path d="M101.705 15.2109C100.99 15.2109 100.455 14.6756 100.455 13.9605C100.455 13.2463 100.99 12.7109 101.705 12.7109C102.42 12.7109 102.955 13.2463 102.955 13.9605C102.955 14.5862 102.42 15.2109 101.705 15.2109Z" fill="#404089"/>
<path d="M1.70082 27.7109C0.988923 27.7109 0.455078 27.1756 0.455078 26.4605C0.455078 25.7463 0.988923 25.2109 1.70082 25.2109C2.41271 25.2109 2.94656 25.7463 2.94656 26.4605C3.03563 27.0862 2.41271 27.7109 1.70082 27.7109Z" fill="#404089"/>
<path d="M14.2009 27.7109C13.489 27.7109 12.9551 27.1756 12.9551 26.4605C12.9551 25.7463 13.489 25.2109 14.2009 25.2109C14.9127 25.2109 15.4466 25.7463 15.4466 26.4605C15.5356 27.0862 14.9127 27.7109 14.2009 27.7109Z" fill="#404089"/>
<path d="M26.705 27.7109C25.9908 27.7109 25.4551 27.1756 25.4551 26.4605C25.4551 25.7463 25.9908 25.2109 26.705 25.2109C27.4193 25.2109 27.9551 25.7463 27.9551 26.4605C27.9551 27.0862 27.4193 27.7109 26.705 27.7109Z" fill="#404089"/>
<path d="M39.2051 27.7109C38.4908 27.7109 37.9551 27.1756 37.9551 26.4605C37.9551 25.7463 38.4908 25.2109 39.2051 25.2109C39.9194 25.2109 40.4551 25.7463 40.4551 26.4605C40.4551 27.0862 39.9194 27.7109 39.2051 27.7109Z" fill="#404089"/>
<path d="M51.705 27.7109C50.9908 27.7109 50.4551 27.1756 50.4551 26.4605C50.4551 25.7463 50.9908 25.2109 51.705 25.2109C52.4193 25.2109 52.9551 25.7463 52.9551 26.4605C52.9551 27.0862 52.4193 27.7109 51.705 27.7109Z" fill="#404089"/>
<path d="M64.2051 27.7109C63.4912 27.7109 62.9551 27.1756 62.9551 26.4605C62.9551 25.7463 63.4912 25.2109 64.2051 25.2109C64.9189 25.2109 65.4551 25.7463 65.4551 26.4605C65.4551 27.0862 64.9189 27.7109 64.2051 27.7109Z" fill="#404089"/>
<path d="M76.7003 27.7109C75.9886 27.7109 75.4551 27.1756 75.4551 26.4605C75.4551 25.7463 75.9886 25.2109 76.7003 25.2109C77.413 25.2109 77.9466 25.7463 77.9466 26.4605C78.0356 27.0862 77.413 27.7109 76.7003 27.7109Z" fill="#404089"/>
<path d="M89.2009 27.7109C88.4894 27.7109 87.9551 27.1756 87.9551 26.4605C87.9551 25.7463 88.4894 25.2109 89.2009 25.2109C89.9124 25.2109 90.4467 25.7463 90.4467 26.4605C90.5348 27.0862 89.9124 27.7109 89.2009 27.7109Z" fill="#404089"/>
<path d="M101.705 27.7109C100.99 27.7109 100.455 27.1756 100.455 26.4605C100.455 25.7463 100.99 25.2109 101.705 25.2109C102.42 25.2109 102.955 25.7463 102.955 26.4605C102.955 27.0862 102.42 27.7109 101.705 27.7109Z" fill="#404089"/>
<path d="M1.70082 40.2109C0.988923 40.2109 0.455078 39.6756 0.455078 38.9605C0.455078 38.2463 0.988923 37.7109 1.70082 37.7109C2.41271 37.7109 2.94656 38.2463 2.94656 38.9605C3.03563 39.5862 2.41271 40.2109 1.70082 40.2109Z" fill="#404089"/>
<path d="M14.2009 40.2109C13.489 40.2109 12.9551 39.6756 12.9551 38.9605C12.9551 38.2463 13.489 37.7109 14.2009 37.7109C14.9127 37.7109 15.4466 38.2463 15.4466 38.9605C15.5356 39.5862 14.9127 40.2109 14.2009 40.2109Z" fill="#404089"/>
<path d="M26.705 40.2109C25.9908 40.2109 25.4551 39.6756 25.4551 38.9605C25.4551 38.2463 25.9908 37.7109 26.705 37.7109C27.4193 37.7109 27.9551 38.2463 27.9551 38.9605C27.9551 39.5862 27.4193 40.2109 26.705 40.2109Z" fill="#404089"/>
<path d="M39.2051 40.2109C38.4908 40.2109 37.9551 39.6756 37.9551 38.9605C37.9551 38.2463 38.4908 37.7109 39.2051 37.7109C39.9194 37.7109 40.4551 38.2463 40.4551 38.9605C40.4551 39.5862 39.9194 40.2109 39.2051 40.2109Z" fill="#404089"/>
<path d="M51.705 40.2109C50.9908 40.2109 50.4551 39.6756 50.4551 38.9605C50.4551 38.2463 50.9908 37.7109 51.705 37.7109C52.4193 37.7109 52.9551 38.2463 52.9551 38.9605C52.9551 39.5862 52.4193 40.2109 51.705 40.2109Z" fill="#404089"/>
<path d="M64.2051 40.2109C63.4912 40.2109 62.9551 39.6756 62.9551 38.9605C62.9551 38.2463 63.4912 37.7109 64.2051 37.7109C64.9189 37.7109 65.4551 38.2463 65.4551 38.9605C65.4551 39.5862 64.9189 40.2109 64.2051 40.2109Z" fill="#404089"/>
<path d="M76.7003 40.2109C75.9886 40.2109 75.4551 39.6756 75.4551 38.9605C75.4551 38.2463 75.9886 37.7109 76.7003 37.7109C77.413 37.7109 77.9466 38.2463 77.9466 38.9605C78.0356 39.5862 77.413 40.2109 76.7003 40.2109Z" fill="#404089"/>
<path d="M89.2009 40.2109C88.4894 40.2109 87.9551 39.6756 87.9551 38.9605C87.9551 38.2463 88.4894 37.7109 89.2009 37.7109C89.9124 37.7109 90.4467 38.2463 90.4467 38.9605C90.5348 39.5862 89.9124 40.2109 89.2009 40.2109Z" fill="#404089"/>
<path d="M101.705 40.2109C100.99 40.2109 100.455 39.6756 100.455 38.9605C100.455 38.2463 100.99 37.7109 101.705 37.7109C102.42 37.7109 102.955 38.2463 102.955 38.9605C102.955 39.5862 102.42 40.2109 101.705 40.2109Z" fill="#404089"/>
<path d="M1.70082 52.7109C0.988923 52.7109 0.455078 52.1756 0.455078 51.4605C0.455078 50.7463 0.988923 50.2109 1.70082 50.2109C2.41271 50.2109 2.94656 50.7463 2.94656 51.4605C3.03563 52.0862 2.41271 52.7109 1.70082 52.7109Z" fill="#404089"/>
<path d="M14.2009 52.7109C13.489 52.7109 12.9551 52.1756 12.9551 51.4605C12.9551 50.7463 13.489 50.2109 14.2009 50.2109C14.9127 50.2109 15.4466 50.7463 15.4466 51.4605C15.5356 52.0862 14.9127 52.7109 14.2009 52.7109Z" fill="#404089"/>
<path d="M26.705 52.7109C25.9908 52.7109 25.4551 52.1756 25.4551 51.4605C25.4551 50.7463 25.9908 50.2109 26.705 50.2109C27.4193 50.2109 27.9551 50.7463 27.9551 51.4605C27.9551 52.0862 27.4193 52.7109 26.705 52.7109Z" fill="#404089"/>
<path d="M39.2051 52.7109C38.4908 52.7109 37.9551 52.1756 37.9551 51.4605C37.9551 50.7463 38.4908 50.2109 39.2051 50.2109C39.9194 50.2109 40.4551 50.7463 40.4551 51.4605C40.4551 52.0862 39.9194 52.7109 39.2051 52.7109Z" fill="#404089"/>
<path d="M51.705 52.7109C50.9908 52.7109 50.4551 52.1756 50.4551 51.4605C50.4551 50.7463 50.9908 50.2109 51.705 50.2109C52.4193 50.2109 52.9551 50.7463 52.9551 51.4605C52.9551 52.0862 52.4193 52.7109 51.705 52.7109Z" fill="#404089"/>
<path d="M64.2051 52.7109C63.4912 52.7109 62.9551 52.1756 62.9551 51.4605C62.9551 50.7463 63.4912 50.2109 64.2051 50.2109C64.9189 50.2109 65.4551 50.7463 65.4551 51.4605C65.4551 52.0862 64.9189 52.7109 64.2051 52.7109Z" fill="#404089"/>
<path d="M76.7003 52.7109C75.9886 52.7109 75.4551 52.1756 75.4551 51.4605C75.4551 50.7463 75.9886 50.2109 76.7003 50.2109C77.413 50.2109 77.9466 50.7463 77.9466 51.4605C78.0356 52.0862 77.413 52.7109 76.7003 52.7109Z" fill="#404089"/>
<path d="M89.2009 52.7109C88.4894 52.7109 87.9551 52.1756 87.9551 51.4605C87.9551 50.7463 88.4894 50.2109 89.2009 50.2109C89.9124 50.2109 90.4467 50.7463 90.4467 51.4605C90.5348 52.0862 89.9124 52.7109 89.2009 52.7109Z" fill="#404089"/>
<path d="M101.705 52.7109C100.99 52.7109 100.455 52.1756 100.455 51.4605C100.455 50.7463 100.99 50.2109 101.705 50.2109C102.42 50.2109 102.955 50.7463 102.955 51.4605C102.955 52.0862 102.42 52.7109 101.705 52.7109Z" fill="#404089"/>
<path d="M1.70082 65.2109C0.988923 65.2109 0.455078 64.6756 0.455078 63.9605C0.455078 63.2463 0.988923 62.7109 1.70082 62.7109C2.41271 62.7109 2.94656 63.2463 2.94656 63.9605C3.03563 64.5862 2.41271 65.2109 1.70082 65.2109Z" fill="#404089"/>
<path d="M14.2009 65.2109C13.489 65.2109 12.9551 64.6756 12.9551 63.9605C12.9551 63.2463 13.489 62.7109 14.2009 62.7109C14.9127 62.7109 15.4466 63.2463 15.4466 63.9605C15.5356 64.5862 14.9127 65.2109 14.2009 65.2109Z" fill="#404089"/>
<path d="M26.705 65.2109C25.9908 65.2109 25.4551 64.6756 25.4551 63.9605C25.4551 63.2463 25.9908 62.7109 26.705 62.7109C27.4193 62.7109 27.9551 63.2463 27.9551 63.9605C27.9551 64.5862 27.4193 65.2109 26.705 65.2109Z" fill="#404089"/>
<path d="M39.2051 65.2109C38.4908 65.2109 37.9551 64.6756 37.9551 63.9605C37.9551 63.2463 38.4908 62.7109 39.2051 62.7109C39.9194 62.7109 40.4551 63.2463 40.4551 63.9605C40.4551 64.5862 39.9194 65.2109 39.2051 65.2109Z" fill="#404089"/>
<path d="M51.705 65.2109C50.9908 65.2109 50.4551 64.6756 50.4551 63.9605C50.4551 63.2463 50.9908 62.7109 51.705 62.7109C52.4193 62.7109 52.9551 63.2463 52.9551 63.9605C52.9551 64.5862 52.4193 65.2109 51.705 65.2109Z" fill="#404089"/>
<path d="M64.2051 65.2109C63.4912 65.2109 62.9551 64.6756 62.9551 63.9605C62.9551 63.2463 63.4912 62.7109 64.2051 62.7109C64.9189 62.7109 65.4551 63.2463 65.4551 63.9605C65.4551 64.5862 64.9189 65.2109 64.2051 65.2109Z" fill="#404089"/>
<path d="M76.7003 65.2109C75.9886 65.2109 75.4551 64.6756 75.4551 63.9605C75.4551 63.2463 75.9886 62.7109 76.7003 62.7109C77.413 62.7109 77.9466 63.2463 77.9466 63.9605C78.0356 64.5862 77.413 65.2109 76.7003 65.2109Z" fill="#404089"/>
<path d="M89.2009 65.2109C88.4894 65.2109 87.9551 64.6756 87.9551 63.9605C87.9551 63.2463 88.4894 62.7109 89.2009 62.7109C89.9124 62.7109 90.4467 63.2463 90.4467 63.9605C90.5348 64.5862 89.9124 65.2109 89.2009 65.2109Z" fill="#404089"/>
<path d="M101.705 65.2109C100.99 65.2109 100.455 64.6756 100.455 63.9605C100.455 63.2463 100.99 62.7109 101.705 62.7109C102.42 62.7109 102.955 63.2463 102.955 63.9605C102.955 64.5862 102.42 65.2109 101.705 65.2109Z" fill="#404089"/>
<path d="M1.70082 77.7109C0.988923 77.7109 0.455078 77.1756 0.455078 76.4605C0.455078 75.7463 0.988923 75.2109 1.70082 75.2109C2.41271 75.2109 2.94656 75.7463 2.94656 76.4605C3.03563 77.0862 2.41271 77.7109 1.70082 77.7109Z" fill="#404089"/>
<path d="M14.2009 77.7109C13.489 77.7109 12.9551 77.1756 12.9551 76.4605C12.9551 75.7463 13.489 75.2109 14.2009 75.2109C14.9127 75.2109 15.4466 75.7463 15.4466 76.4605C15.5356 77.0862 14.9127 77.7109 14.2009 77.7109Z" fill="#404089"/>
<path d="M26.705 77.7109C25.9908 77.7109 25.4551 77.1756 25.4551 76.4605C25.4551 75.7463 25.9908 75.2109 26.705 75.2109C27.4193 75.2109 27.9551 75.7463 27.9551 76.4605C27.9551 77.0862 27.4193 77.7109 26.705 77.7109Z" fill="#404089"/>
<path d="M39.2051 77.7109C38.4908 77.7109 37.9551 77.1756 37.9551 76.4605C37.9551 75.7463 38.4908 75.2109 39.2051 75.2109C39.9194 75.2109 40.4551 75.7463 40.4551 76.4605C40.4551 77.0862 39.9194 77.7109 39.2051 77.7109Z" fill="#404089"/>
<path d="M51.705 77.7109C50.9908 77.7109 50.4551 77.1756 50.4551 76.4605C50.4551 75.7463 50.9908 75.2109 51.705 75.2109C52.4193 75.2109 52.9551 75.7463 52.9551 76.4605C52.9551 77.0862 52.4193 77.7109 51.705 77.7109Z" fill="#404089"/>
<path d="M64.2051 77.7109C63.4912 77.7109 62.9551 77.1756 62.9551 76.4605C62.9551 75.7463 63.4912 75.2109 64.2051 75.2109C64.9189 75.2109 65.4551 75.7463 65.4551 76.4605C65.4551 77.0862 64.9189 77.7109 64.2051 77.7109Z" fill="#404089"/>
<path d="M76.7003 77.7109C75.9886 77.7109 75.4551 77.1756 75.4551 76.4605C75.4551 75.7463 75.9886 75.2109 76.7003 75.2109C77.413 75.2109 77.9466 75.7463 77.9466 76.4605C78.0356 77.0862 77.413 77.7109 76.7003 77.7109Z" fill="#404089"/>
<path d="M89.2009 77.7109C88.4894 77.7109 87.9551 77.1756 87.9551 76.4605C87.9551 75.7463 88.4894 75.2109 89.2009 75.2109C89.9124 75.2109 90.4467 75.7463 90.4467 76.4605C90.5348 77.0862 89.9124 77.7109 89.2009 77.7109Z" fill="#404089"/>
<path d="M101.705 77.7109C100.99 77.7109 100.455 77.1756 100.455 76.4605C100.455 75.7463 100.99 75.2109 101.705 75.2109C102.42 75.2109 102.955 75.7463 102.955 76.4605C102.955 77.0862 102.42 77.7109 101.705 77.7109Z" fill="#404089"/>
<path d="M1.70082 90.2109C0.988923 90.2109 0.455078 89.6756 0.455078 88.9605C0.455078 88.2463 0.988923 87.7109 1.70082 87.7109C2.41271 87.7109 2.94656 88.2463 2.94656 88.9605C3.03563 89.5862 2.41271 90.2109 1.70082 90.2109Z" fill="#404089"/>
<path d="M14.2009 90.2109C13.489 90.2109 12.9551 89.6756 12.9551 88.9605C12.9551 88.2463 13.489 87.7109 14.2009 87.7109C14.9127 87.7109 15.4466 88.2463 15.4466 88.9605C15.5356 89.5862 14.9127 90.2109 14.2009 90.2109Z" fill="#404089"/>
<path d="M26.705 90.2109C25.9908 90.2109 25.4551 89.6756 25.4551 88.9605C25.4551 88.2463 25.9908 87.7109 26.705 87.7109C27.4193 87.7109 27.9551 88.2463 27.9551 88.9605C27.9551 89.5862 27.4193 90.2109 26.705 90.2109Z" fill="#404089"/>
<path d="M39.2051 90.2109C38.4908 90.2109 37.9551 89.6756 37.9551 88.9605C37.9551 88.2463 38.4908 87.7109 39.2051 87.7109C39.9194 87.7109 40.4551 88.2463 40.4551 88.9605C40.4551 89.5862 39.9194 90.2109 39.2051 90.2109Z" fill="#404089"/>
<path d="M51.705 90.2109C50.9908 90.2109 50.4551 89.6756 50.4551 88.9605C50.4551 88.2463 50.9908 87.7109 51.705 87.7109C52.4193 87.7109 52.9551 88.2463 52.9551 88.9605C52.9551 89.5862 52.4193 90.2109 51.705 90.2109Z" fill="#404089"/>
<path d="M64.2051 90.2109C63.4912 90.2109 62.9551 89.6756 62.9551 88.9605C62.9551 88.2463 63.4912 87.7109 64.2051 87.7109C64.9189 87.7109 65.4551 88.2463 65.4551 88.9605C65.4551 89.5862 64.9189 90.2109 64.2051 90.2109Z" fill="#404089"/>
<path d="M76.7003 90.2109C75.9886 90.2109 75.4551 89.6756 75.4551 88.9605C75.4551 88.2463 75.9886 87.7109 76.7003 87.7109C77.413 87.7109 77.9466 88.2463 77.9466 88.9605C78.0356 89.5862 77.413 90.2109 76.7003 90.2109Z" fill="#404089"/>
<path d="M89.2009 90.2109C88.4894 90.2109 87.9551 89.6756 87.9551 88.9605C87.9551 88.2463 88.4894 87.7109 89.2009 87.7109C89.9124 87.7109 90.4467 88.2463 90.4467 88.9605C90.5348 89.5862 89.9124 90.2109 89.2009 90.2109Z" fill="#404089"/>
<path d="M101.705 90.2109C100.99 90.2109 100.455 89.6756 100.455 88.9605C100.455 88.2463 100.99 87.7109 101.705 87.7109C102.42 87.7109 102.955 88.2463 102.955 88.9605C102.955 89.5862 102.42 90.2109 101.705 90.2109Z" fill="#404089"/>
<path d="M1.70082 102.711C0.988923 102.711 0.455078 102.176 0.455078 101.46C0.455078 100.746 0.988923 100.211 1.70082 100.211C2.41271 100.211 2.94656 100.746 2.94656 101.46C3.03563 102.086 2.41271 102.711 1.70082 102.711Z" fill="#404089"/>
<path d="M14.2009 102.711C13.489 102.711 12.9551 102.176 12.9551 101.46C12.9551 100.746 13.489 100.211 14.2009 100.211C14.9127 100.211 15.4466 100.746 15.4466 101.46C15.5356 102.086 14.9127 102.711 14.2009 102.711Z" fill="#404089"/>
<path d="M26.705 102.711C25.9908 102.711 25.4551 102.176 25.4551 101.46C25.4551 100.746 25.9908 100.211 26.705 100.211C27.4193 100.211 27.9551 100.746 27.9551 101.46C27.9551 102.086 27.4193 102.711 26.705 102.711Z" fill="#404089"/>
<path d="M39.2051 102.711C38.4908 102.711 37.9551 102.176 37.9551 101.46C37.9551 100.746 38.4908 100.211 39.2051 100.211C39.9194 100.211 40.4551 100.746 40.4551 101.46C40.4551 102.086 39.9194 102.711 39.2051 102.711Z" fill="#404089"/>
<path d="M51.705 102.711C50.9908 102.711 50.4551 102.176 50.4551 101.46C50.4551 100.746 50.9908 100.211 51.705 100.211C52.4193 100.211 52.9551 100.746 52.9551 101.46C52.9551 102.086 52.4193 102.711 51.705 102.711Z" fill="#404089"/>
<path d="M64.2051 102.711C63.4912 102.711 62.9551 102.176 62.9551 101.46C62.9551 100.746 63.4912 100.211 64.2051 100.211C64.9189 100.211 65.4551 100.746 65.4551 101.46C65.4551 102.086 64.9189 102.711 64.2051 102.711Z" fill="#404089"/>
<path d="M76.7003 102.711C75.9886 102.711 75.4551 102.176 75.4551 101.46C75.4551 100.746 75.9886 100.211 76.7003 100.211C77.413 100.211 77.9466 100.746 77.9466 101.46C78.0356 102.086 77.413 102.711 76.7003 102.711Z" fill="#404089"/>
<path d="M89.2009 102.711C88.4894 102.711 87.9551 102.176 87.9551 101.46C87.9551 100.746 88.4894 100.211 89.2009 100.211C89.9124 100.211 90.4467 100.746 90.4467 101.46C90.5348 102.086 89.9124 102.711 89.2009 102.711Z" fill="#404089"/>
<path d="M101.705 102.711C100.99 102.711 100.455 102.176 100.455 101.46C100.455 100.746 100.99 100.211 101.705 100.211C102.42 100.211 102.955 100.746 102.955 101.46C102.955 102.086 102.42 102.711 101.705 102.711Z" fill="#404089"/>
<path d="M155.091 135.933H66.9091C60.9091 135.933 56 131.024 56 125.024V28.2059C56 22.2059 60.9091 17.2969 66.9091 17.2969H155.091C161.091 17.2969 166 22.2059 166 28.2059V125.024C166 131.024 161.091 135.933 155.091 135.933Z" fill="white"/>
<path d="M155.091 135.933H66.9091C60.9091 135.933 56 131.024 56 125.024V28.2059C56 22.2059 60.9091 17.2969 66.9091 17.2969H155.091C161.091 17.2969 166 22.2059 166 28.2059V125.024C166 131.024 161.091 135.933 155.091 135.933Z" fill="#D7C6F4"/>
</svg>
