<svg width="56" height="56" viewBox="0 0 56 56" fill="none" xmlns="http://www.w3.org/2000/svg">
<path d="M23.7249 45.474H47.6951C48.041 45.4724 48.3802 45.379 48.6782 45.2033C48.9762 45.0277 49.2222 44.7761 49.3911 44.4742C49.56 44.1724 49.6457 43.8311 49.6395 43.4852C49.6334 43.1394 49.5355 42.8014 49.3559 42.5058L29.5838 10.5273C29.4091 10.2439 29.1648 10.0099 28.8741 9.8476C28.5833 9.6853 28.2559 9.6001 27.923 9.6001C27.59 9.6001 27.2626 9.6853 26.9719 9.8476C26.6812 10.0099 26.4369 10.2439 26.2621 10.5273L6.49291 42.5058C6.30966 42.8017 6.20879 43.1412 6.20072 43.4892C6.19265 43.8371 6.27768 44.181 6.44702 44.4851C6.61635 44.7892 6.86384 45.0425 7.1639 45.2189C7.46396 45.3953 7.80569 45.4883 8.15375 45.4884H11.8001" fill="white"/>
<path d="M23.7249 45.474H47.6951C48.041 45.4724 48.3802 45.379 48.6782 45.2033C48.9762 45.0277 49.2222 44.7761 49.3911 44.4742C49.56 44.1724 49.6457 43.8311 49.6395 43.4852C49.6334 43.1394 49.5355 42.8014 49.3559 42.5058L29.5838 10.5273C29.4091 10.2439 29.1648 10.0099 28.8741 9.8476C28.5833 9.6853 28.2559 9.6001 27.923 9.6001C27.59 9.6001 27.2626 9.6853 26.9719 9.8476C26.6812 10.0099 26.4369 10.2439 26.2621 10.5273L6.49291 42.5058C6.30966 42.8017 6.20879 43.1412 6.20072 43.4892C6.19265 43.8371 6.27768 44.181 6.44702 44.4851C6.61635 44.7892 6.86384 45.0425 7.1639 45.2189C7.46396 45.3953 7.80569 45.4883 8.15375 45.4884H11.8001" stroke="#000062" stroke-miterlimit="10"/>
<path d="M29.1367 20.9064C29.1367 20.2367 28.5944 19.6938 27.9255 19.6938C27.2566 19.6938 26.7144 20.2367 26.7144 20.9064V34.0639C26.7144 34.7336 27.2566 35.2765 27.9255 35.2765C28.5944 35.2765 29.1367 34.7336 29.1367 34.0639V20.9064Z" fill="white" stroke="#000062" stroke-miterlimit="10"/>
<path d="M27.9269 40.078C28.5966 40.078 29.1395 39.5351 29.1395 38.8654C29.1395 38.1957 28.5966 37.6528 27.9269 37.6528C27.2573 37.6528 26.7144 38.1957 26.7144 38.8654C26.7144 39.5351 27.2573 40.078 27.9269 40.078Z" fill="white" stroke="#000062" stroke-miterlimit="10"/>
<path d="M17.8348 47.0802C18.7219 47.0802 19.4411 46.3611 19.4411 45.4739C19.4411 44.5868 18.7219 43.8677 17.8348 43.8677C16.9477 43.8677 16.2285 44.5868 16.2285 45.4739C16.2285 46.3611 16.9477 47.0802 17.8348 47.0802Z" stroke="#000062"/>
<path d="M48.0264 41.2993H37.9033" stroke="#000062" stroke-miterlimit="10"/>
<path d="M33.9985 41.2993H36.6565" stroke="#000062" stroke-miterlimit="10"/>
</svg>
