<svg width="56" height="56" viewBox="0 0 56 56" fill="none" xmlns="http://www.w3.org/2000/svg">
<path d="M23.8015 45.474H47.7717C48.1176 45.4724 48.4568 45.379 48.7548 45.2033C49.0528 45.0277 49.2988 44.7761 49.4677 44.4742C49.6366 44.1724 49.7223 43.8311 49.7161 43.4852C49.7099 43.1394 49.6121 42.8014 49.4325 42.5058L29.6604 10.5273C29.4857 10.2439 29.2414 10.0099 28.9506 9.8476C28.6599 9.6853 28.3325 9.6001 27.9996 9.6001C27.6666 9.6001 27.3392 9.6853 27.0485 9.8476C26.7578 10.0099 26.5134 10.2439 26.3387 10.5273L14.4312 29.7889" stroke="#000062" stroke-miterlimit="10"/>
<path d="M29.2133 20.9064C29.2133 20.2367 28.6711 19.6938 28.0022 19.6938C27.3333 19.6938 26.791 20.2367 26.791 20.9064V34.0639C26.791 34.7336 27.3333 35.2765 28.0022 35.2765C28.6711 35.2765 29.2133 34.7336 29.2133 34.0639V20.9064Z" fill="white" stroke="#000062" stroke-miterlimit="10"/>
<path d="M28.0036 40.078C28.6733 40.078 29.2162 39.5351 29.2162 38.8654C29.2162 38.1957 28.6733 37.6528 28.0036 37.6528C27.3339 37.6528 26.791 38.1957 26.791 38.8654C26.791 39.5351 27.3339 40.078 28.0036 40.078Z" fill="white" stroke="#000062" stroke-miterlimit="10"/>
<path d="M17.9114 47.0802C18.7986 47.0802 19.5177 46.3611 19.5177 45.4739C19.5177 44.5868 18.7986 43.8677 17.9114 43.8677C17.0243 43.8677 16.3052 44.5868 16.3052 45.4739C16.3052 46.3611 17.0243 47.0802 17.9114 47.0802Z" stroke="#000062"/>
<path d="M48.1031 41.2993H37.98" stroke="#000062" stroke-miterlimit="10"/>
<path d="M34.0752 41.2993H36.7331" stroke="#000062" stroke-miterlimit="10"/>
<path d="M13.0575 49.7913C17.8811 49.7913 21.7913 45.8811 21.7913 41.0575C21.7913 36.234 17.8811 32.3237 13.0575 32.3237C8.23398 32.3237 4.32373 36.234 4.32373 41.0575C4.32373 45.8811 8.23398 49.7913 13.0575 49.7913Z" fill="white" stroke="#000062" stroke-miterlimit="10"/>
<path d="M13.2773 37.5264V44.5898" stroke="#000062" stroke-miterlimit="10"/>
<path d="M16.8091 41.0581H9.74561" stroke="#000062" stroke-miterlimit="10"/>
</svg>
