<svg width="56" height="56" viewBox="0 0 56 56" fill="none" xmlns="http://www.w3.org/2000/svg">
<path d="M9.04168 25.084H41.2857C41.4752 25.0845 41.6568 25.1602 41.7907 25.2944C41.9245 25.4286 41.9997 25.6104 41.9997 25.8V44.506H8.32568V25.8C8.32568 25.6101 8.40112 25.428 8.5354 25.2937C8.66967 25.1594 8.85179 25.084 9.04168 25.084Z" stroke="#212683" stroke-miterlimit="10"/>
<path d="M38.7658 48.6561H42.4618C43.0082 48.6566 43.5325 48.4405 43.9197 48.0551C44.307 47.6697 44.5257 47.1465 44.5278 46.6001V45.1861C44.5278 45.0084 44.4572 44.838 44.3316 44.7124C44.2059 44.5867 44.0355 44.5161 43.8578 44.5161H6.4698C6.29383 44.5161 6.12491 44.5853 5.99954 44.7088C5.87418 44.8323 5.80243 45.0002 5.7998 45.1761V46.6001C5.7998 47.1481 6.01747 47.6735 6.40492 48.061C6.79237 48.4484 7.31787 48.6661 7.8658 48.6661H34.5358" stroke="#212683" stroke-miterlimit="10"/>
<path d="M17.0317 39.5957H30.1117" stroke="#212683" stroke-miterlimit="10"/>
<path d="M31.2319 39.5957H33.2979" stroke="#212683" stroke-miterlimit="10"/>
<path d="M25.1636 24.6357V14.2817H34.9756" stroke="#212683" stroke-miterlimit="10"/>
<path d="M21.6969 33.4761H28.5209C29.1649 33.4761 29.1649 32.4761 28.5209 32.4761H21.6969C21.0529 32.4761 21.0529 33.4761 21.6969 33.4761Z" fill="#212683"/>
<path d="M24.0927 35.0639L21.4167 32.6219V33.3299L24.0927 30.8859C24.5687 30.4519 23.8607 29.7459 23.3847 30.1779L20.7107 32.6219C20.6176 32.7162 20.5654 32.8434 20.5654 32.9759C20.5654 33.1084 20.6176 33.2355 20.7107 33.3299L23.3867 35.7719C23.8607 36.2059 24.5707 35.4999 24.0947 35.0639H24.0927Z" fill="#212683"/>
<path d="M41.4996 21.2459C45.3458 21.2459 48.4636 18.128 48.4636 14.2819C48.4636 10.4358 45.3458 7.31787 41.4996 7.31787C37.6535 7.31787 34.5356 10.4358 34.5356 14.2819C34.5356 18.128 37.6535 21.2459 41.4996 21.2459Z" stroke="#212683" stroke-miterlimit="10"/>
<path d="M41.4999 15.9358C43.1766 15.9358 44.5359 14.5765 44.5359 12.8998C44.5359 11.223 43.1766 9.86377 41.4999 9.86377C39.8231 9.86377 38.4639 11.223 38.4639 12.8998C38.4639 14.5765 39.8231 15.9358 41.4999 15.9358Z" stroke="#212683" stroke-miterlimit="10"/>
<path d="M45.4539 20.0161V19.8661C45.4546 18.8692 45.0784 17.9089 44.4007 17.1778C43.723 16.4466 42.7939 15.9988 41.7999 15.9241C41.7025 15.9161 41.6032 15.9121 41.5018 15.9121C41.4005 15.9121 41.3012 15.9161 41.2039 15.9241C40.2096 15.9988 39.2803 16.4465 38.6022 17.1776C37.9242 17.9087 37.5476 18.869 37.5479 19.8661V20.0161" stroke="#212683" stroke-miterlimit="10"/>
<path d="M13.1997 25.084V33.618" stroke="#212683" stroke-miterlimit="10"/>
<path d="M13.1997 34.7959V36.8179" stroke="#212683" stroke-miterlimit="10"/>
<path d="M36.6498 49.2961C37.0032 49.2961 37.2898 49.0096 37.2898 48.6561C37.2898 48.3027 37.0032 48.0161 36.6498 48.0161C36.2963 48.0161 36.0098 48.3027 36.0098 48.6561C36.0098 49.0096 36.2963 49.2961 36.6498 49.2961Z" fill="#212683"/>
</svg>
