<svg width="56" height="56" viewBox="0 0 56 56" fill="none" xmlns="http://www.w3.org/2000/svg">
<circle cx="23.1999" cy="23.8" r="16.8" fill="white" stroke="#000062" stroke-miterlimit="10"/>
<circle cx="23.1997" cy="23.7998" r="13" fill="white" stroke="#000062" stroke-miterlimit="10"/>
<path d="M23.2139 10.6182V13.1222" stroke="#000062" stroke-miterlimit="10"/>
<path d="M23.2139 34.6479V37.1499" stroke="#000062" stroke-miterlimit="10"/>
<path d="M36.1285 23.5342H33.6265" stroke="#000062" stroke-miterlimit="10"/>
<path d="M12.8038 23.5342H10.2998" stroke="#000062" stroke-miterlimit="10"/>
<path d="M15.8525 16.1719L14.0825 14.4019" stroke="#000062" stroke-miterlimit="10"/>
<path d="M14.0825 32.664L15.8525 30.894" stroke="#000062" stroke-miterlimit="10"/>
<path d="M30.5767 16.1719L32.3467 14.4019" stroke="#000062" stroke-miterlimit="10"/>
<path d="M22.7139 17.2179V23.3639C22.7139 24.0739 23.0019 24.3279 23.4739 24.8599L25.5919 27.2419C26.0199 27.7239 26.7259 27.0139 26.2999 26.5339L24.3559 24.3479C24.2939 24.2779 23.6519 23.4479 23.5759 23.4719C23.8039 23.3999 23.5879 24.0259 23.7139 23.6319C23.735 23.4652 23.735 23.2965 23.7139 23.1299V17.2179C23.7139 16.5739 22.7139 16.5739 22.7139 17.2179Z" fill="#000062"/>
<path d="M9.85156 34.0142V46.5142H21.8516" stroke="#000062" stroke-miterlimit="10"/>
<path d="M18.3892 43.9482L22.5692 46.5142L18.3892 49.0822" stroke="#000062" stroke-miterlimit="10"/>
<path d="M53.7638 33.2002H26.2358C25.995 33.2002 25.7998 33.4343 25.7998 33.723V50.0774C25.7998 50.3661 25.995 50.6002 26.2358 50.6002H53.7638C54.0046 50.6002 54.1998 50.3661 54.1998 50.0774V33.723C54.1998 33.4343 54.0046 33.2002 53.7638 33.2002Z" fill="white"/>
<path d="M51.4374 35.4004H28.562C28.3619 35.4004 28.1997 35.575 28.1997 35.7904V47.9904C28.1997 48.2058 28.3619 48.3804 28.562 48.3804H51.4374C51.6375 48.3804 51.7997 48.2058 51.7997 47.9904V35.7904C51.7997 35.575 51.6375 35.4004 51.4374 35.4004Z" fill="white" stroke="#000062" stroke-miterlimit="10"/>
<path d="M48.1622 39.3238H48.0093C47.9761 39.3238 47.9441 39.3238 47.9109 39.3238H47.8717L47.7935 39.3132H47.7828H47.7709H47.7638C47.7238 39.3059 47.6842 39.2965 47.6452 39.2849H47.6381C47.6073 39.2755 47.5765 39.2637 47.548 39.2519L47.5243 39.2413C47.5006 39.2307 47.478 39.2189 47.4555 39.2071L47.4365 39.1965C47.4136 39.1829 47.3914 39.1679 47.3701 39.1518L47.3595 39.1447L47.3393 39.127L47.312 39.1011L47.2931 39.0822C47.2812 39.0691 47.2701 39.0554 47.2599 39.041L47.248 39.0221C47.2402 39.01 47.233 38.9974 47.2267 38.9844L47.2207 38.9726C47.2137 38.9558 47.2082 38.9385 47.2041 38.9208V38.9066C47.2004 38.888 47.1984 38.8691 47.1982 38.8501C47.1992 38.8332 47.1992 38.8163 47.1982 38.7994C47.1932 38.7729 47.1848 38.7472 47.1733 38.7228V38.7146C47.1733 38.7051 47.1626 38.6945 47.1567 38.6851L47.1484 38.6721L47.1306 38.6474L47.1176 38.6309L47.095 38.5932L47.0737 38.572L47.0571 38.5566L47.0203 38.5272C47.0037 38.5154 46.9871 38.5036 46.9694 38.493C46.9314 38.4708 46.8917 38.4515 46.8508 38.4353H46.8425L46.7879 38.4152H46.7725L46.7203 38.3999H46.7014L46.6492 38.3881H46.629L46.5757 38.3799H46.5531H46.501C46.4654 38.3799 46.4298 38.3799 46.3942 38.3799H33.6128C33.5392 38.3801 33.4659 38.3864 33.3934 38.3987C33.351 38.4059 33.309 38.4153 33.2677 38.427C33.1395 38.4606 33.0217 38.5254 32.925 38.6156L32.8965 38.6486C32.8882 38.6592 32.8799 38.671 32.8728 38.6816C32.8655 38.693 32.8587 38.7048 32.8527 38.7169C32.8399 38.7431 32.8307 38.7708 32.8254 38.7994C32.8244 38.8159 32.8244 38.8324 32.8254 38.8489C32.8253 38.8679 32.8233 38.8868 32.8195 38.9055V38.9184C32.8151 38.9366 32.8092 38.9543 32.8017 38.9715V38.9785C32.7944 38.994 32.7861 39.009 32.7768 39.0233L32.7685 39.0363C32.7572 39.0524 32.745 39.0677 32.7317 39.0822L32.7222 39.0928C32.7091 39.1065 32.6952 39.1195 32.6807 39.1317L32.6724 39.1388L32.6475 39.1565L32.5977 39.1907L32.5622 39.2107L32.5171 39.2331L32.4685 39.2543L32.4294 39.2684L32.3736 39.2873H32.3665L32.3155 39.3002C32.2965 39.3002 32.2776 39.3109 32.2562 39.3132H32.2361L32.1578 39.3238H32.1187C32.0867 39.3238 32.0535 39.3238 32.0203 39.3238H31.8376C31.7206 39.3235 31.6041 39.3393 31.4914 39.371C31.2163 39.4487 31.0254 39.6161 31.0254 39.8117V43.9987C31.0254 44.2674 31.3894 44.4866 31.8376 44.4866H31.9906C32.0238 44.4866 32.0558 44.4866 32.089 44.4866H32.1282L32.2064 44.4972H32.2171H32.229H32.2361C32.2761 44.5045 32.3157 44.5139 32.3546 44.5255H32.3618C32.3926 44.5349 32.4234 44.5467 32.4519 44.5584L32.4756 44.5691C32.4993 44.5797 32.5218 44.5914 32.5444 44.6032L32.5633 44.6138C32.5863 44.6275 32.6085 44.6425 32.6297 44.6586L32.6404 44.6657L32.6606 44.6834L32.6879 44.7093L32.7068 44.7281C32.7187 44.7412 32.7298 44.755 32.74 44.7694L32.7519 44.7882C32.7597 44.8004 32.7669 44.813 32.7732 44.826L32.7792 44.8377C32.7862 44.8545 32.7917 44.8719 32.7958 44.8896V44.9037C32.7995 44.9224 32.8015 44.9413 32.8017 44.9603C32.8006 44.9772 32.8006 44.9941 32.8017 45.011C32.8067 45.0374 32.8151 45.0632 32.8266 45.0876V45.0958C32.8266 45.1052 32.8373 45.1158 32.8432 45.1253L32.8515 45.1382L32.8693 45.163L32.8823 45.1795L32.9013 45.2007L32.9226 45.2219L32.9392 45.2372L32.976 45.2667C32.9926 45.2785 33.0092 45.2903 33.027 45.3009C33.065 45.3231 33.1046 45.3424 33.1456 45.3586H33.1539L33.2084 45.3786H33.2226L33.2748 45.394H33.2938L33.346 45.4057H33.3661L33.4195 45.414H33.442H33.4942C33.5286 45.414 33.5641 45.414 33.6009 45.414H46.3836C46.4571 45.4138 46.5305 45.4075 46.6029 45.3951C46.6453 45.388 46.6873 45.3786 46.7286 45.3669C46.8569 45.3333 46.9747 45.2685 47.0713 45.1783L47.0998 45.1453C47.1081 45.1347 47.1164 45.1229 47.1235 45.1123C47.1309 45.1009 47.1376 45.0891 47.1437 45.077C47.1565 45.0508 47.1656 45.0231 47.1709 44.9945C47.1719 44.978 47.1719 44.9615 47.1709 44.945C47.1711 44.926 47.1731 44.907 47.1769 44.8884V44.8754C47.1812 44.8573 47.1872 44.8395 47.1946 44.8224V44.8153C47.2019 44.7999 47.2102 44.7849 47.2196 44.7706L47.2278 44.7576C47.2391 44.7415 47.2514 44.7262 47.2646 44.7116L47.2741 44.701C47.2872 44.6874 47.3011 44.6744 47.3156 44.6621L47.3239 44.6551L47.3488 44.6374L47.3998 44.6032L47.4354 44.5832L47.4804 44.5608L47.529 44.5396L47.567 44.5255L47.6227 44.5066H47.6298L47.6796 44.4936C47.6986 44.4936 47.7188 44.483 47.7389 44.4807H47.7591L47.8373 44.4701H47.8765C47.9085 44.4701 47.9417 44.4701 47.9749 44.4701H48.1622C48.2793 44.4704 48.3958 44.4546 48.5085 44.4229C48.7836 44.3451 48.9745 44.1766 48.9745 43.9822V39.8117C48.9709 39.5418 48.6069 39.3238 48.1622 39.3238Z" fill="white" stroke="#000062" stroke-miterlimit="10"/>
<path d="M35.9458 38.3799V45.6565" stroke="#000062" stroke-miterlimit="10"/>
<path d="M44.0537 38.3799V45.6565" stroke="#000062" stroke-miterlimit="10"/>
</svg>
