<svg width="56" height="56" viewBox="0 0 56 56" fill="none" xmlns="http://www.w3.org/2000/svg">
<path d="M35.1104 35.0659H11.4004C10.4721 35.0659 9.58189 35.4347 8.92552 36.0911C8.26914 36.7474 7.90039 37.6377 7.90039 38.5659V40.7659H37.4604C37.6629 40.7659 37.8634 40.7256 38.0502 40.6473C38.237 40.569 38.4064 40.4544 38.5484 40.3099L48.4204 30.2699C48.5754 30.1122 48.6873 29.9173 48.7454 29.704C48.8035 29.4906 48.8059 29.2659 48.7523 29.0514C48.6987 28.8368 48.591 28.6396 48.4393 28.4786C48.2877 28.3177 48.0973 28.1983 47.8864 28.1319L47.3144 27.9519C46.4575 27.6822 45.5449 27.6418 44.6676 27.8348C43.7903 28.0279 42.9789 28.4475 42.3144 29.0519L36.1344 34.6699C35.854 34.9244 35.489 35.0656 35.1104 35.0659Z" stroke="#000062" stroke-miterlimit="10"/>
<path d="M14.2002 40.7661H11.2002V47.3561H14.2002V40.7661Z" stroke="#000062" stroke-miterlimit="10"/>
<path d="M35.2002 40.7661H32.2002V47.3561H35.2002V40.7661Z" stroke="#000062" stroke-miterlimit="10"/>
<path d="M7.40039 47.3579H38.4004" stroke="#000062" stroke-miterlimit="10"/>
<path d="M21.9663 47.3561V40.7661" stroke="#000062" stroke-miterlimit="10"/>
<path d="M21.9663 25.844V21.772" stroke="#000062" stroke-miterlimit="10"/>
<path d="M21.9663 35.066V30.978" stroke="#000062" stroke-miterlimit="10"/>
<path d="M20.9302 8.3999H23.0042C26.5512 8.3999 29.9529 9.80894 32.461 12.3171C34.9691 14.8252 36.3782 18.2269 36.3782 21.7739H7.55615C7.55615 18.2269 8.96519 14.8252 11.4733 12.3171C13.9814 9.80894 17.3831 8.3999 20.9302 8.3999Z" stroke="#000062" stroke-miterlimit="10"/>
<path d="M20.6284 8.41797C20.6284 8.41797 14.2384 15.748 13.8384 21.774" stroke="#000062" stroke-miterlimit="10"/>
<path d="M23.3062 8.41797C23.3062 8.41797 29.6942 15.746 30.0942 21.774" stroke="#000062" stroke-miterlimit="10"/>
<path d="M21.9666 29.0699C22.33 29.0699 22.6246 28.7753 22.6246 28.4119C22.6246 28.0485 22.33 27.7539 21.9666 27.7539C21.6032 27.7539 21.3086 28.0485 21.3086 28.4119C21.3086 28.7753 21.6032 29.0699 21.9666 29.0699Z" fill="#000062"/>
<path d="M19.7686 21.772V17" stroke="#000062" stroke-miterlimit="10"/>
<path d="M19.7686 15.0957V16.2157" stroke="#000062" stroke-miterlimit="10"/>
</svg>
