<svg width="56" height="56" viewBox="0 0 56 56" fill="none" xmlns="http://www.w3.org/2000/svg">
<path d="M36.1143 46.4819L7.01026 46.4819V39.5859C7.01026 37.8254 7.70962 36.137 8.95448 34.8922C10.1994 33.6473 11.8878 32.9479 13.6483 32.9479H29.4663C30.3381 32.9466 31.2017 33.1171 32.0077 33.4496C32.8137 33.7821 33.5463 34.2701 34.1637 34.8858C34.781 35.5015 35.271 36.2327 35.6057 37.0378C35.9404 37.8429 36.1132 38.706 36.1143 39.5779V46.4819Z" fill="white"/>
<path d="M21.4438 32.312L21.5038 32.382L23.0178 34.096L24.2418 35.482C24.3329 35.5852 24.4583 35.6518 24.5948 35.6694C24.7313 35.6871 24.8695 35.6546 24.9838 35.578L28.3998 33.302C28.4727 33.2536 28.5334 33.189 28.5772 33.1133C28.621 33.0375 28.6467 32.9527 28.6523 32.8654C28.6579 32.7781 28.6433 32.6907 28.6096 32.6099C28.5758 32.5292 28.5239 32.4574 28.4578 32.4L26.4718 30.666" fill="white"/>
<path d="M21.4438 32.312L21.5038 32.382L23.0178 34.096L24.2418 35.482C24.3329 35.5852 24.4583 35.6518 24.5948 35.6694C24.7313 35.6871 24.8695 35.6546 24.9838 35.578L28.3998 33.302C28.4727 33.2536 28.5334 33.189 28.5772 33.1133C28.621 33.0375 28.6467 32.9527 28.6523 32.8654C28.6579 32.7781 28.6433 32.6907 28.6096 32.6099C28.5758 32.5292 28.5239 32.4574 28.4578 32.4L26.4718 30.666" stroke="#000062" stroke-miterlimit="10"/>
<path d="M21.4445 32.312L21.3845 32.382L19.8705 34.096L18.6465 35.482C18.5554 35.5852 18.43 35.6518 18.2935 35.6694C18.1571 35.6871 18.0188 35.6546 17.9045 35.578L14.4885 33.302C14.4156 33.2536 14.3549 33.189 14.3111 33.1133C14.2674 33.0375 14.2416 32.9527 14.236 32.8654C14.2304 32.7781 14.2451 32.6907 14.2788 32.6099C14.3125 32.5292 14.3644 32.4574 14.4305 32.4L16.4165 30.666" fill="white"/>
<path d="M21.4445 32.312L21.3845 32.382L19.8705 34.096L18.6465 35.482C18.5554 35.5852 18.43 35.6518 18.2935 35.6694C18.1571 35.6871 18.0188 35.6546 17.9045 35.578L14.4885 33.302C14.4156 33.2536 14.3549 33.189 14.3111 33.1133C14.2674 33.0375 14.2416 32.9527 14.236 32.8654C14.2304 32.7781 14.2451 32.6907 14.2788 32.6099C14.3125 32.5292 14.3644 32.4574 14.4305 32.4L16.4165 30.666" stroke="#000062" stroke-miterlimit="10"/>
<path d="M23.0196 34.0959L22.8196 35.0019C22.6133 35.9765 22.6664 36.9882 22.9736 37.9359L24.2396 41.8359C24.6319 43.0448 24.5328 44.3595 23.9636 45.4959L23.3296 46.7599H19.5496L18.9156 45.4959C18.3464 44.3595 18.2473 43.0448 18.6396 41.8359L19.9056 37.9299C20.2128 36.9822 20.2659 35.9705 20.0596 34.9959L19.8596 34.0899L20.9576 32.6799C21.0136 32.6065 21.0857 32.547 21.1685 32.5061C21.2512 32.4651 21.3423 32.4438 21.4346 32.4438C21.5269 32.4438 21.618 32.4651 21.7007 32.5061C21.7834 32.547 21.8556 32.6065 21.9116 32.6799L23.0196 34.0959Z" fill="white" stroke="#000062" stroke-miterlimit="10"/>
<path d="M22.9535 10.13C24.8421 10.4832 26.5478 11.4856 27.7754 12.9637C29.0029 14.4418 29.6751 16.3026 29.6755 18.224V24.15C29.6755 26.3229 28.8165 28.4077 27.2856 29.9497C25.7548 31.4918 23.6763 32.3661 21.5035 32.382H21.3815C19.2086 32.3661 17.1302 31.4918 15.5993 29.9497C14.0685 28.4077 13.2094 26.3229 13.2095 24.15V18.222C13.2107 16.2792 13.8984 14.3993 15.151 12.9143C16.4036 11.4293 18.1407 10.4346 20.0555 10.106" fill="white"/>
<path d="M22.9535 10.13C24.8421 10.4832 26.5478 11.4856 27.7754 12.9637C29.0029 14.4418 29.6751 16.3026 29.6755 18.224V24.15C29.6755 26.3229 28.8165 28.4077 27.2856 29.9497C25.7548 31.4918 23.6763 32.3661 21.5035 32.382H21.3815C19.2086 32.3661 17.1302 31.4918 15.5993 29.9497C14.0685 28.4077 13.2094 26.3229 13.2095 24.15V18.222C13.2107 16.2792 13.8984 14.3993 15.151 12.9143C16.4036 11.4293 18.1407 10.4346 20.0555 10.106" stroke="#000062" stroke-miterlimit="10"/>
<path d="M29.6754 21.186C29.6754 21.186 26.9734 19.314 25.5694 17.902C25.3241 17.6518 24.9954 17.5005 24.6458 17.4769C24.2962 17.4533 23.9501 17.559 23.6734 17.774C21.4154 19.544 16.2234 23.066 13.2114 20.748" stroke="#000062" stroke-miterlimit="10"/>
<path d="M21.5053 32.3818H21.5033H21.3813" stroke="#000062" stroke-miterlimit="10"/>
<path d="M31.3003 46.7599H6.80029V40.5799C6.80048 38.5025 7.5891 36.5027 9.00686 34.9843C10.4246 33.4659 12.3658 32.5423 14.4383 32.3999" stroke="#000062" stroke-miterlimit="10"/>
<path d="M11.6001 46.7599H36.1041V40.5799C36.1058 39.1342 35.7244 37.7138 34.9985 36.4634C34.2727 35.213 33.2284 34.1774 31.9721 33.4619C31.8861 33.4079 31.7961 33.3599 31.7081 33.3159" stroke="#000062" stroke-miterlimit="10"/>
<path d="M28.458 32.4019C30.1021 32.5087 31.6752 33.1111 32.97 34.1299" stroke="#000062" stroke-miterlimit="10"/>
<path d="M23.1303 38.3921H19.7583" stroke="#000062" stroke-miterlimit="10"/>
<path d="M31.9331 42.438V46.474" stroke="#000062" stroke-miterlimit="10"/>
<path d="M10.9517 42.438V46.76" stroke="#000062" stroke-miterlimit="10"/>
<path d="M21.4938 10.4559C21.7854 10.4559 22.0218 10.2195 22.0218 9.9279C22.0218 9.6363 21.7854 9.3999 21.4938 9.3999C21.2022 9.3999 20.9658 9.6363 20.9658 9.9279C20.9658 10.2195 21.2022 10.4559 21.4938 10.4559Z" fill="#000062"/>
<path d="M26.4477 25.0239C26.4477 26.0848 26.0263 27.1022 25.2761 27.8524C24.526 28.6025 23.5086 29.0239 22.4477 29.0239H22.3657" stroke="#000062" stroke-miterlimit="10"/>
<path d="M33.3157 22.6313L41.6683 22.6313C41.6939 22.6313 41.7192 22.6256 41.7428 22.6145C41.7664 22.6034 41.7878 22.5872 41.8057 22.5667C41.8237 22.5462 41.8379 22.522 41.8476 22.4953C41.8572 22.4686 41.862 22.44 41.8618 22.4112L41.8618 20.5548C41.8616 20.5313 41.867 20.5083 41.8774 20.4879C41.8878 20.4676 41.9028 20.4508 41.9209 20.4392C41.939 20.4276 41.9595 20.4216 41.9803 20.4219C42.0011 20.4222 42.0214 20.4287 42.0393 20.4407L49.0589 25.0098C49.0762 25.0213 49.0906 25.0377 49.1005 25.0574C49.1105 25.077 49.1157 25.0992 49.1157 25.1219C49.1157 25.1445 49.1105 25.1667 49.1005 25.1864C49.0906 25.206 49.0762 25.2224 49.0589 25.2339L42.0393 29.803C42.0214 29.8151 42.0011 29.8216 41.9803 29.8219C41.9595 29.8221 41.939 29.8162 41.9209 29.8045C41.9028 29.7929 41.8878 29.7761 41.8774 29.7558C41.867 29.7355 41.8616 29.7124 41.8618 29.689L41.8618 27.8325C41.862 27.8037 41.8572 27.7752 41.8476 27.7485C41.8379 27.7218 41.8237 27.6975 41.8057 27.677C41.7878 27.6566 41.7664 27.6403 41.7428 27.6293C41.7192 27.6182 41.6939 27.6125 41.6683 27.6125L33.3157 27.6125" fill="white"/>
<path d="M33.3157 22.6313L41.6683 22.6313C41.6939 22.6313 41.7192 22.6256 41.7428 22.6145C41.7664 22.6034 41.7878 22.5872 41.8057 22.5667C41.8237 22.5462 41.8379 22.522 41.8476 22.4953C41.8572 22.4686 41.862 22.44 41.8618 22.4112L41.8618 20.5548C41.8616 20.5313 41.867 20.5083 41.8774 20.4879C41.8878 20.4676 41.9028 20.4508 41.9209 20.4392C41.939 20.4276 41.9595 20.4216 41.9803 20.4219C42.0011 20.4222 42.0214 20.4287 42.0393 20.4407L49.0589 25.0098C49.0762 25.0213 49.0906 25.0377 49.1005 25.0574C49.1105 25.077 49.1157 25.0992 49.1157 25.1219C49.1157 25.1445 49.1105 25.1667 49.1005 25.1864C49.0906 25.206 49.0762 25.2224 49.0589 25.2339L42.0393 29.803C42.0214 29.8151 42.0011 29.8216 41.9803 29.8219C41.9595 29.8221 41.939 29.8162 41.9209 29.8045C41.9028 29.7929 41.8878 29.7761 41.8774 29.7558C41.867 29.7355 41.8616 29.7124 41.8618 29.689L41.8618 27.8325C41.862 27.8037 41.8572 27.7752 41.8476 27.7485C41.8379 27.7218 41.8237 27.6975 41.8057 27.677C41.7878 27.6566 41.7664 27.6403 41.7428 27.6293C41.7192 27.6182 41.6939 27.6125 41.6683 27.6125L33.3157 27.6125L33.3157 22.6313Z" stroke="#000062" stroke-miterlimit="10" stroke-linejoin="round"/>
</svg>
