<svg width="56" height="56" viewBox="0 0 56 56" fill="none" xmlns="http://www.w3.org/2000/svg">
<path d="M21.4383 40.5003L34.3863 39.1883L40.3363 36.9023L44.0203 38.9023C44.0203 38.9023 40.3883 44.9023 29.4383 43.5543C18.4883 42.2063 21.4383 40.5003 21.4383 40.5003Z" fill="white"/>
<path d="M41.3681 22.1702C40.5472 25.3797 38.5831 28.1792 35.8444 30.0432C33.1057 31.9072 29.7809 32.7075 26.494 32.2938C23.2071 31.8801 20.1842 30.2809 17.9929 27.7964C15.8015 25.312 14.5923 22.113 14.5923 18.8002C14.5923 15.4874 15.8015 12.2885 17.9929 9.80403C20.1842 7.31955 23.2071 5.72037 26.494 5.30668C29.7809 4.893 33.1057 5.69326 35.8444 7.55724C38.5831 9.42122 40.5472 12.2207 41.3681 15.4302" fill="white"/>
<path d="M41.3681 22.1702C40.5472 25.3797 38.5831 28.1792 35.8444 30.0432C33.1057 31.9072 29.7809 32.7075 26.494 32.2938C23.2071 31.8801 20.1842 30.2809 17.9929 27.7964C15.8015 25.312 14.5923 22.113 14.5923 18.8002C14.5923 15.4874 15.8015 12.2885 17.9929 9.80403C20.1842 7.31955 23.2071 5.72037 26.494 5.30668C29.7809 4.893 33.1057 5.69326 35.8444 7.55724C38.5831 9.42122 40.5472 12.2207 41.3681 15.4302" stroke="#000062" stroke-miterlimit="10"/>
<path d="M47.0981 42.7523L36.5881 49.0003C35.9704 49.3669 35.2936 49.6234 34.5881 49.7583L30.7201 50.4963C29.7997 50.6706 28.8519 50.6371 27.9461 50.3983L18.6261 47.9363C17.157 47.5471 15.6129 47.5395 14.1401 47.9143L9.5161 49.0943C9.29915 49.1536 9.07157 49.163 8.85047 49.1218C8.62936 49.0805 8.42049 48.9897 8.23954 48.8561C8.05859 48.7225 7.91028 48.5496 7.80577 48.3505C7.70125 48.1513 7.64324 47.9311 7.6361 47.7063L7.6001 42.4463C7.60041 42.1533 7.68996 41.8674 7.85681 41.6266C8.02367 41.3857 8.25991 41.2015 8.5341 41.0983L18.1501 37.3303C18.8045 37.0737 19.4977 36.9304 20.2001 36.9063L26.6441 36.6703L31.3501 36.4963H31.4221C31.7091 36.4821 31.9961 36.5261 32.2657 36.6257C32.5352 36.7253 32.7819 36.8785 32.9907 37.0759C33.1995 37.2734 33.3662 37.5111 33.4808 37.7746C33.5953 38.0382 33.6554 38.3223 33.6573 38.6096C33.6592 38.897 33.6029 39.1818 33.4918 39.4469C33.3807 39.712 33.2171 39.9518 33.0109 40.152C32.8047 40.3522 32.5601 40.5085 32.2919 40.6117C32.0236 40.7149 31.7373 40.7627 31.4501 40.7523L22.6841 40.8003C22.5949 40.7995 22.5064 40.8163 22.4237 40.8498C22.341 40.8832 22.2658 40.9327 22.2022 40.9953C22.1387 41.0579 22.0881 41.1324 22.0534 41.2146C22.0187 41.2968 22.0006 41.385 22.0001 41.4743V41.5123C22.0109 41.6704 22.0768 41.8197 22.1865 41.9341C22.2962 42.0486 22.4426 42.1208 22.6001 42.1383L26.6821 42.6523L32.5481 43.3903C33.1109 43.4617 33.6823 43.3671 34.1921 43.1183L43.8761 38.4003L44.4121 38.1403C44.793 37.955 45.2105 37.8573 45.6341 37.8543C46.0521 37.8495 46.4658 37.9389 46.8446 38.1159C47.2233 38.2928 47.5574 38.5527 47.8221 38.8763C48.0564 39.1683 48.2248 39.5075 48.3158 39.8707C48.4069 40.2338 48.4184 40.6124 48.3497 40.9804C48.2809 41.3485 48.1335 41.6973 47.9175 42.0031C47.7015 42.3089 47.422 42.5644 47.0981 42.7523Z" fill="white" stroke="#000062" stroke-miterlimit="10"/>
<path d="M44.0223 38.5522C43.9743 38.4962 43.9263 38.4422 43.8763 38.3902C43.1787 37.6604 42.2699 37.1674 41.2777 36.9805C40.2855 36.7936 39.2597 36.9222 38.3443 37.3483L34.0003 39.3643L33.5503 39.5643" stroke="#000062" stroke-miterlimit="10"/>
<path d="M32.633 22.626C31.6988 23.526 30.4284 24.0794 29.0287 24.0794C26.1592 24.0794 23.833 21.7532 23.833 18.8837C23.833 16.0142 26.1592 13.688 29.0287 13.688C30.4284 13.688 31.6988 14.2414 32.633 15.1414C32.0182 14.7996 31.3103 14.6049 30.5569 14.6049C28.1938 14.6049 26.2781 16.5206 26.2781 18.8837C26.2781 21.2468 28.1938 23.1625 30.5569 23.1625C31.3103 23.1625 32.0182 22.9678 32.633 22.626Z" fill="white" stroke="#000062" stroke-miterlimit="10" stroke-linejoin="round"/>
<path d="M41.3689 19.4581C41.7323 19.4581 42.0269 19.1635 42.0269 18.8001C42.0269 18.4367 41.7323 18.1421 41.3689 18.1421C41.0055 18.1421 40.7109 18.4367 40.7109 18.8001C40.7109 19.1635 41.0055 19.4581 41.3689 19.4581Z" fill="#000062"/>
<path d="M24.0568 9.92236H23.5428C23.0649 9.92236 22.5916 10.0165 22.1501 10.1995C21.7086 10.3824 21.3075 10.6506 20.9696 10.9886C20.6318 11.3266 20.3638 11.7279 20.1811 12.1695C19.9984 12.6112 19.9045 13.0844 19.9048 13.5624" stroke="#000062" stroke-miterlimit="10"/>
<path d="M12.7124 39.4624V48.2784" stroke="#000062" stroke-miterlimit="10"/>
<path d="M16.4126 38.0122V42.5502" stroke="#000062" stroke-miterlimit="10"/>
<path d="M16.4126 43.25V44.4" stroke="#000062" stroke-miterlimit="10"/>
</svg>
