<svg width="56" height="56" viewBox="0 0 56 56" fill="none" xmlns="http://www.w3.org/2000/svg">
<path d="M18.2456 31.6322V42.8942C18.2456 43.1559 18.3494 43.4069 18.5343 43.5921C18.7191 43.7773 18.9699 43.8817 19.2316 43.8822H48.6316C48.8936 43.8822 49.1449 43.7781 49.3302 43.5928C49.5155 43.4075 49.6196 43.1562 49.6196 42.8942V13.0002L42.3836 5.7002H19.2316C18.9699 5.70073 18.7191 5.80505 18.5343 5.99028C18.3494 6.17551 18.2456 6.42651 18.2456 6.6882V23.3562" fill="white"/>
<path d="M13.3081 37.5101V48.7721C13.3081 49.0338 13.4119 49.2848 13.5968 49.47C13.7816 49.6553 14.0324 49.7596 14.2941 49.7601H43.6941C43.9561 49.7601 44.2074 49.656 44.3927 49.4707C44.578 49.2855 44.6821 49.0342 44.6821 48.7721V18.8861L37.4461 11.5781H14.2941C14.0324 11.5787 13.7816 11.683 13.5968 11.8682C13.4119 12.0534 13.3081 12.3044 13.3081 12.5661V29.2341" fill="white"/>
<path fill-rule="evenodd" clip-rule="evenodd" d="M14.2931 11.0781L14.2941 11.0781L37.6547 11.0781L45.1821 18.6805V48.7721C45.1821 49.1668 45.0253 49.5452 44.7463 49.8243C44.4672 50.1033 44.0887 50.2601 43.6941 50.2601H14.2931C13.899 50.2593 13.5213 50.1022 13.2429 49.8232C12.9645 49.5443 12.8081 49.1662 12.8081 48.7721V37.5101H13.8081V48.7721C13.8081 48.9014 13.8594 49.0254 13.9507 49.1168C14.042 49.2083 14.1659 49.2599 14.2951 49.2601H43.6941C43.8235 49.2601 43.9477 49.2087 44.0392 49.1172C44.1307 49.0257 44.1821 48.9015 44.1821 48.7721V19.0918L37.2375 12.0781H14.2947C14.1656 12.0785 14.0419 12.13 13.9507 12.2214C13.8594 12.3129 13.8081 12.4369 13.8081 12.5661V29.2341H12.8081V12.5661C12.8081 12.172 12.9645 11.794 13.2429 11.515C13.5213 11.236 13.899 11.0789 14.2931 11.0781Z" fill="#000062"/>
<path d="M38.6003 42.938C37.6661 43.838 36.3957 44.3914 34.996 44.3914C32.1265 44.3914 29.8003 42.0652 29.8003 39.1957C29.8003 36.3262 32.1265 34 34.996 34C36.3957 34 37.6661 34.5534 38.6003 35.4534C37.9854 35.1116 37.2775 34.9169 36.5242 34.9169C34.161 34.9169 32.2453 36.8326 32.2453 39.1957C32.2453 41.5588 34.161 43.4745 36.5242 43.4745C37.2775 43.4745 37.9854 43.2798 38.6003 42.938Z" fill="white" stroke="#000062" stroke-miterlimit="10" stroke-linejoin="round"/>
<path fill-rule="evenodd" clip-rule="evenodd" d="M37.9453 18.3861V11.5781H36.9453V19.3861H44.6813V18.3861H37.9453Z" fill="#000062"/>
<path fill-rule="evenodd" clip-rule="evenodd" d="M26.4268 5.2002H42.635L50.1688 12.7943V42.8942C50.1688 43.2888 50.012 43.6673 49.7329 43.9464C49.4539 44.2254 49.0754 44.3822 48.6808 44.3822H44.6808V43.3822H48.6808C48.8102 43.3822 48.9343 43.3308 49.0258 43.2393C49.1173 43.1477 49.1688 43.0236 49.1688 42.8942V13.2061L42.2185 6.2002H26.4268V5.2002Z" fill="#000062"/>
<path fill-rule="evenodd" clip-rule="evenodd" d="M19.2741 5.2002L19.2751 5.2002L23.5211 5.2002V6.2002H19.2757C19.1466 6.20057 19.0229 6.25208 18.9316 6.34348C18.8403 6.43497 18.7891 6.55894 18.7891 6.6882V11.5782H17.7891V6.6882C17.7891 6.29408 17.9454 5.91605 18.2238 5.63709C18.5022 5.35812 18.8799 5.201 19.2741 5.2002Z" fill="#000062"/>
<path fill-rule="evenodd" clip-rule="evenodd" d="M42.9268 12.5082V5.7002H41.9268V13.5082H49.6608V12.5082H42.9268Z" fill="#000062"/>
<path fill-rule="evenodd" clip-rule="evenodd" d="M24.122 21.1001H16.522V20.1001H24.122V21.1001Z" fill="#000062"/>
<path fill-rule="evenodd" clip-rule="evenodd" d="M35.79 24.5684H16.522V23.5684H35.79V24.5684Z" fill="#000062"/>
<path fill-rule="evenodd" clip-rule="evenodd" d="M26.156 28.0342H16.522V27.0342H26.156V28.0342Z" fill="#000062"/>
<path fill-rule="evenodd" clip-rule="evenodd" d="M32.8562 21.1001H25.7222V20.1001H32.8562V21.1001Z" fill="#000062"/>
<path d="M6.17602 18.958L7.01202 18.542C7.23375 18.4318 7.4902 18.4141 7.72498 18.4928C7.95976 18.5716 8.15365 18.7404 8.26402 18.962L19.414 41.414L18.912 43.318C18.8845 43.4223 18.835 43.5195 18.7669 43.6032C18.6988 43.6868 18.6136 43.755 18.5171 43.803C18.4205 43.8511 18.3148 43.878 18.207 43.882C18.0992 43.886 17.9918 43.8669 17.892 43.826L16.072 43.076L4.91802 20.624C4.80775 20.4023 4.79005 20.1459 4.86881 19.9111C4.94757 19.6763 5.11634 19.4824 5.33802 19.372L6.17602 18.958Z" fill="white"/>
<path fill-rule="evenodd" clip-rule="evenodd" d="M7.23467 18.9897C7.23463 18.9898 7.2347 18.9897 7.23467 18.9897L6.39749 19.4063L5.56033 19.8199C5.45759 19.8712 5.37938 19.9612 5.34285 20.0701C5.30625 20.1792 5.31448 20.2984 5.36572 20.4014L16.4362 42.6853L18.0814 43.3633C18.0815 43.3634 18.0817 43.3634 18.0818 43.3635C18.1157 43.3773 18.1521 43.3837 18.1886 43.3824C18.2253 43.381 18.2613 43.3718 18.2942 43.3555C18.327 43.3391 18.356 43.3159 18.3792 43.2874C18.4023 43.259 18.4192 43.226 18.4285 43.1906M18.4285 43.1906L18.8827 41.4682L7.81643 19.1849C7.81639 19.1848 7.81635 19.1847 7.81631 19.1847C7.765 19.0818 7.67497 19.0034 7.56596 18.9669C7.4569 18.9303 7.33768 18.9385 7.23467 18.9897M6.78938 18.0944C7.12981 17.9251 7.52354 17.8979 7.884 18.0188C8.24447 18.1397 8.54215 18.3988 8.71161 18.7392L19.9454 41.3599L19.3955 43.4455C19.3498 43.6186 19.2676 43.7801 19.1546 43.9189C19.0416 44.0577 18.9002 44.1708 18.74 44.2506C18.5797 44.3304 18.4043 44.3751 18.2254 44.3817C18.0465 44.3883 17.8683 44.3566 17.7026 44.2888L17.7015 44.2883L15.7078 43.4668L4.47033 20.8467C4.4703 20.8466 4.47027 20.8466 4.47024 20.8465C4.30102 20.5061 4.27387 20.1125 4.39477 19.7521C4.5157 19.3916 4.77482 19.0939 5.11517 18.9245L5.11656 18.9238L5.95456 18.5098L6.78938 18.0944Z" fill="#000062"/>
<path fill-rule="evenodd" clip-rule="evenodd" d="M4.66677 22.9523L9.13617 20.7246L9.58226 21.6196L5.11167 23.8479C4.72183 24.0416 4.42484 24.3821 4.28598 24.7946C4.14714 25.2072 4.17776 25.6579 4.37112 26.0479C4.37111 26.0479 4.37113 26.0479 4.37112 26.0479L6.33902 30.0097L5.44342 30.4545L3.47527 26.4922C3.1641 25.8648 3.11481 25.1394 3.33823 24.4756C3.56162 23.8119 4.03937 23.2641 4.66648 22.9525C4.66657 22.9524 4.66667 22.9524 4.66677 22.9523Z" fill="#000062"/>
<path fill-rule="evenodd" clip-rule="evenodd" d="M15.6831 32.7817L11.4435 34.8881L9.33716 30.6486L13.5767 28.5422L15.6831 32.7817ZM14.3426 32.3311L13.1261 29.8827L10.6777 31.0992L11.8941 33.5476L14.3426 32.3311Z" fill="#000062"/>
<path d="M24.9707 6.18021C25.2358 6.18021 25.4507 5.96531 25.4507 5.70021C25.4507 5.43512 25.2358 5.22021 24.9707 5.22021C24.7056 5.22021 24.4907 5.43512 24.4907 5.70021C24.4907 5.96531 24.7056 6.18021 24.9707 6.18021Z" fill="#000062"/>
<path fill-rule="evenodd" clip-rule="evenodd" d="M34.7393 8.28418H42.4273V9.28418H34.7393V8.28418Z" fill="#000062"/>
<path fill-rule="evenodd" clip-rule="evenodd" d="M33.5903 9.28418H31.8223V8.28418H33.5903V9.28418Z" fill="#000062"/>
</svg>
