<svg width="56" height="56" viewBox="0 0 56 56" fill="none" xmlns="http://www.w3.org/2000/svg">
<path d="M39.8389 27.8602C38.7525 32.108 36.1529 35.8133 32.5281 38.2803C28.9034 40.7473 24.5029 41.8065 20.1526 41.259C15.8023 40.7114 11.8015 38.5949 8.90113 35.3066C6.00078 32.0183 4.40039 27.7845 4.40039 23.3999C4.40039 19.0153 6.00078 14.7815 8.90113 11.4932C11.8015 8.20493 15.8023 6.08836 20.1526 5.54084C24.5029 4.99332 28.9034 6.05248 32.5281 8.51951C36.1529 10.9865 38.7525 14.6918 39.8389 18.9396" fill="white"/>
<path d="M39.8389 27.8602C38.7525 32.108 36.1529 35.8133 32.5281 38.2803C28.9034 40.7473 24.5029 41.8065 20.1526 41.259C15.8023 40.7114 11.8015 38.5949 8.90113 35.3066C6.00078 32.0183 4.40039 27.7845 4.40039 23.3999C4.40039 19.0153 6.00078 14.7815 8.90113 11.4932C11.8015 8.20493 15.8023 6.08836 20.1526 5.54084C24.5029 4.99332 28.9034 6.05248 32.5281 8.51951C36.1529 10.9865 38.7525 14.6918 39.8389 18.9396" stroke="#000062" stroke-miterlimit="10"/>
<path d="M28.2774 28.4635C27.0409 29.6546 25.3595 30.3871 23.507 30.3871C19.7092 30.3871 16.6304 27.3083 16.6304 23.5105C16.6304 19.7126 19.7092 16.6338 23.507 16.6338C25.3595 16.6338 27.0409 17.3663 28.2774 18.5574C27.4636 18.105 26.5267 17.8473 25.5296 17.8473C22.4019 17.8473 19.8665 20.3828 19.8665 23.5105C19.8665 26.6381 22.4019 29.1736 25.5296 29.1736C26.5267 29.1736 27.4636 28.9159 28.2774 28.4635Z" fill="white" stroke="#000062" stroke-miterlimit="10" stroke-linejoin="round"/>
<path d="M39.8401 24.2706C40.3211 24.2706 40.711 23.8807 40.711 23.3997C40.711 22.9187 40.3211 22.5288 39.8401 22.5288C39.3591 22.5288 38.9692 22.9187 38.9692 23.3997C38.9692 23.8807 39.3591 24.2706 39.8401 24.2706Z" fill="#000062"/>
<path d="M16.9269 11.6499H16.2466C15.6141 11.6499 14.9878 11.7745 14.4034 12.0167C13.819 12.2588 13.2881 12.6137 12.841 13.0611C12.3938 13.5085 12.0392 14.0396 11.7974 14.6241C11.5556 15.2086 11.4313 15.835 11.4316 16.4675" stroke="#000062" stroke-miterlimit="10"/>
<path d="M50.8542 37.7638C50.5126 35.0123 49.1769 32.4807 47.0986 30.6455C45.0203 28.8103 42.3428 27.7982 39.5702 27.7998C39.0402 27.7996 38.5109 27.837 37.9862 27.9118C35.4729 28.2654 33.1501 29.4496 31.3876 31.2759C29.6251 33.1021 28.5242 35.4655 28.2602 37.9898C28.22 38.3825 28.1999 38.777 28.2002 39.1718C28.2034 42.0562 29.3026 44.8316 31.2752 46.9361C33.2478 49.0406 35.9463 50.3168 38.8245 50.5065C41.7027 50.6961 44.5454 49.785 46.777 47.9575C49.0087 46.1301 50.4625 43.5229 50.8442 40.6638" fill="white"/>
<path d="M50.8542 37.7638C50.5126 35.0123 49.1769 32.4807 47.0986 30.6455C45.0203 28.8103 42.3428 27.7982 39.5702 27.7998C39.0402 27.7996 38.5109 27.837 37.9862 27.9118C35.4729 28.2654 33.1501 29.4496 31.3876 31.2759C29.6251 33.1021 28.5242 35.4655 28.2602 37.9898C28.22 38.3825 28.1999 38.777 28.2002 39.1718C28.2034 42.0562 29.3026 44.8316 31.2752 46.9361C33.2478 49.0406 35.9463 50.3168 38.8245 50.5065C41.7027 50.6961 44.5454 49.785 46.777 47.9575C49.0087 46.1301 50.4625 43.5229 50.8442 40.6638" stroke="#000062" stroke-miterlimit="10"/>
<path d="M43.4766 42.98L42.1112 41.6146L37.2052 36.7086L35.8398 35.3432" fill="white"/>
<path d="M43.4766 42.98L42.1112 41.6146L37.2052 36.7086L35.8398 35.3432" stroke="#000062" stroke-miterlimit="10" stroke-linecap="round"/>
<path d="M35.8394 42.98L37.2047 41.6146L42.1108 36.7086L43.4761 35.3432" fill="white"/>
<path d="M35.8394 42.98L37.2047 41.6146L42.1108 36.7086L43.4761 35.3432" stroke="#000062" stroke-miterlimit="10" stroke-linecap="round"/>
<path d="M50.9395 39.6939C51.2046 39.6939 51.4195 39.479 51.4195 39.2139C51.4195 38.9488 51.2046 38.7339 50.9395 38.7339C50.6744 38.7339 50.4595 38.9488 50.4595 39.2139C50.4595 39.479 50.6744 39.6939 50.9395 39.6939Z" fill="#000062"/>
</svg>
