<svg width="56" height="56" viewBox="0 0 56 56" fill="none" xmlns="http://www.w3.org/2000/svg">
<path d="M23.0015 17.6592H18.1682C17.8338 17.6598 17.5133 17.7929 17.2769 18.0293C17.0404 18.2657 16.9073 18.5862 16.9067 18.9206V48.9537C16.9073 49.288 17.0404 49.6085 17.2769 49.845C17.5133 50.0814 17.8338 50.2145 18.1682 50.2151H41.1425C41.4769 50.2145 41.7974 50.0814 42.0338 49.845C42.2703 49.6085 42.4034 49.288 42.404 48.9537V18.9206C42.4034 18.5862 42.2703 18.2657 42.0338 18.0293C41.7974 17.7929 41.4769 17.6598 41.1425 17.6592H36.3092" fill="white"/>
<path d="M23.0015 17.6592H18.1682C17.8338 17.6598 17.5133 17.7929 17.2769 18.0293C17.0404 18.2657 16.9073 18.5862 16.9067 18.9206V48.9537C16.9073 49.288 17.0404 49.6085 17.2769 49.845C17.5133 50.0814 17.8338 50.2145 18.1682 50.2151H41.1425C41.4769 50.2145 41.7974 50.0814 42.0338 49.845C42.2703 49.6085 42.4034 49.288 42.404 48.9537V18.9206C42.4034 18.5862 42.2703 18.2657 42.0338 18.0293C41.7974 17.7929 41.4769 17.6598 41.1425 17.6592H36.3092" stroke="#000062" stroke-miterlimit="10"/>
<path d="M19.4946 14.5146H14.6613C14.327 14.5152 14.0065 14.6483 13.77 14.8848C13.5336 15.1212 13.4005 15.4417 13.3999 15.7761V45.8091C13.4005 46.1435 13.5336 46.464 13.77 46.7004C14.0065 46.9369 14.327 47.07 14.6613 47.0706H37.6357C37.9701 47.07 38.2906 46.9369 38.527 46.7004C38.7634 46.464 38.8965 46.1435 38.8971 45.8091V15.7761C38.8965 15.4417 38.7634 15.1212 38.527 14.8848C38.2906 14.6483 37.9701 14.5152 37.6357 14.5146H32.8024" fill="white"/>
<path d="M19.4946 14.5146H14.6613C14.327 14.5152 14.0065 14.6483 13.77 14.8848C13.5336 15.1212 13.4005 15.4417 13.3999 15.7761V45.8091C13.4005 46.1435 13.5336 46.464 13.77 46.7004C14.0065 46.9369 14.327 47.07 14.6613 47.0706H37.6357C37.97 47.07 38.2906 46.9369 38.527 46.7004C38.7634 46.464 38.8965 46.1435 38.8971 45.8091V15.7761C38.8965 15.4417 38.7634 15.1212 38.527 14.8848C38.2906 14.6483 37.97 14.5152 37.6357 14.5146H32.8024" stroke="#000062" stroke-miterlimit="10"/>
<path d="M23.2252 17.6592H21.4448" stroke="#000062" stroke-miterlimit="10"/>
<path d="M17.1304 47.0703V48.9535C17.1304 49.2881 17.2633 49.6089 17.4998 49.8455C17.7364 50.0821 18.0573 50.215 18.3918 50.215H21.5566" stroke="#000062" stroke-miterlimit="10"/>
<path d="M38.898 17.6592H41.3583C41.6926 17.6598 42.0132 17.7929 42.2496 18.0293C42.486 18.2657 42.6191 18.5862 42.6197 18.9206V48.9537C42.6197 49.2882 42.4868 49.6091 42.2502 49.8456C42.0137 50.0822 41.6928 50.2151 41.3583 50.2151H29.0928" stroke="#000062" stroke-miterlimit="10"/>
<path d="M32.8001 14.2483V15.5254C32.8001 16.0937 32.5744 16.6387 32.1726 17.0405C31.7708 17.4423 31.2258 17.6681 30.6575 17.6681H21.6373C21.5732 17.6715 21.509 17.6715 21.4449 17.6681C20.912 17.6206 20.4162 17.3752 20.0552 16.9802C19.6942 16.5853 19.4942 16.0694 19.4946 15.5344V14.2483C19.4946 13.6801 19.7204 13.1351 20.1222 12.7332C20.524 12.3314 21.069 12.1057 21.6373 12.1057C22.2056 12.1057 22.7506 11.8799 23.1524 11.4781C23.5542 11.0763 23.78 10.5313 23.78 9.96301V7.14266C23.78 6.57478 24.0054 6.03012 24.4067 5.62836C24.8081 5.2266 25.3525 5.00059 25.9204 5H26.3677C26.6493 4.99971 26.9281 5.05491 27.1883 5.16246C27.4486 5.27001 27.685 5.42779 27.8842 5.62678C28.0834 5.82577 28.2415 6.06208 28.3493 6.32218C28.4571 6.58229 28.5126 6.8611 28.5126 7.14266V9.96301C28.5132 10.5311 28.7391 11.0757 29.1408 11.4774C29.5425 11.8791 30.0872 12.1051 30.6553 12.1057C30.9369 12.1051 31.2159 12.1601 31.4762 12.2675C31.7366 12.375 31.9732 12.5327 32.1724 12.7318C32.3717 12.9308 32.5297 13.1673 32.6374 13.4275C32.7451 13.6877 32.8004 13.9667 32.8001 14.2483Z" fill="white" stroke="#000062" stroke-miterlimit="10"/>
<path d="M31.0202 30.3025C29.9755 31.3089 28.5548 31.9279 26.9896 31.9279C23.7806 31.9279 21.1792 29.3265 21.1792 26.1175C21.1792 22.9085 23.7806 20.3071 26.9896 20.3071C28.5548 20.3071 29.9755 20.926 31.0202 21.9325C30.3326 21.5502 29.541 21.3325 28.6985 21.3325C26.0558 21.3325 23.9135 23.4748 23.9135 26.1175C23.9135 28.7602 26.0558 30.9025 28.6985 30.9025C29.541 30.9025 30.3326 30.6848 31.0202 30.3025Z" fill="white" stroke="#000062" stroke-miterlimit="10" stroke-linejoin="round"/>
<path d="M20.3018 38.1733H31.9925" stroke="#000062" stroke-miterlimit="10"/>
<path d="M20.3018 35.0552H28.2506" stroke="#000062" stroke-miterlimit="10"/>
<path d="M29.6553 35.0552H31.9925" stroke="#000062" stroke-miterlimit="10"/>
<path d="M20.3018 41.291H25.0568" stroke="#000062" stroke-miterlimit="10"/>
<path d="M31.0202 30.3025C29.9755 31.3089 28.5548 31.9279 26.9896 31.9279C23.7806 31.9279 21.1792 29.3265 21.1792 26.1175C21.1792 22.9085 23.7806 20.3071 26.9896 20.3071C28.5548 20.3071 29.9755 20.926 31.0202 21.9325C30.3326 21.5502 29.541 21.3325 28.6985 21.3325C26.0558 21.3325 23.9135 23.4748 23.9135 26.1175C23.9135 28.7602 26.0558 30.9025 28.6985 30.9025C29.541 30.9025 30.3326 30.6848 31.0202 30.3025Z" fill="white" stroke="#000062" stroke-miterlimit="10" stroke-linejoin="round"/>
<path d="M20.3018 38.1733H31.9925" stroke="#000062" stroke-miterlimit="10"/>
<path d="M20.3018 35.0552H28.2506" stroke="#000062" stroke-miterlimit="10"/>
<path d="M20.3018 41.291H25.0568" stroke="#000062" stroke-miterlimit="10"/>
<path d="M25.3247 50.9512C25.7311 50.9512 26.0605 50.6217 26.0605 50.2153C26.0605 49.8089 25.7311 49.4795 25.3247 49.4795C24.9183 49.4795 24.5889 49.8089 24.5889 50.2153C24.5889 50.6217 24.9183 50.9512 25.3247 50.9512Z" fill="#000062"/>
<path d="M16.561 14.5146V29.1532" stroke="#000062" stroke-miterlimit="10"/>
<path d="M16.561 30.1953V32.2083" stroke="#000062" stroke-miterlimit="10"/>
<path d="M23.772 10.1377V14.6892" stroke="#000062" stroke-miterlimit="10"/>
<path d="M23.772 15.248V16.0689" stroke="#000062" stroke-miterlimit="10"/>
</svg>
