<svg width="56" height="56" viewBox="0 0 56 56" fill="none" xmlns="http://www.w3.org/2000/svg">
<path d="M12.2757 38.1537H8.77368C8.48499 38.1539 8.19908 38.0972 7.93232 37.9868C7.66557 37.8764 7.42318 37.7145 7.21904 37.5104C7.0149 37.3062 6.85302 37.0638 6.74263 36.7971C6.63223 36.5303 6.5755 36.2444 6.57568 35.9557V12.7277C6.57571 12.4392 6.63257 12.1535 6.74307 11.8869C6.85356 11.6204 7.01551 11.3782 7.21963 11.1743C7.42375 10.9703 7.66607 10.8086 7.93272 10.6984C8.19937 10.5881 8.48514 10.5315 8.77368 10.5317H47.2277C47.81 10.532 48.3684 10.7635 48.7802 11.1752C49.1919 11.587 49.4234 12.1454 49.4237 12.7277V35.9557C49.4238 36.5384 49.1926 37.0972 48.7808 37.5094C48.369 37.9216 47.8103 38.1533 47.2277 38.1537H15.2757" fill="white"/>
<path d="M12.2757 38.1537H8.77368C8.48499 38.1539 8.19908 38.0972 7.93232 37.9868C7.66557 37.8764 7.42318 37.7145 7.21904 37.5104C7.0149 37.3062 6.85302 37.0638 6.74263 36.7971C6.63223 36.5303 6.5755 36.2444 6.57568 35.9557V12.7277C6.57571 12.4392 6.63257 12.1535 6.74307 11.8869C6.85356 11.6204 7.01551 11.3782 7.21963 11.1743C7.42375 10.9703 7.66607 10.8086 7.93272 10.6984C8.19937 10.5881 8.48514 10.5315 8.77368 10.5317H47.2277C47.81 10.532 48.3684 10.7635 48.7802 11.1752C49.1919 11.587 49.4234 12.1454 49.4237 12.7277V35.9557C49.4238 36.5384 49.1926 37.0972 48.7808 37.5094C48.369 37.9216 47.8103 38.1533 47.2277 38.1537H15.2757" stroke="#000062" stroke-miterlimit="10" stroke-linecap="round"/>
<path d="M6.57568 16.105H49.4239" stroke="#000062" stroke-miterlimit="10" stroke-linecap="round"/>
<path d="M10.8651 14.2414C11.3364 14.2414 11.7185 13.8594 11.7185 13.388C11.7185 12.9167 11.3364 12.5347 10.8651 12.5347C10.3938 12.5347 10.0117 12.9167 10.0117 13.388C10.0117 13.8594 10.3938 14.2414 10.8651 14.2414Z" fill="#000062"/>
<path d="M15.4979 14.2414C15.9693 14.2414 16.3513 13.8594 16.3513 13.388C16.3513 12.9167 15.9693 12.5347 15.4979 12.5347C15.0266 12.5347 14.6445 12.9167 14.6445 13.388C14.6445 13.8594 15.0266 14.2414 15.4979 14.2414Z" fill="#000062"/>
<path d="M20.1307 14.2414C20.602 14.2414 20.9841 13.8594 20.9841 13.388C20.9841 12.9167 20.602 12.5347 20.1307 12.5347C19.6594 12.5347 19.2773 12.9167 19.2773 13.388C19.2773 13.8594 19.6594 14.2414 20.1307 14.2414Z" fill="#000062"/>
<path d="M13.7607 38.6092C14.0123 38.6092 14.2162 38.4053 14.2162 38.1537C14.2162 37.9022 14.0123 37.6982 13.7607 37.6982C13.5091 37.6982 13.3052 37.9022 13.3052 38.1537C13.3052 38.4053 13.5091 38.6092 13.7607 38.6092Z" fill="#000062"/>
<path d="M37.9758 34.5996V32.5362C37.9758 32.2207 37.8508 31.918 37.6281 31.6945C37.4054 31.471 37.1032 31.3448 36.7877 31.3437H36.0697C35.8209 31.3437 35.5785 31.2658 35.3762 31.121C35.1739 30.9763 35.0221 30.7718 34.9419 30.5364C34.8162 30.1637 34.667 29.7993 34.4952 29.4455C34.385 29.2225 34.3473 28.9707 34.3874 28.7252C34.4274 28.4797 34.5432 28.2529 34.7186 28.0765L35.2244 27.5696C35.4479 27.346 35.5735 27.0428 35.5735 26.7266C35.5735 26.4104 35.4479 26.1072 35.2244 25.8836L33.7605 24.4242C33.5368 24.2007 33.2336 24.0751 32.9174 24.0751C32.6012 24.0751 32.298 24.2007 32.0744 24.4242L31.5674 24.9311C31.391 25.1064 31.1642 25.2222 30.9187 25.2623C30.6732 25.3023 30.4214 25.2646 30.1984 25.1544C29.8446 24.9827 29.4802 24.8335 29.1075 24.7078C28.8727 24.6276 28.6689 24.4762 28.5244 24.2746C28.3799 24.0731 28.3019 23.8314 28.3012 23.5834V22.861C28.3012 22.7044 28.2704 22.5493 28.2105 22.4046C28.1505 22.2599 28.0627 22.1285 27.9519 22.0177C27.8412 21.907 27.7097 21.8192 27.565 21.7592C27.4204 21.6993 27.2653 21.6685 27.1087 21.6685H25.044C24.7277 21.6685 24.4244 21.7941 24.2007 22.0177C23.9771 22.2414 23.8514 22.5447 23.8514 22.861V23.5834C23.8514 23.8321 23.7736 24.0746 23.6288 24.2769C23.484 24.4791 23.2796 24.631 23.0441 24.7111C22.6714 24.8368 22.307 24.986 21.9532 25.1578C21.7302 25.268 21.4783 25.3057 21.2329 25.2656C20.9874 25.2256 20.7606 25.1098 20.5842 24.9345L20.0772 24.4275C19.8536 24.204 19.5503 24.0785 19.2341 24.0785C18.918 24.0785 18.6147 24.204 18.3911 24.4275L16.9316 25.8836C16.7081 26.1072 16.5826 26.4104 16.5826 26.7266C16.5826 27.0428 16.7081 27.346 16.9316 27.5696L17.4386 28.0765C17.6139 28.2529 17.7297 28.4797 17.7698 28.7252C17.8098 28.9707 17.7721 29.2225 17.6619 29.4455C17.4901 29.7993 17.3409 30.1637 17.2153 30.5364C17.1351 30.7718 16.9832 30.9763 16.7809 31.121C16.5787 31.2658 16.3362 31.3437 16.0875 31.3437H15.3683C15.2117 31.3437 15.0567 31.3745 14.912 31.4344C14.7673 31.4944 14.6358 31.5822 14.5251 31.6929C14.4143 31.8037 14.3265 31.9351 14.2666 32.0798C14.2066 32.2245 14.1758 32.3796 14.1758 32.5362V34.6007C14.1758 34.917 14.3014 35.2203 14.5251 35.444C14.7487 35.6676 15.0521 35.7933 15.3683 35.7933H16.0863C16.3351 35.7933 16.5776 35.8711 16.7798 36.0159C16.9821 36.1607 17.134 36.3651 17.2142 36.6005C17.3398 36.9732 17.489 37.3376 17.6608 37.6914C17.771 37.9144 17.8087 38.1663 17.7686 38.4117C17.7286 38.6572 17.6128 38.884 17.4375 39.0604L16.9305 39.5673C16.707 39.7909 16.5814 40.0942 16.5814 40.4103C16.5814 40.7265 16.707 41.0297 16.9305 41.2533L18.39 42.7127C18.6136 42.9362 18.9168 43.0618 19.233 43.0618C19.5492 43.0618 19.8525 42.9362 20.0761 42.7127L20.583 42.2058C20.7594 42.0305 20.9863 41.9147 21.2317 41.8746C21.4772 41.8346 21.7291 41.8723 21.952 41.9825C22.3059 42.1543 22.6703 42.3034 23.043 42.4291C23.2784 42.5093 23.4829 42.6612 23.6277 42.8634C23.7725 43.0657 23.8503 43.3081 23.8503 43.5569V44.2748C23.8502 44.4316 23.881 44.5869 23.9409 44.7318C24.0008 44.8767 24.0887 45.0083 24.1996 45.1192C24.3105 45.23 24.4421 45.318 24.587 45.3779C24.7319 45.4378 24.8872 45.4686 25.044 45.4685H27.1087C27.2654 45.4685 27.4205 45.4376 27.5653 45.3776C27.7101 45.3176 27.8416 45.2296 27.9523 45.1188C28.0631 45.0079 28.1509 44.8763 28.2108 44.7315C28.2706 44.5867 28.3014 44.4315 28.3012 44.2748V43.5569C28.3012 43.3081 28.3791 43.0657 28.5239 42.8634C28.6687 42.6612 28.8731 42.5093 29.1086 42.4291C29.4813 42.3034 29.8457 42.1543 30.1995 41.9825C30.4225 41.8723 30.6744 41.8346 30.9198 41.8746C31.1653 41.9147 31.3921 42.0305 31.5685 42.2058L32.0755 42.7127C32.2991 42.9362 32.6023 43.0618 32.9185 43.0618C33.2347 43.0618 33.538 42.9362 33.7616 42.7127L35.2244 41.2522C35.4479 41.0286 35.5735 40.7254 35.5735 40.4092C35.5735 40.093 35.4479 39.7898 35.2244 39.5662L34.7174 39.0593C34.5421 38.8829 34.4263 38.6561 34.3863 38.4106C34.3462 38.1651 34.3839 37.9133 34.4941 37.6903C34.6659 37.3365 34.8151 36.9721 34.9408 36.5994C35.021 36.364 35.1728 36.1595 35.3751 36.0148C35.5773 35.87 35.8198 35.7921 36.0686 35.7921H36.7877C37.1032 35.791 37.4054 35.6648 37.6281 35.4413C37.8508 35.2178 37.9758 34.9151 37.9758 34.5996Z" fill="white" stroke="#000062" stroke-miterlimit="10"/>
<path d="M26.0756 39.6683C29.4445 39.6683 32.1756 36.9372 32.1756 33.5683C32.1756 30.1993 29.4445 27.4683 26.0756 27.4683C22.7066 27.4683 19.9756 30.1993 19.9756 33.5683C19.9756 36.9372 22.7066 39.6683 26.0756 39.6683Z" fill="white" stroke="#000062" stroke-miterlimit="10"/>
</svg>
