<svg width="56" height="56" viewBox="0 0 56 56" fill="none" xmlns="http://www.w3.org/2000/svg">
<path d="M36.0516 30.7241V46.9241C36.0519 47.1837 36.001 47.4408 35.9018 47.6806C35.8026 47.9205 35.657 48.1384 35.4735 48.322C35.2899 48.5055 35.072 48.651 34.8321 48.7502C34.5923 48.8495 34.3352 48.9004 34.0756 48.9001H14.7616C14.2376 48.9001 13.735 48.6919 13.3644 48.3214C12.9938 47.9508 12.7856 47.4482 12.7856 46.9241V37.6661" stroke="#212683" stroke-miterlimit="10"/>
<path d="M12.7856 33.684V8.976C12.7856 8.45193 12.9938 7.94933 13.3644 7.57876C13.735 7.20819 14.2376 7 14.7616 7H34.0756C34.3352 6.99974 34.5923 7.05067 34.8321 7.14988C35.072 7.24909 35.2899 7.39463 35.4735 7.57817C35.657 7.76171 35.8026 7.97965 35.9018 8.21951C36.001 8.45937 36.0519 8.71644 36.0516 8.976V16.826" stroke="#212683" stroke-miterlimit="10"/>
<path d="M24.4197 7H17.3057L18.2797 9.026C18.4508 9.40384 18.7252 9.72562 19.0713 9.95422C19.4173 10.1828 19.821 10.3089 20.2357 10.318H28.5997C29.0143 10.3089 29.418 10.1828 29.7641 9.95422C30.1102 9.72562 30.3846 9.40384 30.5557 9.026L31.5337 7H24.4197Z" stroke="#212683" stroke-miterlimit="10"/>
<path d="M31.314 16.8262H44.576C45.2231 16.8262 45.8437 17.0832 46.3013 17.5408C46.7589 17.9984 47.016 18.619 47.016 19.2662V27.9802C47.0154 28.6271 46.7582 29.2475 46.3007 29.7049C45.8432 30.1624 45.2229 30.4196 44.576 30.4202H37.434C36.9923 30.4191 36.5549 30.507 36.1481 30.6789C35.7412 30.8507 35.3731 31.1028 35.066 31.4202L28.436 38.3202C28.3178 38.4428 28.1655 38.5271 27.9988 38.5622C27.8321 38.5972 27.6588 38.5814 27.5012 38.5167C27.3436 38.452 27.2091 38.3415 27.1151 38.1995C27.0211 38.0575 26.9719 37.8905 26.974 37.7202V31.9902C26.9745 31.7835 26.9341 31.5788 26.8551 31.3878C26.7762 31.1968 26.6602 31.0234 26.5139 30.8774C26.3676 30.7315 26.1938 30.6159 26.0026 30.5375C25.8114 30.459 25.6066 30.4191 25.4 30.4202C24.753 30.4196 24.1327 30.1624 23.6752 29.7049C23.2177 29.2475 22.9605 28.6271 22.96 27.9802V19.2662C22.96 18.619 23.217 17.9984 23.6746 17.5408C24.1322 17.0832 24.7528 16.8262 25.4 16.8262H31.31H31.314Z" stroke="#1F2687" stroke-miterlimit="10"/>
<path d="M42.1899 25.1758C43.1907 25.1758 44.0019 24.3645 44.0019 23.3638C44.0019 22.363 43.1907 21.5518 42.1899 21.5518C41.1892 21.5518 40.3779 22.363 40.3779 23.3638C40.3779 24.3645 41.1892 25.1758 42.1899 25.1758Z" stroke="#1F2687" stroke-miterlimit="10"/>
<path d="M34.9897 25.1758C35.9905 25.1758 36.8017 24.3645 36.8017 23.3638C36.8017 22.363 35.9905 21.5518 34.9897 21.5518C33.989 21.5518 33.1777 22.363 33.1777 23.3638C33.1777 24.3645 33.989 25.1758 34.9897 25.1758Z" stroke="#1F2687" stroke-miterlimit="10"/>
<path d="M27.79 25.1758C28.7908 25.1758 29.602 24.3645 29.602 23.3638C29.602 22.363 28.7908 21.5518 27.79 21.5518C26.7893 21.5518 25.978 22.363 25.978 23.3638C25.978 24.3645 26.7893 25.1758 27.79 25.1758Z" stroke="#1F2687" stroke-miterlimit="10"/>
<path d="M12.7881 44.334H24.1461" stroke="#1F2687" stroke-miterlimit="10"/>
<path d="M25.0117 44.334H27.4797" stroke="#1F2687" stroke-miterlimit="10"/>
<path d="M12.7879 36.1978C13.0817 36.1978 13.3199 35.9596 13.3199 35.6658C13.3199 35.372 13.0817 35.1338 12.7879 35.1338C12.494 35.1338 12.2559 35.372 12.2559 35.6658C12.2559 35.9596 12.494 36.1978 12.7879 36.1978Z" fill="#212683"/>
</svg>
