<svg width="56" height="56" viewBox="0 0 56 56" fill="none" xmlns="http://www.w3.org/2000/svg">
<path d="M13.6992 36.9843V9.52626C13.6992 9.41904 13.7409 9.31602 13.8156 9.23909C13.8903 9.16216 13.992 9.11738 14.0992 9.11426H37.1472L44.1732 16.2103V45.7903C44.1732 45.8963 44.1311 45.9981 44.0561 46.0731C43.981 46.1481 43.8793 46.1903 43.7732 46.1903H20.5732" fill="white"/>
<path d="M16.8633 34.0722V6.6122C16.8632 6.50497 16.905 6.40196 16.9797 6.32503C17.0544 6.2481 17.1561 6.20332 17.2633 6.2002H40.3113L47.3373 13.2982V42.8762C47.3373 42.9823 47.2951 43.084 47.2201 43.159C47.1451 43.2341 47.0434 43.2762 46.9373 43.2762H23.7193" fill="white"/>
<path d="M16.8633 34.0722V6.6122C16.8632 6.50497 16.905 6.40196 16.9797 6.32503C17.0544 6.2481 17.1561 6.20332 17.2633 6.2002H40.3113L47.3373 13.2982V42.8762C47.3373 42.9823 47.2951 43.084 47.2201 43.159C47.1451 43.2341 47.0434 43.2762 46.9373 43.2762H23.7193" stroke="#000062" stroke-miterlimit="10"/>
<path d="M13.6865 34.4863V9.52626C13.6865 9.41904 13.7282 9.31602 13.8029 9.23909C13.8776 9.16216 13.9793 9.11738 14.0865 9.11426H16.8625" stroke="#000062" stroke-miterlimit="10"/>
<path d="M44.16 43.2861V45.7901C44.1613 45.8435 44.1519 45.8966 44.1324 45.9463C44.1129 45.996 44.0837 46.0413 44.0464 46.0795C44.0091 46.1177 43.9646 46.148 43.9154 46.1688C43.8662 46.1895 43.8133 46.2001 43.76 46.2001H35.96" stroke="#000062" stroke-miterlimit="10"/>
<path d="M47.3366 13.2981H40.3086V6.20215" stroke="#000062" stroke-miterlimit="10"/>
<path d="M20.582 12.6904H34.472" stroke="#000062" stroke-miterlimit="10"/>
<path d="M20.582 17.0625H26.458" stroke="#000062" stroke-miterlimit="10"/>
<path d="M20.582 21.4321H37.288" stroke="#000062" stroke-miterlimit="10"/>
<path d="M20.582 25.8042H27.186" stroke="#000062" stroke-miterlimit="10"/>
<path d="M27.8179 17.0625H34.4719" stroke="#000062" stroke-miterlimit="10"/>
<path d="M30.2944 36.5981L34.4764 34.9141C34.9124 34.7381 35.4504 34.8801 35.6584 35.2261L35.7504 35.3801C36.0184 35.8261 36.7964 35.9041 37.2004 35.5241C37.6344 35.1241 38.4724 35.2401 38.6884 35.7401L38.9964 36.456C39.1524 36.818 39.6624 37.0061 40.1204 36.8721L43.6164 35.8541" stroke="#000062" stroke-miterlimit="10"/>
<path d="M30.2944 39.1104H43.6184" stroke="#000062" stroke-miterlimit="10"/>
<path d="M16.2426 49.3323C20.4631 49.3323 23.8846 45.9109 23.8846 41.6903C23.8846 37.4698 20.4631 34.0483 16.2426 34.0483C12.022 34.0483 8.60059 37.4698 8.60059 41.6903C8.60059 45.9109 12.022 49.3323 16.2426 49.3323Z" fill="white" stroke="#000062" stroke-miterlimit="10"/>
<path d="M16.2428 44.8402C18.1681 44.8402 19.7288 43.2794 19.7288 41.3542C19.7288 39.4289 18.1681 37.8682 16.2428 37.8682C14.3176 37.8682 12.7568 39.4289 12.7568 41.3542C12.7568 43.2794 14.3176 44.8402 16.2428 44.8402Z" stroke="#000062" stroke-miterlimit="10"/>
<path d="M20.7872 47.834C20.7008 47.0109 20.3127 46.249 19.6978 45.6951C19.083 45.1411 18.2848 44.8344 17.4572 44.834H15.0312C14.2033 44.8339 13.4046 45.1404 12.7894 45.6944C12.1741 46.2484 11.7857 47.0106 11.6992 47.834" stroke="#000062" stroke-miterlimit="10"/>
<path d="M43.0645 13.2983V20.5823" stroke="#000062" stroke-miterlimit="10"/>
<path d="M43.0645 22.5503V24.7443" stroke="#000062" stroke-miterlimit="10"/>
</svg>
