<svg width="56" height="56" viewBox="0 0 56 56" fill="none" xmlns="http://www.w3.org/2000/svg">
<path d="M13.6992 36.9841V9.52607C13.6992 9.41885 13.7409 9.31584 13.8156 9.23891C13.8903 9.16198 13.992 9.1172 14.0992 9.11407H37.1472L44.1732 16.2101V45.7901C44.1732 45.8962 44.1311 45.9979 44.0561 46.0729C43.981 46.1479 43.8793 46.1901 43.7732 46.1901H20.5732" fill="white"/>
<path d="M16.8633 34.072V6.61201C16.8632 6.50479 16.905 6.40178 16.9797 6.32485C17.0544 6.24792 17.1561 6.20314 17.2633 6.20001H40.3113L47.3373 13.298V42.876C47.3373 42.9821 47.2951 43.0838 47.2201 43.1589C47.1451 43.2339 47.0434 43.276 46.9373 43.276H23.7193" fill="white"/>
<path d="M16.8633 34.072V6.61201C16.8632 6.50479 16.905 6.40178 16.9797 6.32485C17.0544 6.24792 17.1561 6.20314 17.2633 6.20001H40.3113L47.3373 13.298V42.876C47.3373 42.9821 47.2951 43.0838 47.2201 43.1589C47.1451 43.2339 47.0434 43.276 46.9373 43.276H23.7193" stroke="#000062" stroke-miterlimit="10"/>
<path d="M13.6865 34.4861V9.52607C13.6865 9.41885 13.7282 9.31584 13.8029 9.23891C13.8776 9.16198 13.9793 9.1172 14.0865 9.11407H16.8625" stroke="#000062" stroke-miterlimit="10"/>
<path d="M44.16 43.2859V45.79C44.1613 45.8433 44.1519 45.8964 44.1324 45.9461C44.1129 45.9958 44.0837 46.0411 44.0464 46.0793C44.0091 46.1175 43.9646 46.1478 43.9154 46.1686C43.8662 46.1893 43.8133 46.2 43.76 46.1999H35.96" stroke="#000062" stroke-miterlimit="10"/>
<path d="M47.3366 13.298H40.3086V6.20197" stroke="#000062" stroke-miterlimit="10"/>
<path d="M20.582 12.6901H34.472" stroke="#000062" stroke-miterlimit="10"/>
<path d="M20.582 17.0621H26.458" stroke="#000062" stroke-miterlimit="10"/>
<path d="M20.582 21.4321H37.288" stroke="#000062" stroke-miterlimit="10"/>
<path d="M20.582 25.8041H27.186" stroke="#000062" stroke-miterlimit="10"/>
<path d="M27.8179 17.0621H34.4719" stroke="#000062" stroke-miterlimit="10"/>
<path d="M30.2944 36.598L34.4764 34.914C34.9124 34.738 35.4504 34.88 35.6584 35.226L35.7504 35.38C36.0184 35.826 36.7964 35.904 37.2004 35.524C37.6344 35.124 38.4724 35.24 38.6884 35.74L38.9964 36.456C39.1524 36.818 39.6624 37.006 40.1204 36.872L43.6164 35.854" stroke="#000062" stroke-miterlimit="10"/>
<path d="M30.2944 39.11H43.6184" stroke="#000062" stroke-miterlimit="10"/>
<path d="M16.2426 49.332C20.4631 49.332 23.8846 45.9106 23.8846 41.69C23.8846 37.4695 20.4631 34.048 16.2426 34.048C12.022 34.048 8.60059 37.4695 8.60059 41.69C8.60059 45.9106 12.022 49.332 16.2426 49.332Z" fill="white" stroke="#000062" stroke-miterlimit="10"/>
<path d="M16.2428 44.84C18.1681 44.84 19.7288 43.2792 19.7288 41.354C19.7288 39.4287 18.1681 37.868 16.2428 37.868C14.3176 37.868 12.7568 39.4287 12.7568 41.354C12.7568 43.2792 14.3176 44.84 16.2428 44.84Z" stroke="#000062" stroke-miterlimit="10"/>
<path d="M20.7872 47.834C20.7008 47.0109 20.3127 46.249 19.6978 45.6951C19.083 45.1411 18.2848 44.8344 17.4572 44.834H15.0312C14.2033 44.8339 13.4046 45.1404 12.7894 45.6944C12.1741 46.2484 11.7857 47.0106 11.6992 47.834" stroke="#000062" stroke-miterlimit="10"/>
<path d="M43.0645 13.298V20.582" stroke="#000062" stroke-miterlimit="10"/>
<path d="M43.0645 22.55V24.744" stroke="#000062" stroke-miterlimit="10"/>
</svg>
