<svg width="56" height="56" viewBox="0 0 56 56" fill="none" xmlns="http://www.w3.org/2000/svg">
<path d="M14.7962 37.2261H8.2002V13.8721H47.9322V37.2261H32.5322" stroke="#212683" stroke-miterlimit="10"/>
<path d="M28.5504 37.2261H21.6504" stroke="#212683" stroke-miterlimit="10"/>
<path d="M21.6501 34.3961H45.0521V16.7021H11.0801V34.3961H14.7961" stroke="#212683" stroke-miterlimit="10"/>
<path d="M18.2242 33.3483C20.5847 33.3483 22.4982 31.4348 22.4982 29.0743C22.4982 26.7138 20.5847 24.8003 18.2242 24.8003C15.8637 24.8003 13.9502 26.7138 13.9502 29.0743C13.9502 31.4348 15.8637 33.3483 18.2242 33.3483Z" stroke="#212683" stroke-miterlimit="10"/>
<path d="M21.6502 31.6282V44.8442C21.6517 44.8912 21.6387 44.9375 21.613 44.9769C21.5874 45.0163 21.5502 45.0469 21.5067 45.0646C21.4631 45.0822 21.4151 45.0861 21.3693 45.0756C21.3234 45.0652 21.2818 45.0409 21.2502 45.0062L18.3862 42.1322C18.365 42.1108 18.3398 42.0938 18.312 42.0822C18.2842 42.0706 18.2543 42.0646 18.2242 42.0646C18.1941 42.0646 18.1642 42.0706 18.1364 42.0822C18.1086 42.0938 18.0834 42.1108 18.0622 42.1322L15.1882 45.0002C15.1565 45.0349 15.115 45.0592 15.0691 45.0696C15.0233 45.0801 14.9753 45.0762 14.9317 45.0586C14.8882 45.0409 14.851 45.0103 14.8254 44.9709C14.7997 44.9315 14.7867 44.8852 14.7882 44.8382V31.6182" stroke="#212683" stroke-miterlimit="10"/>
<path d="M18.2244 30.732C19.1401 30.732 19.8824 29.9897 19.8824 29.074C19.8824 28.1583 19.1401 27.416 18.2244 27.416C17.3087 27.416 16.5664 28.1583 16.5664 29.074C16.5664 29.9897 17.3087 30.732 18.2244 30.732Z" stroke="#212683" stroke-miterlimit="10"/>
<path d="M15.5664 19.998H31.3664" stroke="#212683" stroke-miterlimit="10"/>
<path d="M24.5 23.5083H40.566" stroke="#212683" stroke-miterlimit="10"/>
<path d="M32.1702 29.3001L33.0842 28.5941C33.5402 28.2421 33.7462 28.0561 34.3062 28.4401C35.2362 29.0761 35.7062 29.1001 36.6602 28.4981C37.0262 28.2681 37.2242 28.0281 37.6722 28.3901C37.781 28.5056 37.8781 28.6315 37.9622 28.7661C38.2122 29.0921 38.4422 29.4061 38.8382 29.5661C39.4722 29.8261 40.3002 29.6921 40.9682 29.6921C41.6362 29.6921 41.6122 28.6921 40.9682 28.6921C40.0142 28.6921 39.3002 28.8541 38.6642 28.0481C38.0282 27.2421 37.1422 26.9081 36.2262 27.5681C36.1101 27.6804 35.9843 27.7821 35.8502 27.8721C35.3382 28.1081 35.2022 27.8121 34.8502 27.5541C34.6624 27.3994 34.4427 27.2882 34.2069 27.2284C33.9711 27.1686 33.725 27.1616 33.4862 27.2081C32.7462 27.3741 32.0502 28.1401 31.4702 28.5881C30.9622 28.9881 31.6702 29.6841 32.1782 29.2961L32.1702 29.3001Z" fill="#212683"/>
<path d="M30.7661 31.8481H41.9161" stroke="#212683" stroke-miterlimit="10"/>
<path d="M33.3164 19.998H40.5664" stroke="#212683" stroke-miterlimit="10"/>
<path d="M30.532 37.7578C30.8258 37.7578 31.064 37.5197 31.064 37.2258C31.064 36.932 30.8258 36.6938 30.532 36.6938C30.2382 36.6938 30 36.932 30 37.2258C30 37.5197 30.2382 37.7578 30.532 37.7578Z" fill="#212683"/>
<path d="M18.2241 33.3481V36.2981" stroke="#212683" stroke-miterlimit="10"/>
<path d="M18.2241 37.7603V38.8483" stroke="#212683" stroke-miterlimit="10"/>
</svg>
