<svg width="56" height="56" viewBox="0 0 56 56" fill="none" xmlns="http://www.w3.org/2000/svg">
<path d="M32.9662 51.9257H26.5742H23.4002H7.2002V40.9917H10.5702H17.5322H20.6002H27.0482" fill="white"/>
<path d="M32.9662 51.9257H26.5742H23.4002H7.2002V40.9917H10.5702H17.5322H20.6002H27.0482" stroke="#000062" stroke-miterlimit="10"/>
<path d="M30.9829 41H7.25891V36C7.25891 34.2395 7.95827 32.5511 9.20314 31.3062C10.448 30.0614 12.1364 29.362 13.8969 29.362H24.3449C26.1054 29.362 27.7938 30.0614 29.0387 31.3062C30.2836 32.5511 30.9829 34.2395 30.9829 36V41Z" fill="white"/>
<path d="M19.0674 29.29L19.1154 29.346L20.3414 30.734L21.3414 31.856C21.4151 31.9393 21.5164 31.9931 21.6268 32.0075C21.7371 32.0218 21.8488 31.9957 21.9414 31.934L24.7014 30.09C24.7604 30.0508 24.8095 29.9986 24.845 29.9373C24.8805 29.8761 24.9014 29.8075 24.9061 29.7368C24.9107 29.6662 24.899 29.5954 24.8718 29.5301C24.8446 29.4647 24.8027 29.4065 24.7494 29.36L23.1494 27.96" fill="white"/>
<path d="M19.0674 29.29L19.1154 29.346L20.3414 30.734L21.3414 31.856C21.4151 31.9393 21.5164 31.9931 21.6268 32.0075C21.7371 32.0218 21.8488 31.9957 21.9414 31.934L24.7014 30.09C24.7604 30.0508 24.8095 29.9986 24.845 29.9373C24.8805 29.8761 24.9014 29.8075 24.9061 29.7368C24.9107 29.6662 24.899 29.5954 24.8718 29.5301C24.8446 29.4647 24.8027 29.4065 24.7494 29.36L23.1494 27.96" stroke="#000062" stroke-miterlimit="10"/>
<path d="M19.0662 29.29L19.0182 29.346L17.7922 30.734L16.7922 31.856C16.7185 31.9393 16.6171 31.9931 16.5068 32.0075C16.3965 32.0218 16.2847 31.9957 16.1922 31.934L13.4342 30.09C13.3752 30.0508 13.326 29.9986 13.2905 29.9373C13.255 29.8761 13.2342 29.8075 13.2295 29.7368C13.2249 29.6662 13.2366 29.5954 13.2638 29.5301C13.2909 29.4647 13.3328 29.4065 13.3862 29.36L14.9862 27.96" fill="white"/>
<path d="M19.0662 29.29L19.0182 29.346L17.7922 30.734L16.7922 31.856C16.7185 31.9393 16.6171 31.9931 16.5068 32.0075C16.3965 32.0218 16.2847 31.9957 16.1922 31.934L13.4342 30.09C13.3752 30.0508 13.326 29.9986 13.2905 29.9373C13.255 29.8761 13.2342 29.8075 13.2295 29.7368C13.2249 29.6662 13.2366 29.5954 13.2638 29.5301C13.2909 29.4647 13.3328 29.4065 13.3862 29.36L14.9862 27.96" stroke="#000062" stroke-miterlimit="10"/>
<path d="M20.3421 30.7358L20.1861 31.4678C20.0195 32.2572 20.0629 33.0765 20.3121 33.8438L21.3361 37.0018C21.6537 37.9809 21.5732 39.0456 21.1121 39.9658L20.6001 40.9898H17.5321L17.0201 39.9658C16.559 39.0456 16.4786 37.9809 16.7961 37.0018L17.8201 33.8438C18.0693 33.0765 18.1128 32.2572 17.9461 31.4678L17.7901 30.7358L18.6861 29.7958C18.7406 29.739 18.8063 29.694 18.879 29.6638C18.9517 29.6335 19.0299 29.6187 19.1086 29.6202C19.1874 29.6217 19.2649 29.6395 19.3364 29.6725C19.408 29.7055 19.4719 29.7529 19.5241 29.8118L20.3421 30.7358Z" fill="white" stroke="#000062" stroke-miterlimit="10"/>
<path d="M19.0649 29.3481H19.0669C22.7484 29.3481 25.7329 26.3637 25.7329 22.6821V17.8801C25.7329 14.1986 22.7484 11.2141 19.0669 11.2141H19.0649C15.3834 11.2141 12.3989 14.1986 12.3989 17.8801L12.3989 22.6821C12.3989 26.3637 15.3834 29.3481 19.0649 29.3481Z" fill="white" stroke="#000062" stroke-miterlimit="10"/>
<path d="M25.7353 20.2901C25.7353 20.2901 23.5473 18.7741 22.4113 17.6301C22.2125 17.4275 21.9463 17.305 21.6631 17.2858C21.3799 17.2667 21.0996 17.3522 20.8753 17.5261C19.0453 18.9601 14.8433 21.8121 12.4033 19.9261" stroke="#000062" stroke-miterlimit="10"/>
<path d="M39.5544 37.8897C40.2413 37.2653 40.79 36.5042 41.1651 35.6551C41.5402 34.8061 41.7334 33.8879 41.7324 32.9597V28.1597C41.7324 26.3917 41.0301 24.6962 39.78 23.4461C38.5299 22.196 36.8343 21.4937 35.0664 21.4937C33.2985 21.4937 31.603 22.196 30.3528 23.4461C29.1027 24.6962 28.4004 26.3917 28.4004 28.1597V32.9597C28.3983 33.8877 28.5906 34.8059 28.9651 35.655C29.3395 36.5041 29.8877 37.2654 30.5744 37.8897" fill="white"/>
<path d="M39.5544 37.8897C40.2413 37.2653 40.79 36.5042 41.1651 35.6551C41.5402 34.8061 41.7334 33.8879 41.7324 32.9597V28.1597C41.7324 26.3917 41.0301 24.6962 39.78 23.4461C38.5299 22.196 36.8343 21.4937 35.0664 21.4937C33.2985 21.4937 31.603 22.196 30.3528 23.4461C29.1027 24.6962 28.4004 26.3917 28.4004 28.1597V32.9597C28.3983 33.8877 28.5906 34.8059 28.9651 35.655C29.3395 36.5041 29.8877 37.2654 30.5744 37.8897" stroke="#000062" stroke-miterlimit="10"/>
<path d="M19.0176 29.3481H19.0196H19.1156H19.1176" stroke="#000062" stroke-miterlimit="10"/>
<path d="M27.0482 40.9917H7.2002V35.9917C7.19984 34.3092 7.8384 32.6893 8.98677 31.4596C10.1351 30.23 11.7076 29.4822 13.3862 29.3677" stroke="#000062" stroke-miterlimit="10"/>
<path d="M24.7471 29.3638C26.0786 29.4503 27.3526 29.9385 28.4011 30.7638" stroke="#000062" stroke-miterlimit="10"/>
<path d="M47.1328 51.918H23.3988V46.918C23.3988 45.1575 24.0982 43.4691 25.343 42.2242C26.5879 40.9793 28.2763 40.28 30.0368 40.28H40.4948C42.2553 40.28 43.9437 40.9793 45.1886 42.2242C46.4335 43.4691 47.1328 45.1575 47.1328 46.918V51.918Z" fill="white" stroke="#000062" stroke-miterlimit="10"/>
<path d="M30.4503 37.8818H33.0503H37.0843H39.6843L41.0843 40.2818H37.0843H33.0503H29.0503L30.4503 37.8818Z" fill="white" stroke="#000062" stroke-miterlimit="10"/>
<path d="M20.4322 34.2158H17.7002" stroke="#000062" stroke-miterlimit="10"/>
<path d="M28.4922 34.0602L34.3962 34.7082C34.8341 34.7578 35.2763 34.7578 35.7142 34.7082L41.6482 34.0142" stroke="#000062" stroke-miterlimit="10"/>
<path d="M43.5674 48.4258V51.9258" stroke="#000062" stroke-miterlimit="10"/>
<path d="M26.5752 48.4258V51.9258" stroke="#000062" stroke-miterlimit="10"/>
<path d="M27.5625 37.4917V40.7597" stroke="#000062" stroke-miterlimit="10"/>
<path d="M10.5703 37.4917V40.9917" stroke="#000062" stroke-miterlimit="10"/>
<path d="M19.4766 51.9258H11.0766V45.2618C11.0766 44.9865 11.1859 44.7225 11.3806 44.5278C11.5752 44.3331 11.8393 44.2238 12.1146 44.2238H18.4386C18.7139 44.2238 18.9779 44.3331 19.1725 44.5278C19.3672 44.7225 19.4766 44.9865 19.4766 45.2618V51.9258Z" fill="white" stroke="#000062" stroke-miterlimit="10"/>
<path d="M17.6919 46.458H12.8579" stroke="#000062" stroke-miterlimit="10"/>
<path d="M17.6919 49.1357H12.8579" stroke="#000062" stroke-miterlimit="10"/>
<path d="M46.0637 16.3899H46.8177C47.4044 16.3899 47.967 16.1569 48.3818 15.742C48.7967 15.3272 49.0297 14.7646 49.0297 14.1779V6.5999C49.0265 6.01533 48.7921 5.45577 48.3776 5.04353C47.9631 4.6313 47.4023 4.39989 46.8177 4.3999H32.5757C31.9894 4.3999 31.4271 4.63268 31.0123 5.04707C30.5975 5.46147 30.3642 6.02359 30.3637 6.6099V11.7119C30.3643 11.9641 30.321 12.2145 30.2357 12.4519L28.9757 15.9719C28.8989 16.1912 28.8874 16.4282 28.9426 16.6539C28.9978 16.8797 29.1174 17.0845 29.2869 17.2436C29.4563 17.4027 29.6683 17.5091 29.8971 17.55C30.1259 17.5909 30.3617 17.5644 30.5757 17.4739L32.7077 16.5659C32.9823 16.4495 33.2775 16.3897 33.5757 16.3899H43.1757" fill="white"/>
<path d="M46.0637 16.3899H46.8177C47.4044 16.3899 47.967 16.1569 48.3818 15.742C48.7967 15.3272 49.0297 14.7646 49.0297 14.1779V6.5999C49.0265 6.01533 48.7921 5.45577 48.3776 5.04353C47.9631 4.6313 47.4023 4.39989 46.8177 4.3999H32.5757C31.9894 4.3999 31.4271 4.63268 31.0123 5.04707C30.5975 5.46147 30.3642 6.02359 30.3637 6.6099V11.7119C30.3643 11.9641 30.321 12.2145 30.2357 12.4519L28.9757 15.9719C28.8989 16.1912 28.8874 16.4282 28.9426 16.6539C28.9978 16.8797 29.1174 17.0845 29.2869 17.2436C29.4563 17.4027 29.6683 17.5091 29.8971 17.55C30.1259 17.5909 30.3617 17.5644 30.5757 17.4739L32.7077 16.5659C32.9823 16.4495 33.2775 16.3897 33.5757 16.3899H43.1757" stroke="#000062" stroke-miterlimit="10"/>
<path d="M33.9971 8.85596H45.6631" stroke="#000062" stroke-miterlimit="10"/>
<path d="M33.9971 11.9897H39.5311" stroke="#000062" stroke-miterlimit="10"/>
<path d="M44.6686 16.9041C44.9602 16.9041 45.1966 16.6678 45.1966 16.3761C45.1966 16.0845 44.9602 15.8481 44.6686 15.8481C44.377 15.8481 44.1406 16.0845 44.1406 16.3761C44.1406 16.6678 44.377 16.9041 44.6686 16.9041Z" fill="#000062"/>
<path d="M35.0625 24.1221C36.0703 24.1221 37.0369 24.5224 37.7495 25.2351C38.4621 25.9477 38.8625 26.9142 38.8625 27.9221V28.4561" stroke="#000062" stroke-miterlimit="10"/>
</svg>
