<svg width="56" height="56" viewBox="0 0 56 56" fill="none" xmlns="http://www.w3.org/2000/svg">
<path d="M15.7561 29.3921C19.7082 29.3921 22.9121 26.1882 22.9121 22.2361C22.9121 18.2839 19.7082 15.0801 15.7561 15.0801C11.8039 15.0801 8.6001 18.2839 8.6001 22.2361C8.6001 26.1882 11.8039 29.3921 15.7561 29.3921Z" stroke="#212683" stroke-miterlimit="10"/>
<path d="M15.756 25.1521C17.2317 25.1521 18.428 23.9558 18.428 22.4801C18.428 21.0044 17.2317 19.8081 15.756 19.8081C14.2803 19.8081 13.084 21.0044 13.084 22.4801C13.084 23.9558 14.2803 25.1521 15.756 25.1521Z" stroke="#212683" stroke-miterlimit="10"/>
<path d="M19.4382 28.372C19.3202 27.4791 18.8817 26.6594 18.2044 26.0656C17.527 25.4719 16.657 25.1445 15.7562 25.1445C14.8555 25.1445 13.9854 25.4719 13.3081 26.0656C12.6307 26.6594 12.1922 27.4791 12.0742 28.372" stroke="#212683" stroke-miterlimit="10"/>
<path d="M37.6023 49.3721C41.5544 49.3721 44.7583 46.1682 44.7583 42.2161C44.7583 38.2639 41.5544 35.0601 37.6023 35.0601C33.6501 35.0601 30.4463 38.2639 30.4463 42.2161C30.4463 46.1682 33.6501 49.3721 37.6023 49.3721Z" stroke="#212683" stroke-miterlimit="10"/>
<path d="M37.6022 45.1301C39.0779 45.1301 40.2742 43.9338 40.2742 42.4581C40.2742 40.9824 39.0779 39.7861 37.6022 39.7861C36.1265 39.7861 34.9302 40.9824 34.9302 42.4581C34.9302 43.9338 36.1265 45.1301 37.6022 45.1301Z" stroke="#212683" stroke-miterlimit="10"/>
<path d="M41.2839 48.3501C41.1659 47.4571 40.7274 46.6374 40.0501 46.0437C39.3727 45.4499 38.5027 45.1226 37.6019 45.1226C36.7012 45.1226 35.8311 45.4499 35.1538 46.0437C34.4764 46.6374 34.0379 47.4571 33.9199 48.3501" stroke="#212683" stroke-miterlimit="10"/>
<path d="M37.6023 20.9121C41.5544 20.9121 44.7583 17.7082 44.7583 13.7561C44.7583 9.80395 41.5544 6.6001 37.6023 6.6001C33.6501 6.6001 30.4463 9.80395 30.4463 13.7561C30.4463 17.7082 33.6501 20.9121 37.6023 20.9121Z" stroke="#212683" stroke-miterlimit="10"/>
<path d="M37.6022 16.6721C39.0779 16.6721 40.2742 15.4758 40.2742 14.0001C40.2742 12.5244 39.0779 11.3281 37.6022 11.3281C36.1265 11.3281 34.9302 12.5244 34.9302 14.0001C34.9302 15.4758 36.1265 16.6721 37.6022 16.6721Z" stroke="#212683" stroke-miterlimit="10"/>
<path d="M41.2839 19.8921C41.1659 18.9991 40.7274 18.1794 40.0501 17.5856C39.3727 16.9919 38.5027 16.6646 37.6019 16.6646C36.7012 16.6646 35.8311 16.9919 35.1538 17.5856C34.4764 18.1794 34.0379 18.9991 33.9199 19.8921" stroke="#212683" stroke-miterlimit="10"/>
<path d="M20.814 27.3003L31.732 38.1223" stroke="#212683" stroke-miterlimit="10"/>
<path d="M37.6021 35.0583V30.2363" stroke="#212683" stroke-miterlimit="10"/>
<path d="M37.6021 25.7361V20.9141" stroke="#212683" stroke-miterlimit="10"/>
<path d="M37.6019 28.5622C37.92 28.5622 38.1779 28.3043 38.1779 27.9862C38.1779 27.668 37.92 27.4102 37.6019 27.4102C37.2838 27.4102 37.0259 27.668 37.0259 27.9862C37.0259 28.3043 37.2838 28.5622 37.6019 28.5622Z" fill="#1F268E"/>
<path d="M38 37.8662H38.882C39.6246 37.8662 40.3368 38.1612 40.8619 38.6863C41.387 39.2114 41.682 39.9236 41.682 40.6662" stroke="#212683" stroke-miterlimit="10"/>
</svg>
