<svg width="56" height="56" viewBox="0 0 56 56" fill="none" xmlns="http://www.w3.org/2000/svg">
<g clip-path="url(#clip0_21068_160663)">
<path d="M42.5125 12.2002H15.6875C15.5052 12.2002 15.3303 12.2698 15.2014 12.3938C15.0724 12.5177 15 12.6858 15 12.8611V35.489L21.5032 41.0002H41.5259C42.4481 41.0002 43.2 40.3712 43.2 39.6024V12.8611C43.2 12.6858 43.1276 12.5177 42.9986 12.3938C42.8697 12.2698 42.6948 12.2002 42.5125 12.2002Z" fill="white"/>
<path d="M21.1 12.2002H15.6875C15.5052 12.2002 15.3303 12.2698 15.2014 12.3938C15.0724 12.5178 15 12.686 15 12.8613V35.4938L21.5032 41.0002H41.5259C42.4481 41.0002 43.2 40.3711 43.2 39.6021V12.8613C43.2 12.7743 43.1822 12.6882 43.1475 12.6078C43.1128 12.5275 43.062 12.4545 42.9979 12.3931C42.9338 12.3317 42.8578 12.2831 42.7742 12.2499C42.6905 12.2168 42.6009 12.1999 42.5104 12.2002H25.2" stroke="#000062" stroke-miterlimit="10"/>
<path d="M39.49 14.96H13.662C13.4864 14.96 13.318 15.0297 13.1939 15.1539C13.0697 15.278 13 15.4464 13 15.622V38.286L19.262 43.8H38.542C39.43 43.8 40.154 43.17 40.154 42.4V15.622C40.154 15.5349 40.1368 15.4486 40.1034 15.3682C40.07 15.2877 40.0211 15.2146 39.9594 15.1532C39.8977 15.0917 39.8245 15.0429 39.7439 15.0098C39.6634 14.9766 39.5771 14.9597 39.49 14.96Z" fill="white" stroke="#000062" stroke-miterlimit="10"/>
<path d="M23.2499 12.8001C23.5813 12.8001 23.8499 12.5315 23.8499 12.2001C23.8499 11.8687 23.5813 11.6001 23.2499 11.6001C22.9185 11.6001 22.6499 11.8687 22.6499 12.2001C22.6499 12.5315 22.9185 12.8001 23.2499 12.8001Z" fill="#000062"/>
<path d="M16.2002 15L16.2002 28.8" stroke="#000062" stroke-miterlimit="10"/>
<path d="M13.2998 38.3999L19.1998 38.3999L19.1998 43.7999" stroke="#000062" stroke-miterlimit="10"/>
<path d="M16.2002 29.8003L16.2002 31.0003" stroke="#000062" stroke-miterlimit="10"/>
<path d="M19 24.2002L34.2 24.2002" stroke="#000062" stroke-miterlimit="10"/>
<path d="M25.7998 28.8003L34.1998 28.8003" stroke="#000062" stroke-miterlimit="10"/>
<path d="M19 28.8003L24.4 28.8003" stroke="#000062" stroke-miterlimit="10"/>
<path d="M19 32.8003L34.2 32.8003" stroke="#000062" stroke-miterlimit="10"/>
</g>
<defs>
<clipPath id="clip0_21068_160663">
<rect width="56" height="56" fill="white"/>
</clipPath>
</defs>
</svg>
