<svg width="56" height="56" viewBox="0 0 56 56" fill="none" xmlns="http://www.w3.org/2000/svg">
<path d="M14.4579 44.7401H32.3499C32.6015 44.7401 32.8507 44.6906 33.0831 44.5943C33.3156 44.498 33.5268 44.3569 33.7047 44.1789C33.8826 44.001 34.0238 43.7898 34.1201 43.5573C34.2163 43.3249 34.2659 43.0757 34.2659 42.8241V12.7441C34.2659 12.4925 34.2163 12.2434 34.1201 12.0109C34.0238 11.7784 33.8826 11.5672 33.7047 11.3893C33.5268 11.2114 33.3156 11.0703 33.0831 10.974C32.8507 10.8777 32.6015 10.8281 32.3499 10.8281H12.8259L6.3999 17.3161V42.8241C6.3999 43.3323 6.60177 43.8196 6.96109 44.1789C7.32041 44.5383 7.80775 44.7401 8.3159 44.7401H10.4739" stroke="#212683" stroke-miterlimit="10"/>
<path d="M6.3999 17.3181H12.8259V10.8281" stroke="#212683" stroke-miterlimit="10"/>
<path d="M10.4897 22.6401H30.1757" stroke="#212683" stroke-miterlimit="10"/>
<path d="M10.4897 26.9741H17.8657" stroke="#212683" stroke-miterlimit="10"/>
<path d="M10.4897 31.3081H30.1757" stroke="#212683" stroke-miterlimit="10"/>
<path d="M19.9341 26.9741H30.1761" stroke="#212683" stroke-miterlimit="10"/>
<path d="M21.3357 38.6262L22.2497 37.9202C22.7057 37.5682 22.9117 37.3822 23.4717 37.7662C24.4017 38.4022 24.8717 38.4262 25.8257 37.8242C26.1917 37.5942 26.3897 37.3542 26.8377 37.7162C26.9465 37.8317 27.0437 37.9577 27.1277 38.0922C27.3777 38.4182 27.6077 38.7322 28.0037 38.8922C28.6377 39.1522 29.4657 39.0182 30.1337 39.0182C30.8017 39.0182 30.7777 38.0182 30.1337 38.0182C29.1797 38.0182 28.4657 38.1802 27.8297 37.3742C27.1937 36.5682 26.3077 36.2342 25.3917 36.8942C25.2751 37.0073 25.1486 37.1097 25.0137 37.2002C24.5017 37.4362 24.3657 37.1402 24.0137 36.8822C23.8259 36.7276 23.6063 36.6163 23.3705 36.5565C23.1347 36.4967 22.8885 36.4898 22.6497 36.5362C21.9097 36.7022 21.2137 37.4682 20.6337 37.9162C20.1257 38.3162 20.8337 39.0122 21.3417 38.6242L21.3357 38.6262Z" fill="#212683"/>
<path d="M19.9341 41.1743H31.0841" stroke="#212683" stroke-miterlimit="10"/>
<path d="M26.4238 13.5239H30.2498C30.462 13.5239 30.6655 13.6082 30.8155 13.7582C30.9655 13.9083 31.0498 14.1118 31.0498 14.3239V17.7239" stroke="#212683" stroke-miterlimit="10"/>
<path d="M40.9377 16.7442H39.6497C39.443 16.7442 39.2383 16.7849 39.0473 16.864C38.8564 16.9431 38.6829 17.059 38.5367 17.2052C38.3905 17.3514 38.2746 17.5249 38.1955 17.7158C38.1164 17.9068 38.0757 18.1115 38.0757 18.3182V41.6722C38.0757 42.0496 38.2112 42.4144 38.4577 42.7002L39.7457 44.1942C39.8934 44.3655 40.0764 44.503 40.2821 44.5973C40.4878 44.6915 40.7114 44.7403 40.9377 44.7403C41.1639 44.7403 41.3875 44.6915 41.5932 44.5973C41.799 44.503 41.9819 44.3655 42.1297 44.1942L43.4177 42.7002C43.6641 42.4144 43.7997 42.0496 43.7997 41.6722V18.3162C43.7997 17.8987 43.6339 17.4984 43.3387 17.2032C43.0435 16.908 42.6431 16.7422 42.2257 16.7422L40.9377 16.7442Z" stroke="#212683" stroke-miterlimit="10"/>
<path d="M39.3877 16.7659V14.4179C39.3877 14.1808 39.4819 13.9534 39.6495 13.7858C39.8172 13.6181 40.0446 13.5239 40.2817 13.5239H41.5997C41.8368 13.5239 42.0642 13.6181 42.2318 13.7858C42.3995 13.9534 42.4937 14.1808 42.4937 14.4179V16.7659" stroke="#212683" stroke-miterlimit="10"/>
<path d="M38.0781 39.1963H43.8001" stroke="#212683" stroke-miterlimit="10"/>
<path d="M43.8001 21.3921H38.0781V25.6041H43.8001V21.3921Z" stroke="#212683" stroke-miterlimit="10"/>
<path d="M43.7998 21.3999C45.3174 21.3999 46.7728 22.0028 47.8459 23.0758C48.919 24.1489 49.5218 25.6043 49.5218 27.1219V28.3219" stroke="#212683" stroke-miterlimit="10"/>
<path d="M12.5081 45.272C12.8019 45.272 13.0401 45.0338 13.0401 44.74C13.0401 44.4462 12.8019 44.208 12.5081 44.208C12.2143 44.208 11.9761 44.4462 11.9761 44.74C11.9761 45.0338 12.2143 45.272 12.5081 45.272Z" fill="#212683"/>
</svg>
