<svg width="56" height="56" viewBox="0 0 56 56" fill="none" xmlns="http://www.w3.org/2000/svg">
<path d="M38.7818 14.6685H8.5338C8.07427 14.6685 7.63352 14.8509 7.30839 15.1756C6.98326 15.5004 6.80033 15.9409 6.7998 16.4005V42.1005C6.7998 42.5603 6.98249 43.0014 7.30768 43.3266C7.63287 43.6518 8.07392 43.8345 8.5338 43.8345H47.5998C48.0597 43.8345 48.5007 43.6518 48.8259 43.3266C49.1511 43.0014 49.3338 42.5603 49.3338 42.1005V16.4005C49.3333 15.9409 49.1504 15.5004 48.8252 15.1756C48.5001 14.8509 48.0593 14.6685 47.5998 14.6685H42.7658" stroke="#212683" stroke-miterlimit="10"/>
<path d="M6.7998 19.9341H48.7998" stroke="#212683" stroke-miterlimit="10"/>
<path d="M11.2576 18.0362C11.6674 18.0362 11.9996 17.704 11.9996 17.2942C11.9996 16.8845 11.6674 16.5522 11.2576 16.5522C10.8478 16.5522 10.5156 16.8845 10.5156 17.2942C10.5156 17.704 10.8478 18.0362 11.2576 18.0362Z" fill="#212683"/>
<path d="M15.5579 18.0362C15.9677 18.0362 16.2999 17.704 16.2999 17.2942C16.2999 16.8845 15.9677 16.5522 15.5579 16.5522C15.1481 16.5522 14.8159 16.8845 14.8159 17.2942C14.8159 17.704 15.1481 18.0362 15.5579 18.0362Z" fill="#212683"/>
<path d="M19.8577 18.0362C20.2675 18.0362 20.5997 17.704 20.5997 17.2942C20.5997 16.8845 20.2675 16.5522 19.8577 16.5522C19.4479 16.5522 19.1157 16.8845 19.1157 17.2942C19.1157 17.704 19.4479 18.0362 19.8577 18.0362Z" fill="#212683"/>
<path d="M20.3496 30.5181C21.2244 30.5181 21.9336 29.8089 21.9336 28.9341C21.9336 28.0593 21.2244 27.3501 20.3496 27.3501C19.4748 27.3501 18.7656 28.0593 18.7656 28.9341C18.7656 29.8089 19.4748 30.5181 20.3496 30.5181Z" stroke="#212683" stroke-miterlimit="10"/>
<path d="M24.4579 24.9224H16.2419C15.9845 24.9224 15.7759 25.131 15.7759 25.3884V33.6044C15.7759 33.8617 15.9845 34.0704 16.2419 34.0704H24.4579C24.7152 34.0704 24.9239 33.8617 24.9239 33.6044V25.3884C24.9239 25.131 24.7152 24.9224 24.4579 24.9224Z" stroke="#212683" stroke-miterlimit="10"/>
<path d="M21.3539 30.1621C21.513 30.2518 21.659 30.3628 21.7879 30.4921C21.9778 30.6804 22.1286 30.9044 22.2315 31.1512C22.3345 31.398 22.3877 31.6627 22.3879 31.9301V33.9621H18.3159V31.9321C18.3155 31.5726 18.4106 31.2194 18.5916 30.9087C18.7726 30.598 19.0329 30.341 19.3459 30.1641" stroke="#212683" stroke-miterlimit="10"/>
<path d="M29 25.666H40.1" stroke="#212683" stroke-miterlimit="10"/>
<path d="M29 29.8682H33.75" stroke="#212683" stroke-miterlimit="10"/>
<path d="M29 34.0703H40.1" stroke="#212683" stroke-miterlimit="10"/>
<path d="M34.7998 29.8682H40.0998" stroke="#212683" stroke-miterlimit="10"/>
<path d="M11.1758 39.3345H45.9338" stroke="#212683" stroke-miterlimit="10"/>
<path d="M40.7576 15.2002C41.0514 15.2002 41.2896 14.962 41.2896 14.6682C41.2896 14.3744 41.0514 14.1362 40.7576 14.1362C40.4638 14.1362 40.2256 14.3744 40.2256 14.6682C40.2256 14.962 40.4638 15.2002 40.7576 15.2002Z" fill="#212683"/>
<path d="M45.5996 19.9341V30.5201" stroke="#212683" stroke-miterlimit="10"/>
<path d="M45.5996 32.062V33.468" stroke="#212683" stroke-miterlimit="10"/>
</svg>
